<svg id="Layer_2" data-name="Layer 2" xmlns="http://www.w3.org/2000/svg" viewBox="0 0 94.64 59.52"><title>attract-talent</title><path d="M1283.76,126.82s18.79,1,29.85-.53,13.17-.71,12.65,7.05,2.11,16.17-5.27,15.65-16.34-2.07-21.6-8.14-12.28.72-15.63,0.72S1276.55,126.82,1283.76,126.82Z" transform="translate(-1279.68 -94)" style="fill:#ec81a4"/><path d="M1321,149c3.22,0.22,4.54-1.25,5-3.64h0c-12,2.8-9.12-9.78-9.12-9.78h-4l-9.22,4.08-0.81,4.31C1308.15,147.5,1315.08,148.59,1321,149Z" transform="translate(-1279.68 -94)" style="fill:#d4658d"/><path d="M1299.38,140.86c4.74,9.73,21.26,14.9,22.67,11.74,1.67-3.72-3-3.73-3-3.73s-11.71-2.85-1.15-14.48l-7-4.57-8,5.76" transform="translate(-1279.68 -94)" style="fill:#ec81a4"/><path d="M1292,134.67c-8.81,1.65-10-2.84-7.59-7.81h0l-0.7,0c-7.2,0-3.34,14.75,0,14.75s10.36-6.79,15.63-.72a18.53,18.53,0,0,0,4.49,5.67C1302.37,140.87,1300.86,133,1292,134.67Z" transform="translate(-1279.68 -94)" style="fill:#d4658d"/><path d="M1370.23,126.82s-18.79,1-29.85-.53-13.17-.71-12.65,7.05-2.11,16.17,5.27,15.65,16.34-2.07,21.6-8.14,12.28,0.72,15.63.72S1377.44,126.82,1370.23,126.82Z" transform="translate(-1279.68 -94)" style="fill:#96ac98"/><path d="M1333,149c-3.22.22-4.54-1.25-5-3.64h0c12,2.8,9.12-9.78,9.12-9.78h4l9.22,4.08,0.81,4.31C1345.84,147.5,1338.91,148.59,1333,149Z" transform="translate(-1279.68 -94)" style="fill:#80837a"/><path d="M1354.61,140.86c-4.74,9.73-21.26,14.9-22.67,11.74-1.67-3.72,3-3.73,3-3.73s11.71-2.85,1.15-14.48l7-4.57,8,5.76" transform="translate(-1279.68 -94)" style="fill:#96ac98"/><path d="M1361.94,134.67c8.81,1.65,10-2.84,7.59-7.81h0l0.7,0c7.2,0,3.34,14.75,0,14.75s-10.36-6.79-15.63-.72a18.53,18.53,0,0,1-4.49,5.67C1351.61,140.87,1353.13,133,1361.94,134.67Z" transform="translate(-1279.68 -94)" style="fill:#80837a"/><g id="Octicons"><g id="heart"><path id="Shape" d="M1340.19,96.54a7.32,7.32,0,0,0-5.58-2.54,7.2,7.2,0,0,0-5.58,2.54,16.51,16.51,0,0,0-2,2.54,14.81,14.81,0,0,0-2-2.54,7,7,0,0,0-5.58-2.54,7.37,7.37,0,0,0-5.58,2.54,8,8,0,0,0-2,5.08,15.22,15.22,0,0,0,1.7,6.78c1.39,2.76,5.46,7,12.31,12.55a1.94,1.94,0,0,0,2.44,0c6.84-5.57,11-9.76,12.34-12.54a15.68,15.68,0,0,0,1.68-6.78,8.25,8.25,0,0,0-2-5.13v0.05Z" transform="translate(-1279.68 -94)" style="fill:#d55159"/></g></g><path d="M1314.51,121.93h-0.11l-2.15-.25a1,1,0,0,1-.88-1.11,1,1,0,0,1,1.11-.88l2.15,0.25A1,1,0,0,1,1314.51,121.93Z" transform="translate(-1279.68 -94)" style="fill:#d55159"/><path d="M1308.44,121.24h-0.11L1294,119.61a1,1,0,0,1-.88-1.11,1,1,0,0,1,1.11-.88l14.28,1.62A1,1,0,0,1,1308.44,121.24Z" transform="translate(-1279.68 -94)" style="fill:#d55159"/><path d="M1301.54,109.92a1,1,0,0,1-.5-0.14l-0.91-.53a1,1,0,0,1,1-1.73l0.91,0.53A1,1,0,0,1,1301.54,109.92Z" transform="translate(-1279.68 -94)" style="fill:#d55159"/><path d="M1311.94,115.94a1,1,0,0,1-.5-0.13l-7.85-4.53a1,1,0,1,1,1-1.73l7.85,4.53A1,1,0,0,1,1311.94,115.94Z" transform="translate(-1279.68 -94)" style="fill:#d55159"/><path d="M1357.67,119.86a1,1,0,0,1-.11-2l2.15-.25a1,1,0,0,1,1.11.88,1,1,0,0,1-.88,1.11l-2.15.25h-0.11Z" transform="translate(-1279.68 -94)" style="fill:#d55159"/><path d="M1339.48,121.93a1,1,0,0,1-.11-2l14.28-1.62a1,1,0,0,1,1.11.88,1,1,0,0,1-.88,1.11l-14.28,1.62h-0.11Z" transform="translate(-1279.68 -94)" style="fill:#d55159"/><path d="M1342.05,115.94a1,1,0,0,1-.51-1.86l0.91-.53a1,1,0,0,1,1,1.73l-0.91.53A1,1,0,0,1,1342.05,115.94Z" transform="translate(-1279.68 -94)" style="fill:#d55159"/><path d="M1345.51,113.91a1,1,0,0,1-.5-1.87l7.85-4.53a1,1,0,1,1,1,1.73l-7.85,4.53A1,1,0,0,1,1345.51,113.91Z" transform="translate(-1279.68 -94)" style="fill:#d55159"/></svg>