<svg id="Layer_2" data-name="Layer 2" xmlns="http://www.w3.org/2000/svg" viewBox="0 0 74.34 53.41"><title>automation</title><path d="M1076.12,434.09c-2-3.78-5-6.56-12.27-8.94,0,0-3.87.39-10.84,1.68s-17.36,1.42-22.78.41-10.12-1.48-10.12-1.48a17.35,17.35,0,0,0-15.82,8.33s6.87,5.81,35.92,5.81S1076.12,434.09,1076.12,434.09Z" transform="translate(-1003.03 -387.74)" style="fill:#ffd76d"/><path d="M1040.2,441.15c-29.17,0-36.43-5.86-36.73-6.11a1.25,1.25,0,0,1-.26-1.6,18.45,18.45,0,0,1,17-8.93s4.74,0.47,10.23,1.5,15.67,0.83,22.33-.41c6.94-1.29,10.79-1.68,10.95-1.7a1.27,1.27,0,0,1,.51.06c7.88,2.59,10.89,5.69,13,9.53a1.25,1.25,0,0,1-.29,1.55C1076.63,435.29,1069.37,441.15,1040.2,441.15ZM1006,433.7c2.68,1.4,11.67,5,34.18,5,22.86,0,31.67-3.57,34.24-5-1.79-2.83-4.53-5.19-10.72-7.26-1,.11-4.65.55-10.48,1.64-6.91,1.29-17.55,1.47-23.24.41-5.38-1-10-1.46-10-1.46A16,16,0,0,0,1006,433.7Z" transform="translate(-1003.03 -387.74)" style="fill:#ffd76d"/><path d="M1065.45,419.33c-8.18,2-18.41,2.59-25.36,2.52s-17.9.09-24.79-2.61c-1.21-8.67,4.21-30,24.36-30.26C1060.23,388.68,1066.44,412.67,1065.45,419.33Z" transform="translate(-1003.03 -387.74)" style="fill:#e2ad4f"/><path d="M1041.1,423.11h-2.82c-7.13,0-16.89-.12-23.42-2.68a1.25,1.25,0,0,1-.78-1c-0.86-6.15,1.41-16.42,7.32-23.31a23.82,23.82,0,0,1,18.27-8.37,23.33,23.33,0,0,1,18.61,8.36c6.55,7.48,9.14,18.59,8.43,23.42a1.25,1.25,0,0,1-.94,1C1056.35,422.85,1045.48,423.11,1041.1,423.11Zm-24.63-4.76c6.11,2.14,15.16,2.2,21.83,2.25h1.82c3.26,0,14.42,0,24.18-2.28,0.2-4.34-2-13.89-7.91-20.58a22,22,0,0,0-33.1,0A30.48,30.48,0,0,0,1016.46,418.34Zm49,1h0Z" transform="translate(-1003.03 -387.74)" style="fill:#e3ae46"/><path d="M1059.64,400.42c-4.94-4.27-12.58-1.23-18.61-.59-8.47.89-14.2-3.44-19-.5-4.54,2.76-3.79,9.95-.47,12.2s5.84-.95,10.25.65,8.2,2.44,13.2.42,7.83,0.41,11.51.05,5.31-8.64,5.31-8.64Z" transform="translate(-1003.03 -387.74)" style="fill:#2c3137"/><path d="M1039.25,415a23.05,23.05,0,0,1-7.9-1.69,7.92,7.92,0,0,0-4.68-.07c-1.73.35-3.7,0.74-5.85-.72s-3.33-4.28-3.25-7.34a8.15,8.15,0,0,1,3.78-7c3.08-1.87,6.45-1.2,10-.48a30.54,30.54,0,0,0,9.53.81c1.38-.14,2.84-0.42,4.39-0.71,5.13-1,10.94-2,15.17,1.6a1.25,1.25,0,0,1,.25.3l2.16,3.6a1.25,1.25,0,0,1,.15.88c-0.19.94-1.94,9.21-6.42,9.64a14,14,0,0,1-4.33-.42,10.46,10.46,0,0,0-6.83.28A16.21,16.21,0,0,1,1039.25,415Zm-10.11-4.58a8.84,8.84,0,0,1,3.06.54c4.58,1.66,7.89,2.22,12.3.44a12.87,12.87,0,0,1,8.27-.41,12,12,0,0,0,3.59.38c1.78-.17,3.44-4.22,4.11-7.17l-1.8-3c-3.32-2.71-8.2-1.8-12.92-.91-1.6.3-3.12,0.58-4.59,0.74a32.6,32.6,0,0,1-10.29-.84c-3.34-.67-6-1.2-8.23.17a5.7,5.7,0,0,0-2.58,4.89c-0.06,2.16.83,4.3,2.16,5.21s2.35,0.66,4,.34A14.56,14.56,0,0,1,1029.14,410.46Z" transform="translate(-1003.03 -387.74)" style="fill:#e2ad4f"/><path d="M1040.86,409.86a1,1,0,0,1-.7-0.29l-2.33-2.28-0.64.58a1,1,0,0,1-1.47-.15l-1.39-1.87-2.58,2.69a1,1,0,0,1-1.32.11l-2.55-1.91-2,.67a1,1,0,0,1-1.06-.27l-1.83-2a1,1,0,1,1,1.47-1.35l1.39,1.51,1.85-.63a1,1,0,0,1,.92.15l2.26,1.7,2.78-2.9a1,1,0,0,1,.78-0.31,1,1,0,0,1,.74.4l1.44,1.94,0.52-.47a1,1,0,0,1,1.37,0l2.44,2.39,4.68-2.89a1,1,0,0,1,1.12,0l2.47,1.81,2.07-1.1a1,1,0,0,1,1,0l0.78,0.43,3-1.78a1,1,0,0,1,1,1.72l-3.5,2.07a1,1,0,0,1-1,0l-0.81-.45-2.15,1.14a1,1,0,0,1-1.06-.08l-2.43-1.78-4.77,2.95A1,1,0,0,1,1040.86,409.86Z" transform="translate(-1003.03 -387.74)" style="fill:#ffd76d"/><path d="M1068.28,416.7a37.68,37.68,0,0,1-11.36,1.47s2.61-16.56-3-29.07A30,30,0,0,1,1068.28,416.7Z" transform="translate(-1003.03 -387.74)" style="fill:#ffd76d"/><path d="M1058.37,419.47c-0.52,0-1,0-1.54-.05a1.25,1.25,0,0,1-1.15-1.44c0-.16,2.48-16.35-2.91-28.37a1.25,1.25,0,0,1,1.73-1.62,31.48,31.48,0,0,1,15,28.77,1.25,1.25,0,0,1-.89,1.13A40.83,40.83,0,0,1,1058.37,419.47Zm0-2.5h0a37.77,37.77,0,0,0,8.7-1.24,28.74,28.74,0,0,0-10.54-23.28C1059.64,402.32,1058.79,413.16,1058.34,417Zm9.94-.27h0Z" transform="translate(-1003.03 -387.74)" style="fill:#ffd76d"/><path d="M1012.11,416.7a37.68,37.68,0,0,0,11.36,1.47s-2.61-16.56,3-29.07A30,30,0,0,0,1012.11,416.7Z" transform="translate(-1003.03 -387.74)" style="fill:#ffd76d"/><path d="M1022,419.47a40.83,40.83,0,0,1-10.27-1.57,1.25,1.25,0,0,1-.89-1.13,31.48,31.48,0,0,1,15-28.77,1.25,1.25,0,0,1,1.73,1.62c-5.4,12-2.93,28.21-2.91,28.37a1.25,1.25,0,0,1-1.15,1.44C1023.05,419.45,1022.54,419.47,1022,419.47Zm-8.69-3.74A37.76,37.76,0,0,0,1022,417h0c-0.44-3.82-1.3-14.69,1.84-24.57A28.46,28.46,0,0,0,1013.33,415.73Z" transform="translate(-1003.03 -387.74)" style="fill:#ffd76d"/><path d="M1061.34,427.6c4.91-1,4.17-1.87,2.51-2.45,0,0-3.87.39-10.84,1.68s-17.36,1.42-22.78.41-10.12-1.48-10.12-1.48a17.35,17.35,0,0,0-15.82,8.33s2.23,1.88,9.51,3.51c0,0,1.54-11.43,14.24-8.92S1056.43,428.59,1061.34,427.6Z" transform="translate(-1003.03 -387.74)" style="fill:#e2ad4f"/><path d="M1013.79,438.84a1.2,1.2,0,0,1-.27,0c-7.36-1.64-9.79-3.56-10-3.77a1.25,1.25,0,0,1-.27-1.6,18.43,18.43,0,0,1,17-8.93S1025,425,1030.45,426s15.67,0.83,22.33-.41c6.94-1.29,10.79-1.68,10.95-1.7a1.25,1.25,0,0,1,.54.06c0.54,0.19,2.19.77,2.09,2.19s-1.82,2.08-4.76,2.67h0c-3.25.65-20.15,3.78-33.8,1.08-3.64-.72-6.61-0.29-8.83,1.29a10.56,10.56,0,0,0-3.93,6.58A1.25,1.25,0,0,1,1013.79,438.84ZM1006,433.7a30.35,30.35,0,0,0,6.82,2.39,12.65,12.65,0,0,1,4.67-6.94,11.17,11.17,0,0,1,4.66-1.9c-1.35-.17-2.17-0.25-2.19-0.25A16,16,0,0,0,1006,433.7Zm55.32-6.1h0Z" transform="translate(-1003.03 -387.74)" style="fill:#e3ae46"/></svg>