<svg id="Layer_2" data-name="Layer 2" xmlns="http://www.w3.org/2000/svg" viewBox="0 0 66.44 50.27"><title>make-habit</title><path d="M1465.77,387.64a23.64,23.64,0,0,0-9,1.77l9,22L1489,416.1A23.73,23.73,0,0,0,1465.77,387.64Z" transform="translate(-1423.05 -384.81)" style="fill:#f9a26c"/><path d="M1489,416.1l-23.24-4.74,15.05,18.32A23.71,23.71,0,0,0,1489,416.1Z" transform="translate(-1423.05 -384.81)" style="fill:#d3573d"/><path d="M1480.82,429.68l-15.05-18.32-15.49,18h0A23.7,23.7,0,0,0,1480.82,429.68Z" transform="translate(-1423.05 -384.81)" style="fill:#35afaa"/><path d="M1465.77,411.4l-10.88-26.59a28.72,28.72,0,0,0-15.61,37.69h0Z" transform="translate(-1423.05 -384.81)" style="fill:#78bde9"/><path d="M1450.28,429.31l15.49-18-21.87,9.16h0A23.8,23.8,0,0,0,1450.28,429.31Z" transform="translate(-1423.05 -384.81)" style="fill:#19959b"/><path d="M1465.77,411.36l-21.87,9.16a23.77,23.77,0,0,0,2.62,4.67Z" transform="translate(-1423.05 -384.81)" style="fill:#008d92"/><path d="M1456.79,389.41l9,22-4.57-23.27A23.64,23.64,0,0,0,1456.79,389.41Z" transform="translate(-1423.05 -384.81)" style="fill:#d89769"/><path d="M1426.52,404.73a22.27,22.27,0,0,1-.79-9.78,5,5,0,0,1,1.56-3.38c1.15-.91,2.85-1,4.41-1q3.82,0,7.65,0a6.22,6.22,0,0,1,3.68.84c1.36,1,1.34,2.86,1.2,4.43l-0.81,9.45a3,3,0,0,1-.64,1.94,4,4,0,0,1-2.83.76q-6.08.08-12.16-.08a5.53,5.53,0,0,1-3.15-.73,4.17,4.17,0,0,1-1.32-3.16,62.82,62.82,0,0,1-.19-9.3,5.07,5.07,0,0,1,1-3.2c1.14-1.3,3.26-1.45,5.13-1.5l9.48-.23c1.82,0,4,.07,5,1.47a4.22,4.22,0,0,1,.44,2.81l-0.84,10.61" transform="translate(-1423.05 -384.81)" style="fill:#2978b1"/><path d="M1443.7,393.53c2-.61,3.89,1,4.56,4-1.38-2-3.92-1.55-5.77,1.11" transform="translate(-1423.05 -384.81)" style="fill:#2978b1"/><g id="Octicons"><g id="check"><polygon id="Shape" points="15.66 11.39 8.94 18.11 5.58 14.75 6.84 13.49 8.94 15.59 14.4 10.13 15.66 11.39" style="fill:#fff"/></g></g></svg>