<svg xmlns="http://www.w3.org/2000/svg" xmlns:xlink="http://www.w3.org/1999/xlink" viewBox="0 0 668.38 186.54"><defs><linearGradient id="linear-gradient" x1="525.3" y1="459.46" x2="723.95" y2="459.46" gradientTransform="matrix(1.16, -0.13, 0.14, 1.28, -257.94, -247.92)" gradientUnits="userSpaceOnUse"><stop offset="0" stop-color="#ecf5fc"/><stop offset="1" stop-color="#dddfe2"/></linearGradient><linearGradient id="linear-gradient-2" x1="113.04" y1="276.02" x2="388.59" y2="276.02" gradientTransform="translate(177.36 -46.33) rotate(8.84)" gradientUnits="userSpaceOnUse"><stop offset="0" stop-color="#dddfe2"/><stop offset="1" stop-color="#ecf5fc"/></linearGradient><linearGradient id="linear-gradient-3" x1="167.8" y1="318.61" x2="306.02" y2="318.61" gradientTransform="matrix(1.26, 0.03, -0.02, 1, -20.88, -28.96)" gradientUnits="userSpaceOnUse"><stop offset="0" stop-color="#dccdd7"/><stop offset="1" stop-color="#eae1ef"/></linearGradient><linearGradient id="linear-gradient-4" x1="225.14" y1="309.93" x2="250.5" y2="309.93" gradientTransform="translate(-9.55 1.96) rotate(-0.46)" gradientUnits="userSpaceOnUse"><stop offset="0" stop-color="#bf3827"/><stop offset="1" stop-color="#a8392b"/></linearGradient><linearGradient id="linear-gradient-5" x1="423.81" y1="244.12" x2="457.86" y2="285.25" gradientUnits="userSpaceOnUse"><stop offset="0" stop-color="#7b4771"/><stop offset="1" stop-color="#6d2f63"/></linearGradient><linearGradient id="linear-gradient-6" x1="434.54" y1="257.69" x2="475.36" y2="307.01" gradientUnits="userSpaceOnUse"><stop offset="0" stop-color="#7b4771"/><stop offset="1" stop-color="#8a5d81"/></linearGradient><linearGradient id="linear-gradient-7" x1="591.44" y1="252.59" x2="607.49" y2="252.59" gradientUnits="userSpaceOnUse"><stop offset="0" stop-color="#52192c"/><stop offset="1" stop-color="#693a44"/></linearGradient><linearGradient id="linear-gradient-8" x1="571.32" y1="259.74" x2="598.94" y2="259.74" gradientUnits="userSpaceOnUse"><stop offset="0" stop-color="#52192c"/><stop offset="1" stop-color="#3c1a25"/></linearGradient><linearGradient id="linear-gradient-9" x1="579.73" y1="250.49" x2="588.35" y2="256.99" gradientUnits="userSpaceOnUse"><stop offset="0" stop-color="#52192c"/><stop offset="1" stop-color="#31091a"/></linearGradient><linearGradient id="linear-gradient-10" x1="571.67" y1="264.9" x2="596.44" y2="264.9" xlink:href="#linear-gradient-7"/><linearGradient id="linear-gradient-11" x1="548.76" y1="331.66" x2="589.61" y2="331.66" gradientUnits="userSpaceOnUse"><stop offset="0" stop-color="#272d37"/><stop offset="1" stop-color="#151e29"/></linearGradient><linearGradient id="linear-gradient-12" x1="588.52" y1="285.93" x2="555.52" y2="293.43" gradientUnits="userSpaceOnUse"><stop offset="0" stop-color="#f5814a"/><stop offset="1" stop-color="#df7a4c"/></linearGradient><linearGradient id="linear-gradient-13" x1="553.61" y1="283.11" x2="589.77" y2="266.11" gradientUnits="userSpaceOnUse"><stop offset="0" stop-color="#f5814a"/><stop offset="1" stop-color="#d65d48"/></linearGradient><linearGradient id="linear-gradient-14" x1="584.23" y1="276.25" x2="599.81" y2="263" gradientUnits="userSpaceOnUse"><stop offset="0" stop-color="#afd3d9"/><stop offset="1" stop-color="#96bcbb"/></linearGradient><linearGradient id="linear-gradient-15" x1="448.02" y1="324.28" x2="417.76" y2="278.66" gradientUnits="userSpaceOnUse"><stop offset="0" stop-color="#171c33"/><stop offset="1" stop-color="#000a20"/></linearGradient><linearGradient id="linear-gradient-16" x1="570.53" y1="346.82" x2="598.94" y2="346.82" gradientUnits="userSpaceOnUse"><stop offset="0" stop-color="#661b2c"/><stop offset="1" stop-color="#120000"/></linearGradient><linearGradient id="linear-gradient-17" x1="200.61" y1="345.17" x2="228.05" y2="345.17" gradientUnits="userSpaceOnUse"><stop offset="0" stop-color="#cd845c"/><stop offset="1" stop-color="#ba6556"/></linearGradient><linearGradient id="linear-gradient-18" x1="204.47" y1="350.55" x2="224.29" y2="350.55" gradientUnits="userSpaceOnUse"><stop offset="0" stop-color="#bb582d"/><stop offset="1" stop-color="#b65c4e"/></linearGradient><linearGradient id="linear-gradient-19" x1="497.85" y1="337.77" x2="530.36" y2="337.77" gradientUnits="userSpaceOnUse"><stop offset="0" stop-color="#69a7cd"/><stop offset="1" stop-color="#4793c3"/></linearGradient><linearGradient id="linear-gradient-20" x1="490.35" y1="311.27" x2="514.13" y2="311.27" xlink:href="#linear-gradient-19"/><linearGradient id="linear-gradient-21" x1="536.38" y1="336.87" x2="586.04" y2="336.87" xlink:href="#linear-gradient-16"/><linearGradient id="linear-gradient-22" x1="475.62" y1="338.21" x2="499.76" y2="338.21" xlink:href="#linear-gradient-16"/><linearGradient id="linear-gradient-23" x1="434.14" y1="368.8" x2="448.21" y2="387.39" gradientUnits="userSpaceOnUse"><stop offset="0" stop-color="#4f1d2e"/><stop offset="1" stop-color="#120000"/></linearGradient><linearGradient id="linear-gradient-24" x1="418.07" y1="329.74" x2="422.21" y2="335.21" xlink:href="#linear-gradient-23"/><linearGradient id="linear-gradient-25" x1="508.07" y1="284.37" x2="530.36" y2="284.37" gradientUnits="userSpaceOnUse"><stop offset="0" stop-color="#fdd4ba"/><stop offset="1" stop-color="#fabeab"/></linearGradient><linearGradient id="linear-gradient-26" x1="350.81" y1="261.42" x2="369.43" y2="261.42" gradientUnits="userSpaceOnUse"><stop offset="0" stop-color="#a9ba89"/><stop offset="1" stop-color="#84977b"/></linearGradient><linearGradient id="linear-gradient-27" x1="347.85" y1="253.91" x2="358" y2="258.01" xlink:href="#linear-gradient-26"/><linearGradient id="linear-gradient-28" x1="323.46" y1="280.36" x2="347.82" y2="280.36" gradientUnits="userSpaceOnUse"><stop offset="0" stop-color="#291d2b"/><stop offset="1" stop-color="#120016"/></linearGradient><linearGradient id="linear-gradient-29" x1="319.63" y1="266.43" x2="358.13" y2="266.43" xlink:href="#linear-gradient-28"/><linearGradient id="linear-gradient-30" x1="358.89" y1="264.1" x2="359.77" y2="264.1" xlink:href="#linear-gradient-28"/><linearGradient id="linear-gradient-31" x1="188.38" y1="366.64" x2="231.89" y2="366.64" xlink:href="#linear-gradient-23"/><linearGradient id="linear-gradient-32" x1="303.77" y1="334.4" x2="358.24" y2="334.4" xlink:href="#linear-gradient-23"/><linearGradient id="linear-gradient-33" x1="199.25" y1="358.19" x2="235.37" y2="358.19" xlink:href="#linear-gradient-23"/><linearGradient id="linear-gradient-34" x1="215.19" y1="298.5" x2="229.79" y2="298.5" gradientUnits="userSpaceOnUse"><stop offset="0" stop-color="#cd845c"/><stop offset="1" stop-color="#c04d35"/></linearGradient><linearGradient id="linear-gradient-35" x1="215.19" y1="294.37" x2="220.76" y2="294.37" xlink:href="#linear-gradient-34"/><linearGradient id="linear-gradient-36" x1="244.41" y1="348.84" x2="205.69" y2="351.82" xlink:href="#linear-gradient-17"/><linearGradient id="linear-gradient-37" x1="221.26" y1="333.65" x2="200.41" y2="335.26" gradientUnits="userSpaceOnUse"><stop offset="0" stop-color="#5b392d"/><stop offset="1" stop-color="#482418"/></linearGradient><linearGradient id="linear-gradient-38" x1="208.87" y1="325.24" x2="216.9" y2="315.2" gradientUnits="userSpaceOnUse"><stop offset="0" stop-color="#bf3827"/><stop offset="1" stop-color="#953a2e"/></linearGradient><linearGradient id="linear-gradient-39" x1="203.91" y1="316.44" x2="215.23" y2="302.3" xlink:href="#linear-gradient-38"/><linearGradient id="linear-gradient-40" x1="566.4" y1="296.21" x2="586.07" y2="284.55" xlink:href="#linear-gradient-14"/><linearGradient id="linear-gradient-41" x1="596.01" y1="300.99" x2="609.75" y2="300.99" xlink:href="#linear-gradient-14"/><linearGradient id="linear-gradient-42" x1="342.75" y1="284.34" x2="376.53" y2="284.34" xlink:href="#linear-gradient-28"/><linearGradient id="linear-gradient-43" x1="314.05" y1="288.93" x2="340.44" y2="288.93" xlink:href="#linear-gradient-28"/><linearGradient id="linear-gradient-44" x1="608.98" y1="342.25" x2="630.42" y2="342.25" xlink:href="#linear-gradient-16"/><linearGradient id="linear-gradient-45" x1="370.42" y1="288.46" x2="333.92" y2="311.46" gradientUnits="userSpaceOnUse"><stop offset="0" stop-color="#7a4e30"/><stop offset="1" stop-color="#5b361e"/></linearGradient><linearGradient id="linear-gradient-46" x1="328.01" y1="332.52" x2="359.6" y2="332.52" xlink:href="#linear-gradient-45"/><linearGradient id="linear-gradient-47" x1="463.59" y1="173.71" x2="447.31" y2="176.91" gradientTransform="matrix(1, -0.05, 0.02, 0.95, -19.42, 74.98)" gradientUnits="userSpaceOnUse"><stop offset="0" stop-color="#9a4970"/><stop offset="1" stop-color="#7b4771"/></linearGradient><linearGradient id="linear-gradient-48" x1="463.99" y1="183.04" x2="443.26" y2="190.19" xlink:href="#linear-gradient-47"/><linearGradient id="linear-gradient-49" x1="408.93" y1="329.09" x2="429.33" y2="329.09" gradientUnits="userSpaceOnUse"><stop offset="0" stop-color="#384052"/><stop offset="1" stop-color="#171c33"/></linearGradient><linearGradient id="linear-gradient-50" x1="416.55" y1="257.03" x2="433.55" y2="257.03" gradientUnits="userSpaceOnUse"><stop offset="0" stop-color="#e0bebb"/><stop offset="1" stop-color="#b98a8a"/></linearGradient><linearGradient id="linear-gradient-51" x1="416.02" y1="264.23" x2="424.06" y2="253.08" gradientTransform="matrix(1, 0, 0, 1, 0, 0)" xlink:href="#linear-gradient-47"/><linearGradient id="linear-gradient-52" x1="406.32" y1="231.92" x2="455.77" y2="291.66" gradientTransform="matrix(1, 0, 0, 1, 0, 0)" xlink:href="#linear-gradient-47"/><linearGradient id="linear-gradient-53" x1="435.16" y1="265.84" x2="471.53" y2="309.77" gradientUnits="userSpaceOnUse"><stop offset="0" stop-color="#9a4970"/><stop offset="1" stop-color="#a05678"/></linearGradient><linearGradient id="linear-gradient-54" x1="408.93" y1="276.35" x2="429.4" y2="276.35" gradientUnits="userSpaceOnUse"><stop offset="0" stop-color="#e0bebb"/><stop offset="1" stop-color="#c39190"/></linearGradient><linearGradient id="linear-gradient-55" x1="433.96" y1="375.2" x2="399.96" y2="323.95" xlink:href="#linear-gradient-49"/><linearGradient id="linear-gradient-56" x1="507" y1="257.76" x2="516.87" y2="250.67" gradientUnits="userSpaceOnUse"><stop offset="0" stop-color="#f68d6f"/><stop offset="1" stop-color="#f04947"/></linearGradient><linearGradient id="linear-gradient-57" x1="507.19" y1="256.76" x2="510.29" y2="252.58" xlink:href="#linear-gradient-56"/><linearGradient id="linear-gradient-58" x1="519.25" y1="256.92" x2="508.67" y2="261.65" gradientUnits="userSpaceOnUse"><stop offset="0" stop-color="#fedeca"/><stop offset="1" stop-color="#fbc8b7"/></linearGradient><linearGradient id="linear-gradient-59" x1="501.63" y1="277.18" x2="469.35" y2="296.33" xlink:href="#linear-gradient-58"/><linearGradient id="linear-gradient-60" x1="504.12" y1="263" x2="479.68" y2="277.49" xlink:href="#linear-gradient-58"/><linearGradient id="linear-gradient-61" x1="527.53" y1="300.79" x2="497.19" y2="270.63" xlink:href="#linear-gradient-58"/><linearGradient id="linear-gradient-62" x1="455.24" y1="29.44" x2="455.24" y2="29.44" gradientUnits="userSpaceOnUse"><stop offset="0" stop-color="#312a32"/><stop offset="1" stop-color="#494148"/></linearGradient><linearGradient id="linear-gradient-63" x1="510.76" y1="240.79" x2="524.46" y2="234.35" xlink:href="#linear-gradient-62"/><linearGradient id="linear-gradient-64" x1="478.16" y1="340.98" x2="506.93" y2="340.98" gradientUnits="userSpaceOnUse"><stop offset="0" stop-color="#5cbedd"/><stop offset="1" stop-color="#559cc3"/></linearGradient><linearGradient id="linear-gradient-65" x1="529.28" y1="305.76" x2="590.61" y2="337.76" xlink:href="#linear-gradient-11"/><linearGradient id="linear-gradient-66" x1="491.79" y1="126.24" x2="504.29" y2="132.76" xlink:href="#linear-gradient-11"/><linearGradient id="linear-gradient-67" x1="209.83" y1="309.77" x2="238.15" y2="309.77" gradientUnits="userSpaceOnUse"><stop offset="0" stop-color="#d64a35"/><stop offset="1" stop-color="#bf3827"/></linearGradient><linearGradient id="linear-gradient-68" x1="214.96" y1="280.57" x2="235.71" y2="280.57" gradientUnits="userSpaceOnUse"><stop offset="0" stop-color="#d8abaa"/><stop offset="1" stop-color="#eedcda"/></linearGradient><linearGradient id="linear-gradient-69" x1="224.02" y1="325.33" x2="199.97" y2="327.18" xlink:href="#linear-gradient-38"/><linearGradient id="linear-gradient-70" x1="44.27" y1="341.19" x2="218.76" y2="341.19" gradientTransform="matrix(1.66, 0.17, -0.2, 0.99, 59.26, -26.92)" xlink:href="#linear-gradient"/><linearGradient id="linear-gradient-71" x1="489.61" y1="305.68" x2="766.14" y2="305.68" gradientTransform="translate(-47.8 25.13) rotate(-2.33)" gradientUnits="userSpaceOnUse"><stop offset="0" stop-color="#eae1ef"/><stop offset="1" stop-color="#dccdd7"/></linearGradient></defs><title>oss-bike</title><g style="isolation:isolate"><g id="Layer_2" data-name="Layer 2"><path d="M417.58,270a0.94,0.94,0,0,1-1-1.55c36.88-31.27,74.87-29.33,122.22,2,38.19,25.31,86.85-10.11,107.7-28.26a0.94,0.94,0,0,0-1.1-1.51c-12.72,7.84-34.48,17.77-56.6,11.9C554.38,243.55,538,279.45,493.33,264,460.24,252.57,430.7,263.56,417.58,270Z" transform="translate(-61.81 -212.73)" style="opacity:0.5;fill:url(#linear-gradient)"/><path d="M518.6,284.49a1,1,0,0,0-.37-1.93c-14.51,1.13-42.37-1.61-84.12-26.06-67.55-39.56-150.58,4.48-189,2.76a1,1,0,0,0-.49,1.87C266,271.49,306,284.75,347.6,269.72c45.16-16.32,53.36-20,97,6C474.23,293.38,503.15,289.06,518.6,284.49Z" transform="translate(-61.81 -212.73)" style="opacity:0.5;fill:url(#linear-gradient-2)"/><path d="M357.95,298.79a0.94,0.94,0,0,0-.94-1.58c-7.07,2.3-24.07,4.5-57.22-7.67-45.25-16.62-71.42,8.75-115.69,12.52a0.94,0.94,0,0,0-.24,1.82c8.72,3,30.22,8.56,50.73.28,26.55-10.72,41.16-3.8,71.12,3.42S351.68,304.56,357.95,298.79Z" transform="translate(-61.81 -212.73)" style="opacity:0.5;fill:url(#linear-gradient-3)"/><path d="M242.34,318c0.89,0.53,1.2,2,2.27,1.72s2.1-1.1,3.39-.34,1.23,3.07-.75,2.73a18.09,18.09,0,0,1-6.32-2.24C238.73,318.59,242.34,318,242.34,318Z" transform="translate(-61.81 -212.73)" style="fill:#cd845c"/><path d="M223.84,299.34a67.58,67.58,0,0,1,5.17,5.72c1.76,2.28,3.21,4.68,5.24,6.09s7.14,4.34,9.24,7.41l-1.11,2.6s-3.45-1-6.86-2.15a23.57,23.57,0,0,1-9.19-5.1c-2.81-2.63-6.25-4-7.94-7.58S221.54,297,223.84,299.34Z" transform="translate(-61.81 -212.73)" style="fill:#bf3827"/><path d="M235.83,312.19c-2-.91-4.13-2.06-6.08-2.28-3.1-.34-3.4-4.12-3-7.51-1.15-1.26-2.23-2.35-2.93-3.07-2.3-2.38-7.21,3.29-5.46,7s5.13,5,7.94,7.58a23.57,23.57,0,0,0,9.19,5.1c3.4,1.13,6.86,2.15,6.86,2.15l1.11-2.6C241.82,316.12,238.23,313.76,235.83,312.19Z" transform="translate(-61.81 -212.73)" style="fill:url(#linear-gradient-4)"/><path d="M588.42,265.09c2.8-.26,4.36,5.81,2.94,13-1.47,7.42-5.59,12.17-4.37,12.7s4.22,1,8.46,2.83,7,5,9.41,5.15,2.93-3.83,5.64-4.56c1.38-.37,1.3.57,1.55,2.34s0,2.41-2.53,3.5-3.27.18-7.65,0.26-12.55-.79-15.21-1.67-3.6-.57-4.24-1.41-2.65-5.6-1.29-17.54C582.43,268.31,585.15,265.39,588.42,265.09Z" transform="translate(-61.81 -212.73)" style="fill:#88b3b8"/><path d="M439.1,271.43c2.54,6.32,4.17,9.13,9,11.38s11,5.17,12.66,8.45-0.95,6.24,1.07,7.81,4.46,1.4,5-.34,1.67-1.21-1-5.71-8.83-11.35-10.76-14.62-6.93-6.16-8.45-9.53-5.4-17.54-9.69-22.91-8.08-.47-5.91,7.1S439.1,271.43,439.1,271.43Z" transform="translate(-61.81 -212.73)" style="fill:#7b4771"/><path d="M442.43,267.93c-4.69-5.59-4.77-13-5.37-19.48l-4.16,2.93L432.27,257a132.81,132.81,0,0,0,6.83,14.45c1.82,4.51,3.17,7.23,5.54,9.24a10.78,10.78,0,0,0,2.48-.36C456.15,277.9,447.12,273.52,442.43,267.93Z" transform="translate(-61.81 -212.73)" style="fill:url(#linear-gradient-5)"/><path d="M465.75,293c-2.7-4.52-8.83-11.35-10.76-14.62-1.78-3-6.1-5.67-8-8.69-2.4-2-5.12-4-2.14,2.33s11.65,11.58,15.26,16.45c3.29,4.43,4.14,12.07,6.45,10.65a1.85,1.85,0,0,0,.2-0.42C467.25,297,468.43,297.53,465.75,293Z" transform="translate(-61.81 -212.73)" style="fill:url(#linear-gradient-6)"/><path d="M622.89,309a2.34,2.34,0,0,0,.4-2c-1-4-9.78-9-14.36-9a1.08,1.08,0,0,0,0,2.17c3.86-.05,11.52,4.55,12.23,7.35a0.2,0.2,0,0,1-.06.2" transform="translate(-61.81 -212.73)" style="fill:#5d7977"/><path d="M621.78,304.46c0.45-.9-4.55-4.65-9.2-6s-5.1-1-5.51.35,1.22,1.57,3.88,2.06,7.49,3.62,8.07,4.46,1,0.45,1,.45A3.61,3.61,0,0,0,621.78,304.46Z" transform="translate(-61.81 -212.73)" style="fill:#291d2b"/><path d="M592.86,271.44c-0.7,2.6.09,6.67-.54,8.43a5.42,5.42,0,0,1-5.24,3c-2-.26-1-7.89,1.24-9.69Z" transform="translate(-61.81 -212.73)" style="fill:#e07253"/><path d="M607.45,255.71c0.3-.75-1.17-4.54-5.21-5.7s-7-.42-9.11,1.92a10.92,10.92,0,0,0-2.61,4.55s-1.18-1.44-2.17-2.94-2.92-3.6-5.81-3.5a5,5,0,0,0-3.88.19,2.63,2.63,0,0,0-1.8,2.66,6.72,6.72,0,0,0-4.62,3.31c-1.67,3-.57,4.66-0.57,4.66a5.65,5.65,0,0,0,1.46,3.47,5.39,5.39,0,0,0,3.82,2.06l13.3,3.31,7.19-6.44,7.45-4Z" transform="translate(-61.81 -212.73)" style="fill:#52192c"/><path d="M602.24,250c-4.08-1.17-7-.42-9.11,1.92a12.81,12.81,0,0,0-1.69,2.35c4.5-3.55,8.72-4.07,11.84-1.39s3.26,1.2,4.17,2.82C607.75,255,606.28,251.17,602.24,250Z" transform="translate(-61.81 -212.73)" style="fill:url(#linear-gradient-7)"/><path d="M582.55,250.05a5,5,0,0,0-3.88.19,2.63,2.63,0,0,0-1.8,2.66,6.72,6.72,0,0,0-4.62,3.31c-1.67,3-.57,4.66-0.57,4.66a5.65,5.65,0,0,0,1.46,3.47,5.39,5.39,0,0,0,3.82,2.06l13.3,3.31,7.19-6.44,1.49-.8-0.63-4.31-2.59-.2s-2.41,1-5.21-1.49c0,0-1.18-1.44-2.17-2.94S585.43,250,582.55,250.05Z" transform="translate(-61.81 -212.73)" style="fill:url(#linear-gradient-8)"/><path d="M590.52,256.49s-1.18-1.44-2.17-2.94-2.92-3.6-5.81-3.5a5,5,0,0,0-3.88.19,2.63,2.63,0,0,0-1.8,2.66c3.68-2.76,6.95-.11,9.7,1.92s5.75,5.47,9.16,3.15C595.73,258,593.32,259,590.52,256.49Z" transform="translate(-61.81 -212.73)" style="fill:url(#linear-gradient-9)"/><path d="M587.32,261.92c-5.5-1.62-9.88-2.6-11.44-.11s-4.2-.93-4.2-0.93a5.65,5.65,0,0,0,1.46,3.47,5.39,5.39,0,0,0,3.82,2.06l13.3,3.31,5.27-4.71,0.92-2.84-1.87-2.09S592.82,263.55,587.32,261.92Z" transform="translate(-61.81 -212.73)" style="fill:url(#linear-gradient-10)"/><path d="M578.22,367.4c-1.34,1.45-2.32,2-2.85,4.47l11,5.93a1,1,0,0,0,.31-1.56c-0.78-.83-5-5.8-3.63-6.82s-1-2.53-1-2.53Z" transform="translate(-61.81 -212.73)" style="fill:#120016"/><path d="M559.09,292.58c13,9.87,26.61,27,29,31.2s1.18,5.53.92,10.1c-0.7,12.15.77,22.56-6.42,36.87l-4.56-3.34s0.42-3,1.47-9.49-4.18-12.25-.94-18.25,5.49-7.6.8-10.69-11.45-4.2-16.08-7.64-11-8.48-14.08-13.15S559.09,292.58,559.09,292.58Z" transform="translate(-61.81 -212.73)" style="fill:url(#linear-gradient-11)"/><path d="M585.39,264.83c-3-.59-6.19-2.12-8.77,1.23s-17.68,15.25-19.4,16.67-2.93.07-7.42,3.08-2.49,9.71-2.49,9.71A142.76,142.76,0,0,1,566.72,297s0.41-5.33,7.23-6.11c6.66-.76,8.8.41,12-3.46s5.22-10.49,6.33-13.16S585.39,264.83,585.39,264.83Z" transform="translate(-61.81 -212.73)" style="fill:#f5814a"/><path d="M585.93,287.44a17.06,17.06,0,0,0,1.11-1.53c-5,2.21-10.68,1.69-24,.8-10.88-.74-14.7,4.26-13.62,8.84A154.12,154.12,0,0,1,566.72,297s0.41-5.33,7.23-6.11C580.61,290.14,582.75,291.31,585.93,287.44Z" transform="translate(-61.81 -212.73)" style="opacity:0.75;fill:url(#linear-gradient-12)"/><path d="M576.62,266.06c-2.64,3.43-17.68,15.25-19.4,16.67a3.34,3.34,0,0,1-.83.51c16.69-3.22,22-1.92,21.81-7.78s3.16-11.46,5.69-11h0C581.36,263.87,578.77,263.27,576.62,266.06Z" transform="translate(-61.81 -212.73)" style="opacity:0.75;fill:url(#linear-gradient-13)"/><path d="M606.21,267.37c-0.3.67-2.63-.13-5.21-0.72-3-.69-4.84,1.12-6.3,3-2.19,2.75-1.35,3.06-3.23,6.09-2.38,3.85-3.38,8-3.91,8.13-1.18.27-2-2.51-1-6.38s2.36-9.17-1.14-12.61c0,0,3.87.85,6.65-.73a4.47,4.47,0,0,0,2.52-4l1.84-.63s-1.4-2-.48-3.29,2.2,0.15,2.33,1a27,27,0,0,0,4.34-3.82c1.29,1.24,4.07,1.39,4.85,2.35S607.71,264.07,606.21,267.37Z" transform="translate(-61.81 -212.73)" style="fill:#afd3d9"/><ellipse cx="604.3" cy="261.48" rx="1.06" ry="1.92" transform="translate(119.65 553.48) rotate(-73.44)" style="fill:#b1b3c6"/><path d="M597.26,259.86a1.38,1.38,0,0,1-.85-0.41l-1.84.63a4.47,4.47,0,0,1-2.52,4c-2.78,1.58-6.65.73-6.65,0.73,3.5,3.44,2.11,8.79,1.14,12.61s-0.15,6.65,1,6.38c0.53-.12,1.53-4.28,3.91-8.13,1.88-3,1-3.34,3.23-6.09,1.46-1.83,3.27-3.64,6.3-3,2.59,0.59,4.91,1.39,5.21.72-2.1.16-8.23-3.14-8.56-7.12A0.42,0.42,0,0,0,597.26,259.86Z" transform="translate(-61.81 -212.73)" style="fill:url(#linear-gradient-14)"/><path d="M623.09,306.52c-2.05-3.83-12.17-6.7-16.78-5.5a1.13,1.13,0,0,0,.57,2.19c3.89-1,12.8,1.72,14.22,4.38a0.21,0.21,0,0,1,0,.22c-0.62,1.54-5.45,3.8-9.37,5.22a1.13,1.13,0,0,0-2.21.32v4.41a1.13,1.13,0,1,0,2.26,0V315.4c2.82-1,10.22-3.76,11.42-6.75A2.44,2.44,0,0,0,623.09,306.52Z" transform="translate(-61.81 -212.73)" style="fill:#5d7977"/><path d="M620.91,304.31c0.23-1-5.76-3.56-10.83-3.79s-5.4.28-5.49,1.74,1.63,1.28,4.45,1.11,8.49,1.79,9.28,2.5,1.17,0.19,1.17.19A3.77,3.77,0,0,0,620.91,304.31Z" transform="translate(-61.81 -212.73)" style="fill:#291d2b"/><path d="M415.17,280.38c-12.07,11.38,18.05,26.56,24.16,34.15s22.55,12.31,25.36,9.87,0.48-2.5-.67-4.79S453.14,303,438.89,292,415.17,280.38,415.17,280.38Z" transform="translate(-61.81 -212.73)" style="fill:#171c33"/><path d="M415.17,280.38c-12.07,11.38,18.05,26.56,24.16,34.15,2.61,3.24,7.1,6,11.61,7.82,0,0-.25-4.86-6.34-11.08s-11.41-9.73-5.71-19.3C424.64,280.91,415.17,280.38,415.17,280.38Z" transform="translate(-61.81 -212.73)" style="fill:url(#linear-gradient-15)"/><path d="M418.87,348.52c11-.58,40.26-13.79,46.58-23.86,3.7-5.9-3.82-5.35-14.5-2.31-15.94,4.52-30.12,19.06-34.22,20.49Z" transform="translate(-61.81 -212.73)" style="fill:#171c33"/><path d="M344.28,370.48a38.54,38.54,0,0,1-1.18,4,0.71,0.71,0,0,0,.52.94,96.82,96.82,0,0,0,12.87,1.66c3.74,0,.12-2.76-1.91-3.11s-2.8-.06-3.79-1.42-0.53-2-.53-2l-5.89-1.79Z" transform="translate(-61.81 -212.73)" style="fill:#291d2b"/><path d="M343.62,375.43a96.8,96.8,0,0,0,12.87,1.66,1.77,1.77,0,0,0,1.57-.46c-5.57-.05-15-2.14-15-2.14A0.71,0.71,0,0,0,343.62,375.43Z" transform="translate(-61.81 -212.73)" style="fill:#443944"/><path d="M314.14,298.55c3.66,9.89,12.76,12.55,21.39,25.37s8.08,14.16,8.08,14.16-2.47.88,0.54,2.43c0,0-.26,2-1.93,10s2.19,16.59,1.82,19.47l6.33,1.77a66.46,66.46,0,0,0,2.43-10c1.13-6.33,4.1-17.13,4.61-22.89s0-6.42-1.07-9.07-10.15-16-10.15-16l0.75-9.73Z" transform="translate(-61.81 -212.73)" style="fill:#4e2f1f"/><path d="M569.74,360.73l-10.38-40H609c0.27,20.89,15.17,37.92,18.23,41.24s4.26,1.73,2.13-.67-17.58-24-16.56-42.84a0.88,0.88,0,0,0-.87-0.93H555.5L568,363.82Z" transform="translate(-61.81 -212.73)" style="fill:#882d34"/><path d="M570.53,358.86c15.7-22.88,40.31-33.93,40.31-33.93l0.67,3.59a112.42,112.42,0,0,0-39.25,33.39Z" transform="translate(-61.81 -212.73)" style="fill:#882d34"/><path d="M570.53,358.86l1.73,3.06a112.81,112.81,0,0,1,23.48-23.57,22.5,22.5,0,0,1,3.19-6.62C590.49,337.28,579.17,346.28,570.53,358.86Z" transform="translate(-61.81 -212.73)" style="opacity:0.75;fill:url(#linear-gradient-16)"/><path d="M624.18,363.44c-0.54-3,2.89-6.26,6.24-5.38a5,5,0,0,1,3.1,7.6C631.52,368.65,625.37,370,624.18,363.44Z" transform="translate(-61.81 -212.73)" style="fill:#254053"/><path d="M629.24,329a34,34,0,1,0,34,34A34,34,0,0,0,629.24,329Zm0,65.87A31.83,31.83,0,1,1,661.07,363,31.83,31.83,0,0,1,629.24,394.87Z" transform="translate(-61.81 -212.73)" style="fill:#5d7977"/><path d="M629.24,326.8A36.24,36.24,0,1,0,665.48,363,36.24,36.24,0,0,0,629.24,326.8Zm0,69.28a33,33,0,1,1,33-33A33,33,0,0,1,629.24,396.08Z" transform="translate(-61.81 -212.73)" style="fill:#291d2b"/><path d="M291.45,329a34,34,0,1,0,34,34A34,34,0,0,0,291.45,329Zm0,65.87A31.83,31.83,0,1,1,323.28,363,31.83,31.83,0,0,1,291.45,394.87Z" transform="translate(-61.81 -212.73)" style="fill:#5d7977"/><path d="M291.45,326.8A36.24,36.24,0,1,0,327.69,363,36.24,36.24,0,0,0,291.45,326.8Zm0,69.28a33,33,0,1,1,33-33A33,33,0,0,1,291.45,396.08Z" transform="translate(-61.81 -212.73)" style="fill:#291d2b"/><path d="M212.12,375.26a0.75,0.75,0,0,1-.62-0.32l-3-4.41a0.75,0.75,0,1,1,1.24-.85l3,4.41A0.75,0.75,0,0,1,212.12,375.26Z" transform="translate(-61.81 -212.73)" style="fill:#1c1e30"/><path d="M209.46,367.39c-0.9.53-.57,0.46,0.42,2.06,1.12,1.79,2.68,4.43,4.49,5.36,2.13,1.09,1.81-.34,1.81-0.34l-3-2.39-1.58-2.52Z" transform="translate(-61.81 -212.73)" style="fill:#5b392d"/><path d="M215.63,375.71a3.55,3.55,0,0,1-1.49-.46c-1.82-.93-3.35-3.4-4.47-5.2l-0.21-.34c-0.22-.36-0.41-0.63-0.56-0.84a1.48,1.48,0,0,1-.45-1.14,1.34,1.34,0,0,1,.76-0.77,0.5,0.5,0,0,1,.61.08l2.17,2.16,0.07,0.09,1.54,2.45,2.91,2.33a0.5,0.5,0,0,1,.18.28,1.18,1.18,0,0,1-.36,1.15A1.09,1.09,0,0,1,215.63,375.71Zm-5.78-7.23c0.13,0.19.29,0.42,0.46,0.7l0.21,0.34c1.06,1.7,2.51,4,4.08,4.83a2,2,0,0,0,1.09.35l-2.79-2.24a0.51,0.51,0,0,1-.11-0.12l-1.55-2.48Z" transform="translate(-61.81 -212.73)" style="fill:#5b392d"/><path d="M212.37,364.83a12.64,12.64,0,0,1-2.91,2.56s0.53,0.93,3.48,5.09c1.83,2.57,4.39,2.44,3.07,1.11s-1.46-3-1.89-4.08,0.74-2.45.74-2.45Z" transform="translate(-61.81 -212.73)" style="fill:#5b392d"/><path d="M215.9,374.76a4.56,4.56,0,0,1-3.16-2.14c-2.93-4.12-3.48-5.07-3.5-5.11a0.25,0.25,0,0,1,.08-0.33,12.46,12.46,0,0,0,2.84-2.5,0.25,0.25,0,0,1,.18-0.1,0.24,0.24,0,0,1,.2.06l2.48,2.22a0.25,0.25,0,0,1,0,.35s-1.06,1.22-.69,2.19c0.11,0.3.2,0.62,0.3,1a6.44,6.44,0,0,0,1.54,3,1,1,0,0,1,.41,1,0.58,0.58,0,0,1-.51.38H215.9Zm-6.1-7.3c0.28,0.45,1.14,1.75,3.35,4.87a4.09,4.09,0,0,0,2.76,1.93h0a0.32,0.32,0,0,0,.21,0,0.72,0.72,0,0,0-.29-0.46,7,7,0,0,1-1.66-3.25c-0.09-.33-0.18-0.64-0.29-0.92a2.84,2.84,0,0,1,.63-2.51l-2.1-1.88A12.9,12.9,0,0,1,209.8,367.46Z" transform="translate(-61.81 -212.73)" style="fill:#5b392d"/><path d="M211,366.27h0a17.06,17.06,0,0,1-1.51,1.12s0.53,0.93,3.48,5.09c1.83,2.57,4.39,2.44,3.07,1.11s-1.46-3-1.89-4.08C211.92,369,211,366.27,211,366.27Z" transform="translate(-61.81 -212.73)" style="fill:#e0bebb"/><path d="M215.91,375a4.81,4.81,0,0,1-3.38-2.25c-2.94-4.13-3.49-5.09-3.51-5.13a0.5,0.5,0,0,1,.16-0.67,16.3,16.3,0,0,0,1.46-1.08,0.52,0.52,0,0,1,.8.22s0.89,2.51,2.78,2.9a0.5,0.5,0,0,1,.37.31c0.11,0.3.21,0.63,0.31,1a6.24,6.24,0,0,0,1.47,2.93,1.22,1.22,0,0,1,.47,1.22,0.84,0.84,0,0,1-.71.55h-0.21Zm-5.77-7.48c0.38,0.58,1.27,1.92,3.21,4.65a4.31,4.31,0,0,0,2.36,1.81l-0.06-.06a7.15,7.15,0,0,1-1.73-3.36c-0.06-.23-0.13-0.45-0.19-0.66a5.28,5.28,0,0,1-3-2.85Z" transform="translate(-61.81 -212.73)" style="fill:#e0bebb"/><path d="M204.13,326.22c-4.34,5.85-4.77,11.12-.69,14.4,4.27,3.44,20.49,8.91,13.74,16.3-4.81,5.26-3.78,6.72-4,8.32-0.07.67,3,2.81,3,2.81,3.51-4,7.31-4.92,11-14.89,4.42-12-9.54-12.56-12.44-17.05-2.76-4.29-.55-7.17-0.55-7.17l-2-6.66Z" transform="translate(-61.81 -212.73)" style="fill:url(#linear-gradient-17)"/><path d="M218.68,359c4.76-2.2,7.37-6.86,4.26-11s-11.21-12.18-11.21-12.18l-7.25,5.51c5.35,3.46,19,8.68,12.7,15.56-4.81,5.26-3.78,6.72-4,8.32A9.26,9.26,0,0,1,218.68,359Z" transform="translate(-61.81 -212.73)" style="fill:url(#linear-gradient-18)"/><path d="M187.63,356.55a20.69,20.69,0,1,0,20.69,20.69A20.69,20.69,0,0,0,187.63,356.55Zm0,38.43a17.74,17.74,0,1,1,17.74-17.74A17.74,17.74,0,0,1,187.63,395Z" transform="translate(-61.81 -212.73)" style="fill:#5d7977"/><path d="M187.63,355.22a22,22,0,1,0,22,22A22,22,0,0,0,187.63,355.22Zm0,41a18.94,18.94,0,1,1,18.94-18.94A18.94,18.94,0,0,1,187.63,396.18Z" transform="translate(-61.81 -212.73)" style="fill:#291d2b"/><path d="M493.59,297.25c17.4,9.37,37.58,20.56,36.78,27.61s-23.76,26-31.24,25.83l-1.26-4.6a13.54,13.54,0,0,1,6-11.47c6.57-4.52,11.94-6.59,9.64-8.14S497.33,323.06,492.3,315s1.29-17.72,1.29-17.72" transform="translate(-61.81 -212.73)" style="fill:#69a7cd"/><path d="M530.36,324.86c-3.56,6.31-8.09,9.16-15.19,12.1s-6.48-3.77-14.18.3a13.42,13.42,0,0,0-3.14,8.83l1.26,4.6C506.6,350.91,529.56,331.9,530.36,324.86Z" transform="translate(-61.81 -212.73)" style="fill:url(#linear-gradient-19)"/><path d="M493.59,297.25s-6.33,9.63-1.29,17.72c3.88,6.23,13,8.78,18.07,10.32h0c-1.81-11.92,3.76-16.39,3.76-16.4C507.83,305,500.49,301,493.59,297.25Z" transform="translate(-61.81 -212.73)" style="fill:url(#linear-gradient-20)"/><path d="M499.07,346l-0.48-.15c1.21-4,6.15-7,10.93-9.91,3.07-1.88,6.24-3.82,8.24-5.93a2.45,2.45,0,0,0,.76-2.16c-0.55-3.42-8.12-7.47-14.79-11.05-2.89-1.55-5.62-3-7.67-4.35l0.27-.42c2,1.33,4.75,2.79,7.63,4.33,7.11,3.81,14.46,7.75,15,11.41a3,3,0,0,1-.89,2.58c-2,2.16-5.25,4.12-8.34,6C505.08,339.26,500.22,342.24,499.07,346Z" transform="translate(-61.81 -212.73)" style="fill:#4793c3"/><polyline points="504.04 104.76 421.1 104.76 433.61 151.09 435.34 148 424.96 107.95 500.18 107.95" style="fill:#882d34"/><path d="M585.92,320.68l0.12-3.19H558.48l-2.14-7.57h-3l2.12,7.57H536.38a11.53,11.53,0,0,1,2.68,3.19h17.3L568,363.82l1.73-3.09-10.38-40h26.56Z" transform="translate(-61.81 -212.73)" style="opacity:0.75;fill:url(#linear-gradient-21)"/><polyline points="433.05 104.76 340.57 104.76 353.08 151.09 354.81 148 344.43 107.95 429.19 107.95" style="fill:#882d34"/><path d="M493.91,358.23l2.77,0.7-9.91-38.25h13l-0.83-3.19H475.62c0.7,0.08,2.16.58,3.57,3.19h4.58Z" transform="translate(-61.81 -212.73)" style="fill:url(#linear-gradient-22)"/><path d="M529.76,301.32a8,8,0,0,0,2.61,2.61c2.7,1.4,5.67-2.66,9.37-2.08,1.9,0.29,1.24,1.28.49,3.33s-1.41,2.61-5.09,2.47-4-1.47-9.13-3.56" transform="translate(-61.81 -212.73)" style="fill:#cd6651"/><path d="M542.47,312.44c0.12-1.67,0-6.52-2.14-6.92a1,1,0,0,1-.77-1.15,1,1,0,0,1,1.1-.8c3.41,0.64,3.76,5.66,3.74,8v3" transform="translate(-61.81 -212.73)" style="fill:#5d7977"/><path d="M543.72,306.65c0.29-.4-0.66-2.7-2.63-3.13s-3.91-.48-4,0.68,2,1.42,2.84,1.47,1.42,1.77,1.94,1.6Z" transform="translate(-61.81 -212.73)" style="fill:#291d2b"/><path d="M555.44,316.52h-12a0.93,0.93,0,0,1-.7-0.32,1,1,0,0,1-.25-0.75c0.12-1.67,0-6.52-2.14-6.92a1,1,0,0,1-.77-1.15,1,1,0,0,1,1.1-.8c3.41,0.64,3.76,5.66,3.74,8h11A1,1,0,0,1,555.44,316.52Z" transform="translate(-61.81 -212.73)" style="fill:#5d7977"/><path d="M543.72,309.65c0.29-.4-0.66-2.7-2.63-3.13s-3.91-.48-4,0.68,2,1.42,2.84,1.47,1.42,1.77,1.94,1.6Z" transform="translate(-61.81 -212.73)" style="fill:#291d2b"/><path d="M468,308.44c0.12-1.67,0-6.52-2.14-6.92a1,1,0,0,1-.77-1.15,1,1,0,0,1,1.1-.8c3.41,0.64,3.76,5.66,3.74,8v3" transform="translate(-61.81 -212.73)" style="fill:#5d7977"/><path d="M469.25,302.64c0.29-.4-0.66-2.7-2.63-3.13s-3.91-.48-4,0.68,2,1.42,2.84,1.47,1.42,1.77,1.94,1.6Z" transform="translate(-61.81 -212.73)" style="fill:#291d2b"/><path d="M481,312.51h-12a0.93,0.93,0,0,1-.7-0.32,1,1,0,0,1-.25-0.75c0.12-1.67,0-6.52-2.14-6.92a1,1,0,0,1-.77-1.15,1,1,0,0,1,1.1-.8c3.41,0.64,3.76,5.66,3.74,8h11A1,1,0,0,1,481,312.51Z" transform="translate(-61.81 -212.73)" style="fill:#5d7977"/><path d="M469.25,305.65c0.29-.4-0.66-2.7-2.63-3.13s-3.91-.48-4,0.68,2,1.42,2.84,1.47,1.42,1.77,1.94,1.6Z" transform="translate(-61.81 -212.73)" style="fill:#291d2b"/><path d="M388.32,311.21c0.12-1.67,0-6.52-2.14-6.92a1,1,0,0,1-.77-1.15,1,1,0,0,1,1.1-.8c3.41,0.64,3.76,5.66,3.74,8v3" transform="translate(-61.81 -212.73)" style="fill:#5d7977"/><path d="M375.24,298.13c1.92,1.26,3.63,2.27,4.73,2.37,2.39,0.22,6.07-.62,8.11,1.88,1,1.28.16,1.59-1.29,2.6s-2.13,1-4.37-1.16-1.13-.81-5.52-0.75c-0.59,0-1.29,0-2.07-.08" transform="translate(-61.81 -212.73)" style="fill:#94a183"/><path d="M389.58,305.42c0.29-.4-0.66-2.7-2.63-3.13s-3.91-.48-4,0.68,2,1.42,2.84,1.47,1.42,1.77,1.94,1.6Z" transform="translate(-61.81 -212.73)" style="fill:#291d2b"/><path d="M401.29,315.29h-12a0.93,0.93,0,0,1-.7-0.32,1,1,0,0,1-.25-0.75c0.12-1.67,0-6.52-2.14-6.92a1,1,0,0,1-.77-1.15,1,1,0,0,1,1.1-.8c3.41,0.64,3.76,5.66,3.74,8h11A1,1,0,0,1,401.29,315.29Z" transform="translate(-61.81 -212.73)" style="fill:#5d7977"/><path d="M389.58,308.42c0.29-.4-0.66-2.7-2.63-3.13s-3.91-.48-4,0.68,2,1.42,2.84,1.47,1.42,1.77,1.94,1.6Z" transform="translate(-61.81 -212.73)" style="fill:#291d2b"/><path d="M251.18,328.94c0.12-1.67,0-6.52-2.14-6.92a1,1,0,0,1-.77-1.15,1,1,0,0,1,1.1-.8c3.41,0.64,3.76,5.66,3.74,8v1" transform="translate(-61.81 -212.73)" style="fill:#5d7977"/><path d="M252.44,323.15c0.29-.4-0.66-2.7-2.63-3.13s-3.91-.48-4,0.68,2,1.42,2.84,1.47,1.42,1.77,1.94,1.6Z" transform="translate(-61.81 -212.73)" style="fill:#291d2b"/><path d="M250.94,330.94c0.12-1.67,0-5.52-2.14-5.92a1,1,0,0,1-.77-1.15,1,1,0,0,1,1.1-.8c3.41,0.64,3.76,4.66,3.74,7" transform="translate(-61.81 -212.73)" style="fill:#5d7977"/><path d="M252.44,326.15c0.29-.4-0.66-2.7-2.63-3.13s-3.91-.48-4,0.68,2,1.42,2.84,1.47,1.42,1.77,1.94,1.6Z" transform="translate(-61.81 -212.73)" style="fill:#291d2b"/><polyline points="494.53 107.75 491.58 97.19 494.53 97.19 497.58 107.95" style="fill:#4a1723"/><path d="M565.82,309s0.7-2.33-2.66-2.54a83.6,83.6,0,0,0-8.65.19c-3,.07-7.05-1.09-8.63.1-0.85.64-1.6,2.65-.27,3.68a16.19,16.19,0,0,0,5.6,2.69,8.76,8.76,0,0,0,6.21-1.64C559.26,310.15,562.92,309.21,565.82,309Z" transform="translate(-61.81 -212.73)" style="fill:#254053"/><path d="M491.24,303.28s0.7-2.33-2.66-2.54a83.6,83.6,0,0,0-8.65.19c-3,.07-7.05-1.09-8.63.1-0.85.64-1.6,2.65-.27,3.68a16.19,16.19,0,0,0,5.6,2.69,8.76,8.76,0,0,0,6.21-1.64C484.67,304.48,488.33,303.53,491.24,303.28Z" transform="translate(-61.81 -212.73)" style="fill:#254053"/><polyline points="341.38 107.75 338.43 97.19 341.38 97.19 344.43 107.95" style="fill:#882d34"/><polyline points="261.2 107.75 258.25 97.19 261.2 97.19 264.25 107.95" style="fill:#882d34"/><path d="M411.51,308s0.7-2.33-2.66-2.54a83.6,83.6,0,0,0-8.65.19c-3,.07-7.05-1.09-8.63.1-0.85.64-1.6,2.65-.27,3.68a16.19,16.19,0,0,0,5.6,2.69,8.76,8.76,0,0,0,6.21-1.64C405,309.15,408.61,308.21,411.51,308Z" transform="translate(-61.81 -212.73)" style="fill:#254053"/><polyline points="146.56 138.26 143.61 127.69 146.56 127.69 149.61 138.46" style="fill:#882d34"/><path d="M216.69,338.46s0.7-2.33-2.66-2.54a83.6,83.6,0,0,0-8.65.19c-3,.07-7.05-1.09-8.63.1-0.85.64-1.6,2.65-.27,3.68a16.19,16.19,0,0,0,5.6,2.69,8.76,8.76,0,0,0,6.21-1.64C210.13,339.66,213.79,338.72,216.69,338.46Z" transform="translate(-61.81 -212.73)" style="fill:#254053"/><path d="M331.79,306.76s0.7-2.33-2.66-2.54a83.6,83.6,0,0,0-8.65.19c-3,.07-7.05-1.09-8.63.1-0.85.64-1.6,2.65-.27,3.68a16.19,16.19,0,0,0,5.6,2.69,8.76,8.76,0,0,0,6.21-1.64C325.23,308,328.88,307,331.79,306.76Z" transform="translate(-61.81 -212.73)" style="fill:#254053"/><path d="M323.67,317.48l-34,43.77c-1.18,1.52-.84,3.54,1.52,3.54h277v-3.7H294.77c-1.18,0-1.18-.51,0-1.86s28.73-35.66,28.73-35.66l9.63,35.32,2.2-1.18-9.46-38Z" transform="translate(-61.81 -212.73)" style="fill:#882d34"/><path d="M294.77,361.08H568.19v3.7h-277" transform="translate(-61.81 -212.73)" style="fill:url(#linear-gradient-23)"/><path d="M579.08,375a0.75,0.75,0,0,1-.56-0.25l-10.16-11.44a0.75,0.75,0,0,1,1.12-1l10.16,11.44A0.75,0.75,0,0,1,579.08,375Z" transform="translate(-61.81 -212.73)" style="fill:#1c1e30"/><circle cx="507.12" cy="150.05" r="7.57" style="fill:#254053"/><path d="M568.92,363.53a0.75,0.75,0,0,1-.56-0.25l-10.16-11.44a0.75,0.75,0,0,1,1.12-1l10.16,11.44A0.75,0.75,0,0,1,568.92,363.53Z" transform="translate(-61.81 -212.73)" style="fill:#1c1e30"/><path d="M223.83,378a0.74,0.74,0,0,1-.24,0l-14-4.73a0.75,0.75,0,1,1,.48-1.42l14,4.73A0.75,0.75,0,0,1,223.83,378Z" transform="translate(-61.81 -212.73)" style="fill:#1c1e30"/><path d="M495.42,378.81h0a0.75,0.75,0,0,1-.7-0.79l0.91-15.27a0.76,0.76,0,0,1,.79-0.7,0.75,0.75,0,0,1,.7.79l-0.91,15.27A0.75,0.75,0,0,1,495.42,378.81Z" transform="translate(-61.81 -212.73)" style="fill:#1c1e30"/><path d="M496.34,363.53h0a0.75,0.75,0,0,1-.7-0.79l0.91-15.27a0.76,0.76,0,0,1,.79-0.7,0.75,0.75,0,0,1,.7.79l-0.91,15.27A0.75,0.75,0,0,1,496.34,363.53Z" transform="translate(-61.81 -212.73)" style="fill:#1c1e30"/><path d="M414.9,378.81h0a0.75,0.75,0,0,1-.7-0.79l0.91-15.27a0.75,0.75,0,0,1,1.5.09l-0.91,15.27A0.75,0.75,0,0,1,414.9,378.81Z" transform="translate(-61.81 -212.73)" style="fill:#1c1e30"/><path d="M415.81,363.53h0a0.75,0.75,0,0,1-.7-0.79L416,347.47a0.77,0.77,0,0,1,.79-0.7,0.75,0.75,0,0,1,.7.79l-0.91,15.27A0.75,0.75,0,0,1,415.81,363.53Z" transform="translate(-61.81 -212.73)" style="fill:#1c1e30"/><path d="M349.29,378.08a0.75,0.75,0,0,1-.54-0.23l-14-14.55a0.75,0.75,0,0,1,1.08-1l14,14.55A0.75,0.75,0,0,1,349.29,378.08Z" transform="translate(-61.81 -212.73)" style="fill:#1c1e30"/><path d="M335.28,363.53a0.75,0.75,0,0,1-.54-0.23l-12.39-12.93a0.75,0.75,0,1,1,1.08-1l12.39,12.93A0.75,0.75,0,0,1,335.28,363.53Z" transform="translate(-61.81 -212.73)" style="fill:#1c1e30"/><circle cx="434.53" cy="150.05" r="7.57" style="fill:#254053"/><circle cx="354" cy="150.05" r="7.57" style="fill:#254053"/><circle cx="273.47" cy="150.05" r="7.57" style="fill:#254053"/><polyline points="348.3 107.95 263.55 107.95 261.82 104.76 347.12 104.76" style="fill:#882d34"/><path d="M413.64,359.19l2.72,0.53-10.12-39h29.87c-1.09-1.07-1.48-2.16-.6-3.19H405.34l-2.14-7.57h-3l2.12,7.57H390.58s5.75,0.9,6.42,3.19h6.25Z" transform="translate(-61.81 -212.73)" style="fill:url(#linear-gradient-24)"/><path d="M530.36,301.62a29.76,29.76,0,0,0-8.9-8.54s-2.51-19-5-27.46c-1.68-3.53-3.49-1.22-6.74.28s-1.25,15.6,1.86,23.89,5.34,6.83,10.55,10.91a64.31,64.31,0,0,0,6.35,4.28" transform="translate(-61.81 -212.73)" style="fill:#fdd9cb"/><path d="M525.79,296.37l-0.78-.44c-4.85-2.7-8-3.13-8.54-8.89s2.75-8.42,1.38-15.59c-0.47-2.19-.95-4.2-1.43-5.83-1.68-3.53-3.49-1.22-6.74.28s-1.25,15.6,1.86,23.89,5.34,6.83,10.55,10.91a64.31,64.31,0,0,0,6.35,4.28l1.91-3.37A28.74,28.74,0,0,0,525.79,296.37Z" transform="translate(-61.81 -212.73)" style="mix-blend-mode:darken;fill:url(#linear-gradient-25)"/><path d="M524.69,301.8c1.67,2.22,3.2,4.08,4.44,4.73,2.7,1.4,5.67-2.66,9.37-2.08,1.9,0.29,1.24,1.28.49,3.33s-1.41,2.61-5.09,2.47-4-1.47-9.13-3.56c-0.7-.28-1.5-0.66-2.38-1.1" transform="translate(-61.81 -212.73)" style="fill:#f26b4d"/><path d="M328.15,341.14a46.49,46.49,0,0,1-5.06,0,0.86,0.86,0,0,0-.9.93c0.2,2.49,1.52,12,2.59,15.44,1.33,4.31,3.23-.83,2.92-3.29s-0.92-3.26.31-4.87,2.15-1.32,2.15-1.32v-7.42Z" transform="translate(-61.81 -212.73)" style="fill:#291d2b"/><path d="M358.56,261.34c2.28,8.72,1.92,15.28.83,18.21s1.51,6.76-.78,9.61c0,0,1.43-.61,3.06,1.29s7.37,4.16,10.86,4.91,5,4.33,6.8,4.87l-0.08,4s-13.09.61-22.62-5-10.2-5.55-8.69-10.18-3.13-7.48-1.22-19.69S356.76,254.45,358.56,261.34Z" transform="translate(-61.81 -212.73)" style="fill:#120016"/><path d="M353.07,256.27a6.41,6.41,0,0,0,4.74-1.85c1.81-2,2.37-11.57,9-11s8.09,3.74,8.4,6.63a18,18,0,0,1-2.89,10.52c-2,2.7-4.2,2.43-5.84,1s-2.17-1.67-2.93-.72a50.55,50.55,0,0,1-5.39,4.09l-2.43,2.95-4.91,1.81v-5Z" transform="translate(-61.81 -212.73)" style="fill:#a9ba89"/><path d="M362.82,253.78h-2.34l-1.94-.66a4.84,4.84,0,0,1-.73,1.3,6.41,6.41,0,0,1-4.74,1.85l-2.27,8.43v5l4.91-1.81,2.43-2.95a50.55,50.55,0,0,0,5.39-4.09c0.76-.95,1.29-0.67,2.93.72a3.71,3.71,0,0,0,3,1h0C365.67,261.8,362.82,253.78,362.82,253.78Z" transform="translate(-61.81 -212.73)" style="fill:url(#linear-gradient-26)"/><path d="M358.54,253.12a4.84,4.84,0,0,1-.73,1.3,6.41,6.41,0,0,1-4.74,1.85l-3.95,4.33c0.68,0.09,1.46-.07,2.37-0.06,9.71,0.12,11.32-6.76,11.32-6.76h-2.34Z" transform="translate(-61.81 -212.73)" style="fill:url(#linear-gradient-27)"/><ellipse cx="371.36" cy="255.07" rx="1.85" ry="2.52" transform="translate(-50.27 313.44) rotate(-71.48)" style="fill:#aaa782"/><path d="M313,295.86c-2.75-5-6.47-13.37,2.89-17.23s6.89-7.44,17.08-15.7,17.9-9.64,22.59-5.51,1.63,7.83,1.63,7.83l2.62-1.38s-0.12,6.08-1.08,7.32-3.72,1.51-5,2.89-3.58,5.1-6.2,6.06-3,1.79-4.82,3.17-3.72,1.1-3,2.48,1.51,2.89-.55,3.17a30,30,0,0,1-3.58.28,7.91,7.91,0,0,0,.69,2.34,2.92,2.92,0,0,1-2,3.72s-5.44-1.79-10,0S313,295.86,313,295.86Z" transform="translate(-61.81 -212.73)" style="fill:#291d2b"/><path d="M344.36,274.8c-5.67,5.17-12.67,3.66-19,9.08s4.73-1.9,10.86.34a10.68,10.68,0,0,0,3.54.63c0.5-.43,1.75-0.61,2.95-1.54,1.79-1.38,2.2-2.2,4.82-3.17l0.28-.12Z" transform="translate(-61.81 -212.73)" style="fill:url(#linear-gradient-28)"/><path d="M357.63,264.46c0.62-1.3,1.27-4.06-2.11-7-4.68-4.13-12.39-2.75-22.59,5.51-8.51,6.9-8.19,10.54-13.31,13.79,0,2.2,5.26.74,11.22-5.12,7.83-7.69,9.84-1,16.21-6.14Z" transform="translate(-61.81 -212.73)" style="fill:url(#linear-gradient-29)"/><path d="M359.77,263.87l-0.88.46,0.87-.08C359.77,264,359.77,263.87,359.77,263.87Z" transform="translate(-61.81 -212.73)" style="fill:url(#linear-gradient-30)"/><path d="M371.59,247.91c2.45-.17,4.36-1.07,2.81-2.84s-6.17-5.25-11.2-4.44-7-1.89-10.84-2.26S348,239,348,239l0.75,1.15a2.72,2.72,0,0,1,2.93.33,9.2,9.2,0,0,0-4.65,2.4l3.14,8.34s2.36-.49,4.34,2.23,6.47,2.13,8.28.33c0,0-2.75-1.15-2.22-3.15s2.06-2.41,2.79-1.67a3.18,3.18,0,0,1,.87,1.58s2-1,2.31-2.59S369.69,248,371.59,247.91Z" transform="translate(-61.81 -212.73)" style="fill:#312a32"/><path d="M373.44,300.81c2.17,1.23,4.1,2.22,5.36,2.3,2.73,0.18,6.94-.72,9.23,1.75,1.17,1.26.16,1.59-1.51,2.63s-2.45,1.05-5-1.09-1.28-.79-6.29-0.66c-0.67,0-1.47,0-2.36-.05" transform="translate(-61.81 -212.73)" style="fill:#a9ba89"/><path d="M581.82,266.67c2.88-.27,5,2.3,3.46,9.51-1.58,7.44-2.74,16.3-1.51,16.83s3.31,0.81,7.6,2.64,9.75,6,12.17,6.19,3-3.89,5.71-4.65c1.39-.38,1.31.57,1.56,2.37s0,2.45-2.57,3.56-3.31.19-7.73,0.31-15.42-1.77-18.12-2.65-4.92-.54-5.57-1.39-2.65-5.69-1.14-17.82C577.14,270,578.46,267,581.82,266.67Z" transform="translate(-61.81 -212.73)" style="fill:#afd3d9"/><path d="M582.28,376.77a0.74,0.74,0,0,1-.37-0.1l-6.41-3.58a0.75,0.75,0,1,1,.73-1.31l6.41,3.58A0.75,0.75,0,0,1,582.28,376.77Z" transform="translate(-61.81 -212.73)" style="fill:#1c1e30"/><path d="M189.85,378.66h17.66c22.16,0,21.48-8.24,30.48-30.14,6.68-16.26,27.78-27.85,42.75-27.85h45.31l-2.42-3.19H280.41c-18.67,0-42.33,15.81-49.33,37.14s-11.18,21.2-41.22,21.2A1.42,1.42,0,1,0,189.85,378.66Z" transform="translate(-61.81 -212.73)" style="fill:#882d34"/><path d="M231.08,354.63c-7,21.33-11.18,21.2-41.22,21.2a1.42,1.42,0,1,0,0,2.83h17.66c15.83,0,20-4.2,24.37-14.58" transform="translate(-61.81 -212.73)" style="fill:url(#linear-gradient-31)"/><path d="M306.83,344.3c7.87-9.77,16.66-20.73,16.66-20.73l9.63,35.32,2.2-1.18-9.22-37h31.17l1-3.19H325.15L323,309.92h-3l2.12,7.57h-9.34L313,318s5.91,0.77,5.19,2.54a1.58,1.58,0,0,1-.09.15h3.12l-17.41,22.44C305.81,342.44,307.22,342.51,306.83,344.3Z" transform="translate(-61.81 -212.73)" style="fill:url(#linear-gradient-32)"/><polygon points="173.56 134.78 146.39 135.79 125.83 161.5 129.25 161.5 147.12 140.07 154.43 163.22 157.36 161.5 149.69 138.61 173.56 137.96 173.56 134.78" style="fill:#882d34"/><path d="M230.93,347.51l-20.29.92-2.27-8h-3l2.4,8.58-7.13,8.91c0.37,1.63.12,3.65-1.43,6.49l9.68-11.6,7.31,23.14,2.93-1.72-7.67-22.89,23.87-.65Z" transform="translate(-61.81 -212.73)" style="fill:url(#linear-gradient-33)"/><path d="M183.52,377.67c-0.57-3.14,3-6.59,6.57-5.67a5.25,5.25,0,0,1,3.27,8C191.26,383.16,184.78,384.63,183.52,377.67Z" transform="translate(-61.81 -212.73)" style="fill:#254053"/><path d="M286.39,363.44c-0.54-3,2.89-6.26,6.24-5.38a5,5,0,0,1,3.1,7.6C293.74,368.65,287.59,370,286.39,363.44Z" transform="translate(-61.81 -212.73)" style="fill:#254053"/><circle cx="162.02" cy="164.52" r="7.57" style="fill:#254053"/><path d="M224.52,385.1a5.33,5.33,0,0,1-.73,0c-0.26,0-28.33-1.34-35.44-2.17-3.74-.44-5.39-3.12-5.36-5.59a5.68,5.68,0,0,1,5.37-5.65l0,0.25,0-.25c14.67-1.38,35.26-2.21,35.47-2.21s3.86,0,6.1,2.53a7.23,7.23,0,0,1,1.58,5.81c-0.27,2.71-1.22,4.71-2.82,6A6.83,6.83,0,0,1,224.52,385.1Zm-0.69-15.17c-0.2,0-20.77.83-35.43,2.21a5.2,5.2,0,0,0-4.92,5.16c0,2.08,1.25,4.66,4.92,5.09,7.09,0.83,35.15,2.16,35.43,2.17a6.53,6.53,0,0,0,4.54-1.23c1.48-1.16,2.37-3,2.63-5.61a6.76,6.76,0,0,0-1.46-5.43C227.46,370,223.86,369.93,223.83,369.93Z" transform="translate(-61.81 -212.73)" style="fill:#082b3c"/><path d="M569.95,370.62a5.34,5.34,0,0,1-.73,0h-234c-0.36,0-36.23-1.34-43.34-2.17-3.74-.44-5.39-3.12-5.36-5.59a5.68,5.68,0,0,1,5.37-5.65c14.67-1.38,43-2.21,43.33-2.21h234c0.16,0,3.85,0,6.09,2.53a7.24,7.24,0,0,1,1.59,5.82c-0.27,2.71-1.22,4.71-2.82,6A6.82,6.82,0,0,1,569.95,370.62Zm-234.67-.54h234a6.56,6.56,0,0,0,4.55-1.23c1.48-1.16,2.37-3,2.63-5.61a6.76,6.76,0,0,0-1.46-5.43c-2.09-2.33-5.69-2.37-5.72-2.37h-234c-0.28,0-28.64.83-43.29,2.21a5.2,5.2,0,0,0-4.92,5.16c0,2.08,1.25,4.66,4.92,5.09,7.07,0.83,42.68,2.15,43.29,2.17h0Z" transform="translate(-61.81 -212.73)" style="fill:#082b3c"/><path d="M235.53,382a0.74,0.74,0,0,1-.24,0l-11.71-4a0.75,0.75,0,1,1,.48-1.42l11.71,4A0.75,0.75,0,0,1,235.53,382Z" transform="translate(-61.81 -212.73)" style="fill:#1c1e30"/><path d="M223.77,299.35l1.72-2a16.54,16.54,0,0,1,4.3-.21c1.17,0.3,1.29.3,2.11-1s3.52-5.76,2.94-10.46a8.59,8.59,0,0,0-10.22-7c-4.7,1.06-6,6.23-5.4,8.69s0.7,4.11-.12,5.64-3.91,4.07-3.91,4.07l4.58,10.22,2.7-1.06,1.57-4Z" transform="translate(-61.81 -212.73)" style="fill:#cd845c"/><path d="M221.21,290.39a1.9,1.9,0,0,1-1.52-.69l-0.64.78c0.06,1.1.52,1.63,0,2.52-0.82,1.53-3.91,4.07-3.91,4.07l4.58,10.22,2.7-1.06,1.57-4-0.27-2.89,1.72-2a16.54,16.54,0,0,1,4.3-.21C223.69,296.21,221.55,292.33,221.21,290.39Z" transform="translate(-61.81 -212.73)" style="fill:url(#linear-gradient-34)"/><path d="M219.1,293c-0.82,1.53-3.91,4.07-3.91,4.07l0.88,2a3.36,3.36,0,0,0,1.45-.47c3.94-2.21,3.3-5.65,3-8.26a2.16,2.16,0,0,1-.87-0.6l-0.64.78C219.12,291.59,219.58,292.12,219.1,293Z" transform="translate(-61.81 -212.73)" style="fill:url(#linear-gradient-35)"/><path d="M219.1,293c-1.34,2.46-7.64-5.47-2.22-4.26,0,0-2.39-2.92.49-4.88s10.77-4,13.25-4.17,4.06,2,2.9,2.59-2.22-.73-4.64,1.18c-2.19,1.72-9.41,5.06-9.41,5.06A6.27,6.27,0,0,1,219.1,293Z" transform="translate(-61.81 -212.73)" style="fill:#952624"/><path d="M236.76,278.39a0.5,0.5,0,0,0-.2-0.47,0.74,0.74,0,0,0-.85.1,3.76,3.76,0,0,1-3.68-.71,10.46,10.46,0,0,0-10.86-2c-4.6,1.79-7,6.34-6,11.59a0.5,0.5,0,0,0,.67.38l17.77-7a0.49,0.49,0,0,0,.14-0.09,19.46,19.46,0,0,0,2.57-1.32l0.1,0v0A0.79,0.79,0,0,0,236.76,278.39Z" transform="translate(-61.81 -212.73)" style="fill:#e0bebb"/><path d="M231,379c-0.07,1,.06.73,1.94,0.81,2.11,0.09,5.17.29,7-.68,2.1-1.14.74-1.69,0.74-1.69L237,378.55l-3-.12Z" transform="translate(-61.81 -212.73)" style="fill:#5b392d"/><path d="M235.5,380.39c-0.76,0-1.51,0-2.17-.06l-0.4,0c-0.42,0-.75,0-1,0a1.46,1.46,0,0,1-1.2-.27,1.34,1.34,0,0,1-.21-1.06,0.5,0.5,0,0,1,.41-0.46l3-.57H234l2.89,0.12,3.57-1.08a0.49,0.49,0,0,1,.33,0,1.18,1.18,0,0,1,.75.94c0,0.76-.8,1.3-1.43,1.65A10.2,10.2,0,0,1,235.5,380.39Zm-4-1h0Zm0.72-.13H233l0.4,0c2,0.09,4.74.21,6.29-.64a2.08,2.08,0,0,0,.9-0.7l-3.43,1a0.5,0.5,0,0,1-.17,0l-2.92-.12-1.93.37h0.1Z" transform="translate(-61.81 -212.73)" style="fill:#5b392d"/><path d="M230.53,375.15A12.64,12.64,0,0,1,231,379s1.06,0.09,6.16,0c3.15-.06,4.49-2.25,2.64-1.91s-3.26-.46-4.44-0.74-1.61-2-1.61-2Z" transform="translate(-61.81 -212.73)" style="fill:#5b392d"/><path d="M233.16,379.29c-1.68,0-2.15,0-2.17,0a0.25,0.25,0,0,1-.23-0.26,12.45,12.45,0,0,0-.46-3.76,0.25,0.25,0,0,1,0-.2,0.25,0.25,0,0,1,.16-0.13l3.23-.79a0.25,0.25,0,0,1,.3.18s0.41,1.56,1.42,1.81c0.31,0.07.62,0.18,1,.29a6.45,6.45,0,0,0,3.38.44,1,1,0,0,1,1,.21,0.58,0.58,0,0,1,0,.64c-0.35.73-1.75,1.53-3.65,1.56S234.08,379.29,233.16,379.29Zm-1.9-.53c0.53,0,2.09.05,5.91,0a4.08,4.08,0,0,0,3.16-1.19,0.32,0.32,0,0,0,.08-0.2,0.71,0.71,0,0,0-.54,0,6.94,6.94,0,0,1-3.63-.46c-0.33-.11-0.63-0.21-0.92-0.28a2.85,2.85,0,0,1-1.72-1.93l-2.74.67A12.87,12.87,0,0,1,231.26,378.76Z" transform="translate(-61.81 -212.73)" style="fill:#5b392d"/><path d="M199.9,325.45c-2.52,6.46,2.58,14.67,9.92,18.25s20.76,6.68,19.06,14.73-1,10.93,1.65,16.72a5.26,5.26,0,0,0,3.23-.79s-0.17-.2,1.89-12.71c2.49-15.1-.29-14.14-15.07-25.07-6-4.43-5.36-7.46-5.36-7.46l-6.4-7.74Z" transform="translate(-61.81 -212.73)" style="fill:#cd845c"/><path d="M209.83,343.7c7.34,3.58,20.76,6.68,19.06,14.73s-1,10.93,1.65,16.72a5.26,5.26,0,0,0,3.23-.79s-0.17-.2,1.89-12.71a57.88,57.88,0,0,0,.77-6.42c0,0.06-.32,3.17-2.65-0.6S230,349,224.62,346a5.29,5.29,0,0,1-2.22-7.81l0.25-.12-2.07-1.51c-6-4.43-5.36-7.46-5.36-7.46l-2.6-3.14L200.38,334A20,20,0,0,0,209.83,343.7Z" transform="translate(-61.81 -212.73)" style="fill:url(#linear-gradient-36)"/><path d="M198.9,325.45c-2.24,5.91-.59,13.48,6.3,16.85l6.89,3.38,3.11-4.37L213.41,338l3.34,2.68,5-3.66s-5-2.56-5.53-7.87C215.61,322.84,198.9,325.45,198.9,325.45Z" transform="translate(-61.81 -212.73)" style="fill:#5b392d"/><path d="M216.23,329.12c-0.62-6.28-17.33-3.67-17.33-3.67-2.24,5.91-.59,13.48,6.3,16.85l4.62,2.27a3.63,3.63,0,0,0-.75-0.44c-5.47-2.47-9.44-11.68-5.3-14.14s12.67,0.33,12.67.33h0A8.78,8.78,0,0,1,216.23,329.12Z" transform="translate(-61.81 -212.73)" style="fill:url(#linear-gradient-37)"/><path d="M220.61,314.85a48.11,48.11,0,0,0,4.59-14.07l-1.43-1.43s-0.46.93-.87,1.68c-0.5.91-1,1.71-1.66,0.78s-4.17-6.61-4.17-6.61-1.88-.1-3.93,0c-4.73.24-8.23,10.95-8.35,11.29-0.34,1-.67,1.91-1,2.86-1.94,5-2,6.25-4.54,10.11-2.81,4.31-2.92,6.66,1.35,7s15.63,2.7,15.63,2.7c3.16,0.82,1.71-2.57,1.15-3.87s0.94-.33,1.68-1.76-0.46-4,.74-7C220.05,316,220.32,315.4,220.61,314.85Z" transform="translate(-61.81 -212.73)" style="fill:#bf3827"/><path d="M212.92,318.48c-4.21-.12-4.5,3.64-7.58,2.49s-1.78,1.18,2.57.89,4.7-2,6.81-.82,4.72,0.56,4.34,2.45c0.74-1.42-.46-4,0.74-7,0.26-.56.52-1.11,0.82-1.66l0.25-.5C217,317.55,217.13,318.61,212.92,318.48Z" transform="translate(-61.81 -212.73)" style="fill:url(#linear-gradient-38)"/><path d="M240.73,320.81c1.08,0.65,1.44,2.48,2.73,2.1s2.55-1.31,4.11-.38,1.45,3.73-.93,3.3a21.91,21.91,0,0,1-7.63-2.78C236.35,321.45,240.73,320.81,240.73,320.81Z" transform="translate(-61.81 -212.73)" style="fill:#cd845c"/><path d="M214.71,296.21c-3.54.55-9.35,6-8.68,17.31s3.61,1.85,5.89,1.74,1.79-4.9,4.43-5.55S216.07,299,216.07,299Z" transform="translate(-61.81 -212.73)" style="fill:url(#linear-gradient-39)"/><path d="M215.26,296.75c1.29,1.26,4.76,4.48,6.9,7.08s4,5.4,6.53,7.14,9.35,5.69,12.47,9.74L240,324s-4.67-1.64-9.16-3.38a32.74,32.74,0,0,1-11.49-6.85c-3.31-3.18-7.21-4.92-9.06-8.87S212.75,294.28,215.26,296.75Z" transform="translate(-61.81 -212.73)" style="fill:#d64a35"/><path d="M189.85,379.66h0a1,1,0,0,1-1-1c0.65-57.59-22.43-85.15-22.67-85.42a1,1,0,0,1,1.52-1.3c0.24,0.28,23.81,28.41,23.15,86.74A1,1,0,0,1,189.85,379.66Z" transform="translate(-61.81 -212.73)" style="fill:#254053"/><path d="M174.09,303.22c-2.25,1.86-12.35,5.89-18.05,1.2s-14.2-3.73-14.2-3.73,6.63-6.14,13.56-4.23,10.07,0.63,13.71-1.73Z" transform="translate(-61.81 -212.73)" style="fill:#254053"/><path d="M608.23,262.12c0.46,1-.54,1.13-0.94,1.06s-0.72-.23-0.52-1.32,0.64-2.72,1-2.64S607.81,261.21,608.23,262.12Z" transform="translate(-61.81 -212.73)" style="fill:#a1c0c1"/><path d="M524.63,249.58c0.61,1-.43,1.27-0.87,1.24s-0.79-.16-0.72-1.34,0.34-3,.78-2.95S524.07,248.66,524.63,249.58Z" transform="translate(-61.81 -212.73)" style="fill:#f04947"/><path d="M598.36,256.32s5.07,1.1,6.14,1.27a18.93,18.93,0,0,1,4.05,1.33c0.39,0.28-.53,2-0.53,2s0.1-1.63-.17-1.65-0.75,1.83-1.37,2.16a1.13,1.13,0,0,1-1.84-.87c-0.29-1.35.1-2.44-.12-2.49a18.8,18.8,0,0,0-2.7,0c-0.72.08-1.5-.64-3.47-1.1" transform="translate(-61.81 -212.73)" style="fill:#3c1a25"/><path d="M604.38,256.67c1.19-.37,2.47-0.18,2.8.5s-0.25.37-.84,0A6,6,0,0,0,604.38,256.67Z" transform="translate(-61.81 -212.73)" style="fill:#3c1a25"/><path d="M605.12,263.78a3.24,3.24,0,0,0,.83.83,3,3,0,0,0,1.05.45l-0.06.24a3.18,3.18,0,0,1-1.07-.59A3.28,3.28,0,0,1,605.12,263.78Z" transform="translate(-61.81 -212.73)" style="fill:#3c1a25"/><path d="M584.36,296.68c-2.67-3.12-4.83,1.45-5.83-6.88s1-20.17,3.3-23.13c-3.36.32-4.68,3.33-6.12,14.9-1.51,12.13.5,17,1.14,17.82s2.86,0.5,5.57,1.39a72.12,72.12,0,0,0,8.6,1.73C587,302,587,299.79,584.36,296.68Z" transform="translate(-61.81 -212.73)" style="fill:url(#linear-gradient-40)"/><path d="M607.14,298.73c-1,1.25-1.77,2.79-3,3.07h0c-1.56.83-4.64,1.37-8.09,1.37a37.8,37.8,0,0,0,4.52.26c4.42-.11,5.12.82,7.73-0.31a12.5,12.5,0,0,0,1.19-.59c-0.34.14-1.92,0.7-.36-1.22C610.81,299.21,608.78,297.46,607.14,298.73Z" transform="translate(-61.81 -212.73)" style="fill:url(#linear-gradient-41)"/><path d="M373.33,259.13a1.49,1.49,0,0,1-.05.14,0.58,0.58,0,0,1-.35.29,1.06,1.06,0,0,1-.64-0.06,2,2,0,0,1-.58-0.38,2.52,2.52,0,0,1-.41-0.52,2.25,2.25,0,0,1-.22-0.54,1.39,1.39,0,0,1-.05-0.41,1.23,1.23,0,0,1,0-.15s0.12,0.2.3,0.44a6.82,6.82,0,0,0,.73.82,1.77,1.77,0,0,0,.84.52,1,1,0,0,0,.17,0,0.34,0.34,0,0,0,.14-0.06Z" transform="translate(-61.81 -212.73)" style="fill:#312a32"/><path d="M376.13,251c-0.91-.18-0.85,1.3-0.85,1.3l-0.54-.06s0.38-1.9-.54-2.09-1.26,1.49-1.26,1.49l-8.4-2.37-0.11,1,8.35,2c-0.23,1.19-.19,3.15.76,2.92s1.19-2.52,1.19-2.52c0.18-.45.44,0,0.44,0-0.2,1.16.05,2.62,0.59,2.25S377,251.16,376.13,251Zm-1.75,1.78a3.49,3.49,0,0,1-.9,1.84c-0.27.09-.48-0.91-0.22-2.17s0.44-1.65.76-1.65C374.57,250.79,374.61,251.89,374.38,252.76Zm1,1.44c-0.15-.9.12-2.84,0.6-2.81s0.33,1.21.09,1.88S375.55,255.1,375.4,254.2Z" transform="translate(-61.81 -212.73)" style="fill:#312a32"/><path d="M375.62,255.75c0.56,1.15-.59,1.32-1.06,1.25s-0.83-.24-0.65-1.5c0-.21.07-0.44,0.12-0.68a6.37,6.37,0,0,0,.72-2.24,0.32,0.32,0,0,1,.28-0.17C375.51,252.48,375.11,254.71,375.62,255.75Z" transform="translate(-61.81 -212.73)" style="fill:#7e9263"/><path d="M374.59,249.62a3.4,3.4,0,0,0-2.41-.32,5.72,5.72,0,0,1,2.12.5C374.6,250.16,374.92,249.81,374.59,249.62Z" transform="translate(-61.81 -212.73)" style="fill:#312a32"/><ellipse cx="373.27" cy="252.52" rx="0.63" ry="0.31" transform="translate(-27.43 336.85) rotate(-75.32)" style="fill:#312a32"/><path d="M362.82,253.78" transform="translate(-61.81 -212.73)" style="fill:#aaa782"/><path d="M357,272.45s3.27-8.45,0-14.15-12.59-4.82-12.59-4.82-5.93-2.49-8.23-4.9-4.41-5.54-8.6-4.73-2.62,3.57-2.62,3.57-5.45.6-3.9,4.26,4.08,4.08,4.08,4.08,0.83,3.28,3.55,3.34A29.37,29.37,0,0,0,339.24,258C348,255.27,358.46,258.1,357,272.45Z" transform="translate(-61.81 -212.73)" style="fill:#342935"/><path d="M331.75,245.07c-2.75-1.65-8.86-.94-4.16,3.16s12,3.52,12,3.52a29.05,29.05,0,0,1-3.52-2.43C335,248.35,333.9,246.35,331.75,245.07Z" transform="translate(-61.81 -212.73)" style="fill:#0a0010"/><path d="M355.34,263.24c2.34,8.85,2,15.66.91,18.77s1.55,6.88-.76,10c0,0,1.45-.74,3.11,1.09s7.5,3.73,11,4.24,5.12,4.09,6.92,4.51L376.5,306s-13.28,1.64-23-3.41-8.69-4.72-8.85-9.86c-0.15-4.84-3.21-7.5-1.3-20.27S353.49,256.25,355.34,263.24Z" transform="translate(-61.81 -212.73)" style="fill:#291d2b"/><path d="M366.86,299.4c-5.17-.39-7.5,2.22-12.16-0.11s0.79-7.28.79-7.28-4,.78-5.63,3.37c0,0-3.67-5.58.28-18.77,3.82-12.78-.65-11.1-2.87-14.21a21.07,21.07,0,0,0-3.9,10.09c-1.9,12.77,1.15,15.42,1.3,20.27,0.16,5.14-.84,4.81,8.85,9.86s23,3.41,23,3.41l0-2.35C374.12,302,370.17,299.65,366.86,299.4Z" transform="translate(-61.81 -212.73)" style="fill:url(#linear-gradient-42)"/><path d="M339.13,289c0.93-.12,1.27-0.5,1.31-1-1.68.84-10.67-2.82-18.38-.19-7.87,2.69-11.48,2.14-3.59,1.75s14.46-.89,17.17,1.27a4.5,4.5,0,0,0,.38.26,8.31,8.31,0,0,1-.46-1.83A30.05,30.05,0,0,0,339.13,289Z" transform="translate(-61.81 -212.73)" style="fill:url(#linear-gradient-43)"/><path d="M354.36,378.34h-0.1L344.59,377a0.75,0.75,0,0,1,.21-1.49l9.67,1.34A0.75,0.75,0,0,1,354.36,378.34Z" transform="translate(-61.81 -212.73)" style="fill:#1c1e30"/><path d="M323.63,356.27a0.75,0.75,0,0,1-.74-0.65l-1.44-11a0.75,0.75,0,1,1,1.49-.2l1.44,11a0.75,0.75,0,0,1-.65.84h-0.1Z" transform="translate(-61.81 -212.73)" style="fill:#1c1e30"/><path d="M613.05,325.07c-2.55-1.08-4.07-4.39-4.07-4.39,0.27,20.89,15.17,37.92,18.23,41.24s4.26,1.73,2.13-.67C627.49,359.18,615.19,342,613.05,325.07Z" transform="translate(-61.81 -212.73)" style="fill:url(#linear-gradient-44)"/><path d="M367.26,317c-1.58-2.05-15.44-14.92-30.35-20.87s-23-2.25-23-2.25c-7,18.26,24.74,21.08,32.86,24,2.85,1,7.81,2.7,4,4.83-11.64,6.51-19.57,16.4-22.81,17.66l1.29,8c8.74-.28,31.77-12.06,36.71-21.43,0.13-.24.23-0.47,0.32-0.68,0,0,.06-0.08.08-0.12C368.09,322.11,368.84,319,367.26,317Z" transform="translate(-61.81 -212.73)" style="fill:#7a4e30"/><path d="M337.14,308.5c-13.3-.55-18.7-3.2-19.19-6.56s6.31-6.65,11.71-7.43l-1.39-1c-9.33-1.89-14.31.37-14.31,0.37-7,18.26,24.74,21.08,32.86,24,2.85,1,7.81,2.7,4,4.83-11.64,6.51-19.57,16.4-22.81,17.66l0.68,4.21c20.7-21.44,35.25-17.23,35.64-23.76S350.44,309,337.14,308.5Z" transform="translate(-61.81 -212.73)" style="fill:url(#linear-gradient-45)"/><path d="M342.75,316.7h0c1.65,0.39,3,.76,4.07,1.12,2.85,1,7.81,2.7,4,4.83-11.64,6.51-19.57,16.4-22.81,17.66l1.29,8c5.77-.18,17.75-5.38,26.66-11.58-5,2.3-6.61-5.48,1.24-12.21S351.86,317.63,342.75,316.7Z" transform="translate(-61.81 -212.73)" style="mix-blend-mode:darken;fill:url(#linear-gradient-46)"/><path d="M367.26,317a31.4,31.4,0,0,0-2.92-2.93c-2.27,2.06-3.34,10.59,1.77,12.7,0.08-.16.16-0.33,0.22-0.48s0.06-.08.08-0.12C368.09,322.11,368.84,319,367.26,317Z" transform="translate(-61.81 -212.73)" style="fill:#955238"/><path d="M322.2,342.12c0.2,2.49,1.52,12,2.59,15.44,0.5,1.62,1.08,1.9,1.6,1.49a0.54,0.54,0,0,0-.2-0.17c-1.5-.77-3.09-17.7-3.09-17.7A0.86,0.86,0,0,0,322.2,342.12Z" transform="translate(-61.81 -212.73)" style="fill:#443944"/><path d="M232.92,381.77a0.75,0.75,0,0,1,0-1.5l6.48-.16a0.75,0.75,0,0,1,0,1.5l-6.48.16h0Z" transform="translate(-61.81 -212.73)" style="fill:#1c1e30"/><path d="M230.93,377.13h0A17.06,17.06,0,0,1,231,379s1.06,0.09,6.16,0c3.15-.06,4.49-2.25,2.64-1.91s-3.26-.46-4.44-0.74C233.76,377.9,230.93,377.13,230.93,377.13Z" transform="translate(-61.81 -212.73)" style="fill:#e0bebb"/><path d="M233.17,379.54c-1.7,0-2.17,0-2.2,0a0.5,0.5,0,0,1-.46-0.51,16.59,16.59,0,0,0-.07-1.81,0.5,0.5,0,0,1,.63-0.53s2.58,0.68,4-.66a0.51,0.51,0,0,1,.46-0.13c0.31,0.08.64,0.18,1,.3a6.26,6.26,0,0,0,3.25.44,1.22,1.22,0,0,1,1.27.3,0.84,0.84,0,0,1,0,.9c-0.38.8-1.87,1.66-3.87,1.7C235.39,379.53,234.09,379.54,233.17,379.54Zm-1.66-1c0.69,0,2.3,0,5.65,0a4.3,4.3,0,0,0,2.83-.93H239.9a7.13,7.13,0,0,1-3.75-.47l-0.65-.21a5.27,5.27,0,0,1-4,.84C231.5,378,231.5,378.31,231.51,378.52Z" transform="translate(-61.81 -212.73)" style="fill:#e0bebb"/><path d="M428.31,218.57c-2.85,3.52-4.39,10.34-2.88,13.11s3,2.23,3,2.74-3.66,6.51-3.66,6.51l3.41,13.9,8.42-2.32-0.4-5.68-0.8-2.92s-0.92-1.56.77-6.9c1.63-5.17,2-5.86,4.06-7.94s2.69-6.68,1.66-9.58-6.05-4.93-8.18-4.76-2.19.76-2.65,0.65-1.95-1.57-3.46-1.73-2.39.9-1.6,2.92A2.71,2.71,0,0,0,428.31,218.57Z" transform="translate(-61.81 -212.73)" style="fill:#9a4970"/><path d="M427.39,218.3a2.17,2.17,0,0,0,.92.27,12.48,12.48,0,0,0-1.18,1.79c1.64,1.62,8.8.76,10.5,0.11,2.13-.8,1.8-0.06,1.33,1.25s2.49,1.15,2.49,1.15l0.89-.41a9.39,9.39,0,0,0-.48-3,5.3,5.3,0,0,0-1.59-2.15l-3.63-.41S430.29,214.58,427.39,218.3Z" transform="translate(-61.81 -212.73)" style="fill:url(#linear-gradient-47)"/><path d="M440.2,229.07a6,6,0,0,0,1.16-1.73,2.16,2.16,0,0,0-1.47,1,12.57,12.57,0,0,1-8.58,5.43,5.53,5.53,0,0,1-6.38-3.74,5,5,0,0,0,.5,1.71c1.49,2.74,3,2.23,3,2.74a17.58,17.58,0,0,1-1.2,2.32h0c3.58,1.51,10.41-4,10.41-4h0A9.8,9.8,0,0,1,440.2,229.07Z" transform="translate(-61.81 -212.73)" style="fill:url(#linear-gradient-48)"/><path d="M413.5,374.82c-0.4,6.45-3,6.18.74,6.74s15.85,3,14.64.37-9.65-2.31-9.14-6.32S413.5,374.82,413.5,374.82Z" transform="translate(-61.81 -212.73)" style="fill:#e0bebb"/><path d="M428.94,382.42h0c-3.24.89-16.54-2.21-16.54-2.21-0.32,1-.14,1.06,1.84,1.36C417.68,382.08,428.4,384.2,428.94,382.42Z" transform="translate(-61.81 -212.73)" style="fill:#c78485"/><path d="M420.11,376.18c0.57-5.1,3.88-27.5,3.32-33.76s-0.3-13.16,1.2-16.4,4-14,4-22.45,0.76-19.7.76-19.7L423.06,282l-11.11.34c-5,5.81-2.75,9.56-.7,13.63s1.52,11.1,2.12,16.46-0.48,8.81-2.64,13.31S408.29,339,410.65,346s2.29,24.25,2.28,29.22Z" transform="translate(-61.81 -212.73)" style="fill:#384052"/><path d="M413.37,312.42c0.6,5.35-.48,8.81-2.64,13.31S408.29,339,410.65,346s2.29,24.25,2.28,29.22l7.18,0.91c0.57-5.1,3.88-27.5,3.32-33.76a52.6,52.6,0,0,1,.31-13.42c-2.31,3.19-8.08-.49-4.69-10,4.12-11.51-3.37-22.24-6.37-27.07s6.21-6.16,16.64-7v-0.06l-2.12-1.67L423.06,282l-11.11.34c-5,5.81-2.75,9.56-.7,13.63S412.77,307.06,413.37,312.42Z" transform="translate(-61.81 -212.73)" style="fill:url(#linear-gradient-49)"/><path d="M426.46,238.4c-2.63-2-8.18,1.77-9.42,9.64s0.67,12.5-1.6,17.92-4.51,9.1-4.34,13.08a10,10,0,0,1-2.16,6.61,21.88,21.88,0,0,0,7.16-.83c3.14-1.08,13.3.14,13.3,0.14s1.18-4.67,2.63-9.39,4.18-9.09,4.91-13.1,1.76-12.74-1.78-19.48c-0.33.76,0.2,2.16,0.4,4.74s-1.28,4.29-3.8-.88S428.77,240.14,426.46,238.4Z" transform="translate(-61.81 -212.73)" style="fill:#e0bebb"/><path d="M432.91,255.23c-2.88-8.1-13.6-17-6.45-16.84-2.63-2-8.18,1.77-9.42,9.64-0.86,5.45-.2,9.37-0.48,13.07h0c0,12.52,3.68,17.59,7.74,13.89S435.79,263.34,432.91,255.23Z" transform="translate(-61.81 -212.73)" style="mix-blend-mode:darken;fill:url(#linear-gradient-50)"/><path d="M421.84,240.53c-6.34,5.27-4.1,30.37,3,25.92s8.3-16,5.16-20.49S424.72,238.14,421.84,240.53Z" transform="translate(-61.81 -212.73)" style="fill:url(#linear-gradient-51)"/><path d="M430.35,270.29c3,7,4.9,10.12,10.77,12.88s13.72,6.48,15.78,10.24-1.43,6.75,1.11,8.66,5.74,2,6.45.13,2.24-1.16-1.11-6.4-11-13.26-13.41-17-8.57-7.18-10.39-11-6.29-19.56-11.46-25.56-9.75-.53-7.26,7.77S430.35,270.29,430.35,270.29Z" transform="translate(-61.81 -212.73)" style="fill:#9a4970"/><path d="M425,216.07c-2.14-3.55,1.88-4,4-2.57s2.26,1,3.4.64,7.63-.85,10.28,4.69-2,9.2-2,9.2-1.46-3.41.67-5.14c0,0-2.8-.78-1.38-2.29s0.34-1.44-1.62-1.18S427.81,220.68,425,216.07Z" transform="translate(-61.81 -212.73)" style="fill:#312a32"/><path d="M428.79,226.15c-0.49,1.26-1,1.22-1.51,1s-1-.46-0.46-1.73,1.69-3.07,2.23-2.87S429.27,224.88,428.79,226.15Z" transform="translate(-61.81 -212.73)" style="fill:#7b4771"/><path d="M432.78,223.86a0.72,0.72,0,0,1-.71.63,0.69,0.69,0,0,1-.22-0.9,0.72,0.72,0,0,1,.71-0.63A0.69,0.69,0,0,1,432.78,223.86Z" transform="translate(-61.81 -212.73)" style="fill:#312a32"/><path d="M427.64,222.61a0.51,0.51,0,0,1-.5.44,0.49,0.49,0,0,1-.16-0.64,0.51,0.51,0,0,1,.5-0.44A0.49,0.49,0,0,1,427.64,222.61Z" transform="translate(-61.81 -212.73)" style="fill:#312a32"/><path d="M426.3,228.24s0,0.08,0,.2a0.51,0.51,0,0,0,0,.21,1,1,0,0,0,.11.22,2,2,0,0,0,1.29.48,7.12,7.12,0,0,0,1.51,0,4.67,4.67,0,0,0,.51-0.09l0.2,0-0.16.13a2.06,2.06,0,0,1-.47.27,3.28,3.28,0,0,1-.74.22,3.63,3.63,0,0,1-.89,0,2.77,2.77,0,0,1-.88-0.25,1.28,1.28,0,0,1-.36-0.26,1.16,1.16,0,0,1-.24-0.33,0.7,0.7,0,0,1,0-.34,0.67,0.67,0,0,1,.06-0.24Z" transform="translate(-61.81 -212.73)" style="fill:#312a32"/><path d="M435.66,227.83a2.38,2.38,0,0,1-3,1.26,2.22,2.22,0,0,1-1.76-2.67,2.39,2.39,0,0,1,3-1.25A2.21,2.21,0,0,1,435.66,227.83Z" transform="translate(-61.81 -212.73)" style="fill:#9a2e67"/><path d="M439.75,226.61c0.94-2.43,2.76-2.16,3-.52s-4.19,4.48-3.79,3A22.12,22.12,0,0,1,439.75,226.61Z" transform="translate(-61.81 -212.73)" style="fill:#9a4970"/><path d="M432,221.74a3.6,3.6,0,0,1,2.58.88s-1.9-.76-2.38-0.54S431.53,221.78,432,221.74Z" transform="translate(-61.81 -212.73)" style="fill:#312a32"/><path d="M428.4,221.17a2.52,2.52,0,0,0-1.84-.2,4.23,4.23,0,0,1,1.62.35C428.4,221.58,428.65,221.31,428.4,221.17Z" transform="translate(-61.81 -212.73)" style="fill:#312a32"/><path d="M438.21,274.51c-5.31-2.27-2.09-8.56-8.08-14.89s-9.54-17-7.15-19.75h0c-2.46.77-3.73,4.91-2.15,10.19,2.5,8.33,9.52,20.23,9.52,20.23,3,7,4.9,10.12,10.77,12.88C447.57,285.06,443.51,276.77,438.21,274.51Z" transform="translate(-61.81 -212.73)" style="fill:url(#linear-gradient-52)"/><path d="M449.94,278.8a27,27,0,0,0-5.09-5.2c5.09,5.2,3,12.32,8.92,14.76s5.53,7.16,5.63,10.88c0.06,2.31,2.8,3.35,5.1,2.88,0.72-1.74,2.15-1.16-1.15-6.32S452.31,282.54,449.94,278.8Z" transform="translate(-61.81 -212.73)" style="fill:url(#linear-gradient-53)"/><path d="M425.94,274.7c7-1.6-5-4.09-8,0s-3.31,4.4-2.22-2.21,1-6.83-1.95-2.76c-1.58,3.5-2.81,6.33-2.69,9.32a10,10,0,0,1-2.16,6.61,21.87,21.87,0,0,0,7.16-.83c3.14-1.08,13.3.14,13.3,0.14a49.92,49.92,0,0,1-7.37-2C416.18,281,419.68,276.14,425.94,274.7Z" transform="translate(-61.81 -212.73)" style="opacity:0.75;mix-blend-mode:darken;fill:url(#linear-gradient-54)"/><path d="M412.94,375.27l7.18,0.91c0.27-2.39,1.13-8.56,1.92-15.1h0c-6.15,0-11.38-15-8.67-27.19s1.32-16.1,0-21.47c0.6,5.35-.48,8.81-2.64,13.31S408.29,339,410.65,346,412.94,370.3,412.94,375.27Z" transform="translate(-61.81 -212.73)" style="mix-blend-mode:darken;fill:url(#linear-gradient-55)"/><path d="M423.37,384.41h-0.11l-10.19-1.56a0.75,0.75,0,0,1,.23-1.48l10.19,1.56A0.75,0.75,0,0,1,423.37,384.41Z" transform="translate(-61.81 -212.73)" style="fill:#1c1e30"/><path d="M499,371.87c-1.08,3.64,4.26,6.47,6.2,6.7s6.51,3.95,2.57,3.67-7.39-.47-12.88-0.86-3.91.88-2.62-10C492.73,367.22,499,371.87,499,371.87Z" transform="translate(-61.81 -212.73)" style="fill:#312a32"/><path d="M472.83,300.84c6.41,11.26,13.68,17.77,17.43,23.42s4.44,10.29,1.74,19-4.83,14.4-3.14,19.77,2.8,7.74,2.77,9.14a18.1,18.1,0,0,0,7.8.55s5.46-24,7.16-36.4-0.85-15.28-5.65-25.83A75.06,75.06,0,0,0,486,288.81C482.39,285.26,466.45,289.66,472.83,300.84Z" transform="translate(-61.81 -212.73)" style="fill:#5cbedd"/><path d="M479.19,293.93a12.87,12.87,0,0,1,2.1,1.58,8.55,8.55,0,0,1,1.66,2,4.51,4.51,0,0,1,.63,2.56,4.68,4.68,0,0,1-1,2.46v-0.15c2.09,2.39,4,4.89,5.88,7.47a80.21,80.21,0,0,1,5.09,8,42.23,42.23,0,0,1,3.73,8.77,20.56,20.56,0,0,1,.8,4.73,36.67,36.67,0,0,1-.27,4.77,33.75,33.75,0,0,1-.92,4.69,38,38,0,0,1-1.53,4.52c-1.15,3-2.67,5.77-3.28,8.86a15.41,15.41,0,0,0-.19,4.68,28.65,28.65,0,0,0,.94,4.63c0.42,1.52.93,3,1.38,4.54a11,11,0,0,1,.63,4.68,10.93,10.93,0,0,0-.73-4.64c-0.48-1.51-1-3-1.48-4.51a25.83,25.83,0,0,1-1-4.66,15.71,15.71,0,0,1,.15-4.77c0.59-3.16,2.1-6,3.22-8.95a37.62,37.62,0,0,0,1.48-4.49,33.31,33.31,0,0,0,.87-4.63,36.31,36.31,0,0,0,.23-4.7,20.61,20.61,0,0,0-.75-4.62,41.81,41.81,0,0,0-3.63-8.7,79.86,79.86,0,0,0-5-8c-1.82-2.59-3.75-5.1-5.8-7.5a0.12,0.12,0,0,1,0-.15,4.48,4.48,0,0,0,1-2.33,4.36,4.36,0,0,0-.56-2.49,8.46,8.46,0,0,0-1.6-2.06A12.84,12.84,0,0,0,479.19,293.93Z" transform="translate(-61.81 -212.73)" style="fill:#4793c3"/><path d="M508.47,254.09c1.07-.83.29-3.22-0.22-5.37s-1.21-8.32,4.2-9.86,9.12-.59,10.79,4.89-0.73,10.44-2.44,11.19-3.93-1.19-5.17.67a6,6,0,0,0-1.23,2.94l-0.07,1.74-1.28,3.17-4-3.28-2.14-1.88-0.43-2.62Z" transform="translate(-61.81 -212.73)" style="fill:#f26b4d"/><path d="M521.11,254.73c-2.76.34-7.55-7.72-7.55-7.72H508a13.31,13.31,0,0,0,.27,1.71c0.51,2.15,1.29,4.54.22,5.37l-2,1.59,0.43,2.62,2.14,1.88,4,3.28,1.28-3.17,0.07-1.74a6,6,0,0,1,1.23-2.94c1.24-1.85,3.45.08,5.17-.67a1.91,1.91,0,0,0,.35-0.21h0Z" transform="translate(-61.81 -212.73)" style="mix-blend-mode:darken;fill:url(#linear-gradient-56)"/><path d="M509.92,247H508a13.31,13.31,0,0,0,.27,1.71c0.51,2.15,1.29,4.54.22,5.37l-2,1.59,0.43,2.62,2.14,1.88,1.14,0.93a3.65,3.65,0,0,0,1-1.06c2.6-4.17,0-7.1,1.88-10.32Z" transform="translate(-61.81 -212.73)" style="mix-blend-mode:darken;fill:url(#linear-gradient-57)"/><path d="M493.59,297.25c2.14-2.09,4.11-5.63,8.22-9.53s12.76-11.13,14.75-21.62a19.37,19.37,0,0,0-1.48-5.15c-0.25-.47-1.23.87-2.36,1.34,0,0-3.32-3.4-4.7-4.75a4.44,4.44,0,0,0-3.51-1,16.63,16.63,0,0,0-11.3,6.55c-4.71,6.17-6.78,10.24-12.48,14.21s-8.77,5.84-9.91,10.13a19.4,19.4,0,0,0-.64,7.38,66.2,66.2,0,0,1,13.14,2.11C489.66,298.73,493.59,297.25,493.59,297.25Z" transform="translate(-61.81 -212.73)" style="fill:#fedeca"/><path d="M510,266.77c1.11-1.76,2.54-4.68,3-3.78s-0.48,4.56.63,3.32,1.43-4.17,1.43-4.17l-0.62-1a7.66,7.66,0,0,1-1.66,1.13s-3.32-3.4-4.7-4.75a4.44,4.44,0,0,0-3.51-1c1.78,2.07,2.94,5.91,3.51,8.46S508.85,268.53,510,266.77Z" transform="translate(-61.81 -212.73)" style="fill:url(#linear-gradient-58)"/><path d="M502.57,274.27c-3.78,6.14-11.22,12-18.55,10.82-7.12-1.18-11.37-1-13.74,5a17.44,17.44,0,0,0-.1,4.72,69,69,0,0,1,10.46,1.44c4.24-6,11-2.76,17.55-9.66C505.19,279.25,506.36,268.13,502.57,274.27Z" transform="translate(-61.81 -212.73)" style="fill:url(#linear-gradient-59)"/><path d="M493.22,263.1c-4.05,5.32-6.16,9.07-10.31,12.55h0c-6.28,10.85,18.78.32,17.12-6.67s0.66-10,4.49-12.43A16.63,16.63,0,0,0,493.22,263.1Z" transform="translate(-61.81 -212.73)" style="fill:url(#linear-gradient-60)"/><path d="M504.52,256.54a23.06,23.06,0,0,1,2,3.15c1.26,2.25,3.74,5.77,3.74,5.77l2.45-3.18a28.21,28.21,0,0,1-2.91-4.14c-0.65-1.43-3.06-2.48-2.48-3.27,0,0-.42-0.38-1.32.37S504.52,256.54,504.52,256.54Z" transform="translate(-61.81 -212.73)" style="fill:#ffede1"/><path d="M512.73,262.29l1.66-3.4s0.37,0,.89,1.21a10.74,10.74,0,0,1-.13,5.12c-0.28.6-.63-0.4-0.67-1.23S513.92,261.58,512.73,262.29Z" transform="translate(-61.81 -212.73)" style="fill:#ffede1"/><path d="M525.24,302.11a30.78,30.78,0,0,0-11.11-8.93s-1.89-19-6.53-27.76c-2.14-4-3.49-7-7.68-5.29s-1.36,18.72,2.83,28.76,5.55,9.59,12.37,13.78a66,66,0,0,0,8.09,4.09" transform="translate(-61.81 -212.73)" style="fill:#fee2d1"/><path d="M504.57,277.63c-4.95-6.83-5.72-16.51-1.6-17.89a4.79,4.79,0,0,0-3.05.38c-4.19,1.72-1.36,18.72,2.83,28.76s5.55,9.59,12.37,13.78a65.94,65.94,0,0,0,8.09,4.09l2-4.65a30.78,30.78,0,0,0-11.11-8.93C506.79,293.27,509.52,284.46,504.57,277.63Z" transform="translate(-61.81 -212.73)" style="opacity:0.5;mix-blend-mode:darken;fill:url(#linear-gradient-61)"/><path d="M513.55,247a4.4,4.4,0,0,1-2.87,4.72c-3.36,1.14-5.37-1.67-5.83-6.6s3.81-9,7.92-8.42,6.48,0.41,6.48-2.58,1.41-3.49,1.41-3.49a4.37,4.37,0,0,0,.26,3.1,4.77,4.77,0,0,1,.65,2.78s2-1.17,2.27.93-2.24,4.68-4.92,4.26-2.37,2.14-2.68,3.06-1.86,1.05-1.86,1.05-0.21-2.64-1.65-2.78-1.67,1.39-1,2.63A2.5,2.5,0,0,0,513.55,247Z" transform="translate(-61.81 -212.73)" style="fill:#312a32"/><path d="M519.73,243.94a3.88,3.88,0,0,1,2.68.66c0.18,0.21-.07.54-0.27,0.32A16.45,16.45,0,0,0,519.73,243.94Z" transform="translate(-61.81 -212.73)" style="fill:#312a32"/><polygon points="455.24 29.44 455.24 29.44 455.24 29.44 455.24 29.44" style="fill:url(#linear-gradient-62)"/><path d="M518.9,238.37c1.93-.41,3.8-0.76,2.82,1.38s-2.38.33-4.48,2.24a2.11,2.11,0,0,1,1.68-.29c2.68,0.43,5.18-2.15,4.92-4.26s-2.27-.93-2.27-0.93a4.77,4.77,0,0,0-.65-2.78,4.37,4.37,0,0,1-.26-3.1s-1.4.51-1.41,3.49-2.37,3.13-6.48,2.58a6,6,0,0,0-2.76.3C513.85,236.09,517,238.78,518.9,238.37Z" transform="translate(-61.81 -212.73)" style="fill:url(#linear-gradient-63)"/><path d="M504.07,291.88c2.46,5.28,4.06,6.62,7.31,8.56C511.39,296.79,509.53,291.35,504.07,291.88Z" transform="translate(-61.81 -212.73)" style="fill:#f3c0b2"/><path d="M506.93,333.17c-2.28,1.47-5.69,1.51-8.28-3.46-3.91-7.51-11.74-12.24-20.49-20.67,4.77,6.53,9.37,11.11,12.1,15.22,3.76,5.65,4.44,10.29,1.74,19s-4.83,14.4-3.14,19.77,2.8,7.74,2.77,9.14a18.1,18.1,0,0,0,7.8.55s5.46-24,7.16-36.4C506.73,335.17,506.84,334.14,506.93,333.17Z" transform="translate(-61.81 -212.73)" style="mix-blend-mode:darken;fill:url(#linear-gradient-64)"/><ellipse cx="519.77" cy="247.62" rx="1.06" ry="2.71" transform="translate(158.19 526.43) rotate(-84.1)" style="fill:#f0493c"/><path d="M505.36,383.61H505.3l-10.5-.86a0.75,0.75,0,1,1,.12-1.49l10.5,0.86A0.75,0.75,0,0,1,505.36,383.61Z" transform="translate(-61.81 -212.73)" style="fill:#1c1e30"/><path d="M547.05,295.11c-6.77,19.06,24.07,22,32,25s18.28,7.29,19.91,3.09-0.27-3.16-1.81-5.3-13.24-14.27-27.74-20.48S547.05,295.11,547.05,295.11Z" transform="translate(-61.81 -212.73)" style="fill:#272d37"/><path d="M560,342.18c-1.84.58-2.94,0.49-4.53,2.5l7.19,12.64a1,1,0,0,0,1-1.28c-0.33-1.25-1.9-8.39-.2-8.54s0.26-2.93.26-2.93Z" transform="translate(-61.81 -212.73)" style="fill:#120016"/><path d="M562.84,347.44c8.5-.29,31.19-14.26,36-24,2.82-5.73-4.34-2.15-12.55.57C574,328,563,340.91,559.85,342.23Z" transform="translate(-61.81 -212.73)" style="fill:#272d37"/><path d="M565,309.13c-13-.17-18.39-12.65-17.72-13.6l-0.24-.42h0c-6.77,19.06,24.07,22,32,25,2.83,1.09,6,2.32,8.93,3.28l-1.67.55c-11.78,3.9-22.45,16-26,18.05,14.21-7.5,20.81-6.78,24.79-12.06s10.77-9.28,10.77-9.28S578,309.3,565,309.13Z" transform="translate(-61.81 -212.73)" style="fill:url(#linear-gradient-65)"/><polygon points="498.04 129.5 498.04 129.5 498.04 129.5 498.04 129.5" style="fill:url(#linear-gradient-66)"/><path d="M560.74,355.24a0.75,0.75,0,0,1-.64-0.35l-3.93-6.31a0.75,0.75,0,1,1,1.27-.79l3.93,6.31A0.75,0.75,0,0,1,560.74,355.24Z" transform="translate(-61.81 -212.73)" style="fill:#1c1e30"/><ellipse cx="459.85" cy="33.33" rx="0.29" ry="0.49" style="fill:#312a32"/><path d="M521.37,250.77a1.25,1.25,0,0,0,.15.24,2,2,0,0,0,.45.42,1.92,1.92,0,0,0,.52.26,0.66,0.66,0,0,0,.22,0,0.26,0.26,0,0,1,.05.51h-0.13a1.22,1.22,0,0,1-.32-0.15,2.26,2.26,0,0,1-.51-0.46,2.18,2.18,0,0,1-.35-0.56A1.26,1.26,0,0,1,521.37,250.77Z" transform="translate(-61.81 -212.73)" style="fill:#312a32"/><path d="M232,288.9c0.09,1.05.51,1.2,1,1.15s0.89-.26.8-1.31-0.63-2.54-1.13-2.49S231.86,287.85,232,288.9Z" transform="translate(-61.81 -212.73)" style="fill:#952624"/><path d="M229.28,286.58a0.56,0.56,0,0,0,.3.76,0.61,0.61,0,0,0,.79-0.3,0.56,0.56,0,0,0-.3-0.76A0.61,0.61,0,0,0,229.28,286.58Z" transform="translate(-61.81 -212.73)" style="fill:#281020"/><path d="M233.83,286.21a0.37,0.37,0,0,0,.16.51,0.4,0.4,0,0,0,.53-0.16,0.37,0.37,0,0,0-.16-0.51A0.4,0.4,0,0,0,233.83,286.21Z" transform="translate(-61.81 -212.73)" style="fill:#281020"/><path d="M229.79,285.1a2.24,2.24,0,0,1-.17.2c-0.1.11-.24,0.23-0.38,0.35s-0.29.23-.42,0.3a2.06,2.06,0,0,1-.23.13,0.81,0.81,0,0,1,.07-0.26,1.34,1.34,0,0,1,.34-0.45,1.36,1.36,0,0,1,.51-0.25A0.81,0.81,0,0,1,229.79,285.1Z" transform="translate(-61.81 -212.73)" style="fill:#281020"/><path d="M234,285.25a0.34,0.34,0,0,1,.14-0.09,0.53,0.53,0,0,1,.34,0,0.53,0.53,0,0,1,.25.23,0.35,0.35,0,0,1,0,.16l-0.16,0a2.25,2.25,0,0,1-.25-0.07,2.28,2.28,0,0,1-.23-0.13Z" transform="translate(-61.81 -212.73)" style="fill:#281020"/><path d="M233.74,292.3c-0.59,1.6-2.41,3.12-4.29,2.05s-0.94-3.7.13-3.08a3,3,0,0,0,3.89-.5C234,290.26,234.14,291.22,233.74,292.3Z" transform="translate(-61.81 -212.73)" style="fill:#f0e6ec"/><path d="M230.67,288.72a0.46,0.46,0,0,1,0,.21,1.34,1.34,0,0,1-.67,1,3,3,0,0,1-1.22.56,2.13,2.13,0,0,1-1.73-.48,1.43,1.43,0,0,1-.56-1c-0.09-1.28,1.62-1.54,2.19-1.48A2.94,2.94,0,0,1,230.67,288.72Z" transform="translate(-61.81 -212.73)" style="fill:#ba6556"/><path d="M222.41,287.92c-0.28-1.34-2.73-2.65-3.55-.2a1.72,1.72,0,0,0,.83,2" transform="translate(-61.81 -212.73)" style="fill:#cd845c"/><path d="M217.31,312h0c0.68,0.55,1.37,1.11,2,1.75a27,27,0,0,0,5,3.78C225.15,312.89,221,309.83,217.31,312Z" transform="translate(-61.81 -212.73)" style="fill:#e7825f"/><path d="M238.15,323.33c0.07-4.32-9.33-4.79-11.67-10.05s-7.91-5.49-12.78-8.24-1-8.38,1.5-8l0.22-.18-0.16-.15c-2.51-2.46-6.83,4.19-5,8.14s5.75,5.69,9.06,8.87a32.74,32.74,0,0,0,11.49,6.85C233.57,321.67,236.38,322.7,238.15,323.33Z" transform="translate(-61.81 -212.73)" style="fill:url(#linear-gradient-67)"/><path d="M232,277.32a10.46,10.46,0,0,0-10.86-2c-4.51,1.76-6.86,6.17-6,11.29,0.06-.13.12-0.25,0.17-0.39,4.49-11.26,11.33-4.19,11.33-4.19a69.43,69.43,0,0,0,9.09-4A3.76,3.76,0,0,1,232,277.32Z" transform="translate(-61.81 -212.73)" style="fill:url(#linear-gradient-68)"/><path d="M231.41,277.44c-1.54-1.73-8.45-3.79-12.26-.58a10,10,0,0,1,9.19.54C231.73,279.25,232.89,279.1,231.41,277.44Z" transform="translate(-61.81 -212.73)" style="fill:#c59090"/><path d="M229,278.91c-1.2-1.62-7.67-3.72-11.87-.2,0,0,4.3-3.22,9.39.59C228.92,281.1,230.09,280.39,229,278.91Z" transform="translate(-61.81 -212.73)" style="fill:#c59090"/><path d="M225.16,318c-0.6-6.57-7.18-5.46-7.18-5.46h0c0.46,0.38.91,0.78,1.35,1.21A27.38,27.38,0,0,0,225.16,318Z" transform="translate(-61.81 -212.73)" style="fill:#db674a"/><path d="M218.66,324c-0.6.3-3.36-2.29-8.44-.66-10.73,3.45-11.31-.92-12.89,1.36,0.27,1,1.29,1.59,3.26,1.72,4.26,0.29,15.63,2.7,15.63,2.7,3.16,0.82,1.71-2.57,1.15-3.87C216.91,324.16,217.89,324.66,218.66,324Z" transform="translate(-61.81 -212.73)" style="fill:url(#linear-gradient-69)"/><path d="M357.13,333.4a0.94,0.94,0,0,0-.55-1.77c-13.19,2.35-107.6,14-160.82-2.38-77.2-23.76-56.78-2.72-133-.41a0.94,0.94,0,0,0-.23,1.84c14.34,3.93,53.05,12.52,89.19,2.62,45.44-12.46,71.66-6.45,121.09,8C309,351.8,342.06,340.3,357.13,333.4Z" transform="translate(-61.81 -212.73)" style="opacity:0.5;fill:url(#linear-gradient-70)"/><path d="M455.09,313.7a0.94,0.94,0,0,1-.63-1.76c46.84-22,91.3-30,144.48-4.29,42.21,20.38,102.61,7.8,130.72-5.82a0.94,0.94,0,0,0-.71-1.73c-16.3,5.49-42.37,11.69-67.39,6.57-40.53-8.29-63.78,19-116.12,5.43C507.87,302.35,472.22,309.11,455.09,313.7Z" transform="translate(-61.81 -212.73)" style="opacity:0.5;fill:url(#linear-gradient-71)"/></g></g></svg>