<svg id="Layer_2" data-name="Layer 2" xmlns="http://www.w3.org/2000/svg" xmlns:xlink="http://www.w3.org/1999/xlink" viewBox="0 0 69.4 74.77"><defs><linearGradient id="linear-gradient" x1="165.31" y1="284.22" x2="182.82" y2="298.6" gradientTransform="matrix(-1, 0, 0, 1, 1485.99, 0)" gradientUnits="userSpaceOnUse"><stop offset="0" stop-color="#e06b74"/><stop offset="1" stop-color="#b3666c"/></linearGradient><linearGradient id="linear-gradient-2" x1="129.8" y1="306.44" x2="143.69" y2="301.95" xlink:href="#linear-gradient"/><linearGradient id="linear-gradient-3" x1="120.49" y1="282" x2="143.5" y2="287.18" xlink:href="#linear-gradient"/><linearGradient id="linear-gradient-4" x1="159.51" y1="277.21" x2="159.37" y2="267.41" xlink:href="#linear-gradient"/><linearGradient id="linear-gradient-5" x1="132.65" y1="265.4" x2="142.18" y2="267.57" xlink:href="#linear-gradient"/></defs><title>reduce-overhead</title><path d="M1287.28,277.3a6,6,0,0,0,3.8,1.72,4.22,4.22,0,0,0,2.18-.56,4.87,4.87,0,0,0,1.62-1.53,6.9,6.9,0,0,0,1.18-4.12,4.32,4.32,0,0,0-.79-2.24,3.33,3.33,0,0,0-2.19-1.39,2.35,2.35,0,0,0-1.55.33,3,3,0,0,0-1,1,4.11,4.11,0,0,0-.48,1.17,4.6,4.6,0,0,0-.1.63v0.6a4.51,4.51,0,0,0,.18,1.23,4.22,4.22,0,0,0,.58,1.15c0.22,0.32.4,0.54,0.6,0.82s0.41,0.53.62,0.79a13.65,13.65,0,0,0,1.44,1.52,7.16,7.16,0,0,0,1.92,1.26,5,5,0,0,0,1.21.36c0.24,0,.36.05,0.54,0.07l0.54,0a4.74,4.74,0,0,0,2.57-.45l0.08,0a1.35,1.35,0,1,0-1.26-2.4l-0.13.08a2.13,2.13,0,0,1-1.15.22l-0.42,0-0.41,0a2.45,2.45,0,0,1-.63-0.15,7.25,7.25,0,0,1-2.57-2l-0.6-.69c-0.19-.23-0.42-0.5-0.57-0.7a1.78,1.78,0,0,1-.45-1.19v-0.36a2.6,2.6,0,0,1,0-.32,2.12,2.12,0,0,1,.21-0.61,1.15,1.15,0,0,1,.3-0.38,0.41,0.41,0,0,1,.28-0.09h0.1l0.14,0,0.26,0.12a1.78,1.78,0,0,1,.48.42,2.59,2.59,0,0,1,.53,1.3,5.34,5.34,0,0,1-.74,3.18,3.09,3.09,0,0,1-2.55,1.6,4.83,4.83,0,0,1-3.09-1.25A0.54,0.54,0,0,0,1287.28,277.3Z" transform="translate(-1287.1 -235.59)" style="fill:#c3676f"/><path d="M1340.62,265c-8.5-8.5-31.43-9.25-40.38,4.74s4.51,36.17,7.07,37.07,4.59,0.9,6.62-2.18,7-3.38,8.8.23,4.75,8.17,7.9,3.53c3-4.44,4.51-5.49,6.62-5.79,0,0,2.63,4.51,6.24,3.68s4.14-6.17,3.91-9.17c0,0,4.66-2,6.5-6,2.64-1,2.52-2.4,2.6-5.56s-0.6-6.09-3.16-6.17a8.14,8.14,0,0,1-6.92-5.11,37,37,0,0,0-1.65-4.06,6.48,6.48,0,0,0,1.92-2.78c1.45-3.86,0-4.36-2-3.83A35.56,35.56,0,0,0,1340.62,265Z" transform="translate(-1287.1 -235.59)" style="fill:#e26a73"/><path d="M1300.24,269.75a21.19,21.19,0,0,1,4.95-5.37c-3.16,3.66-5.95,9.26-6.3,14.08a27.75,27.75,0,0,0,.24,7.38c0.73,3.71,3.55,7.63,6.42,10.09,2.23,1.91,6.15,2.23,9.08,2,1.66-.13,3.27-0.76,4.93-0.63a7.18,7.18,0,0,1,5,3,40.78,40.78,0,0,1,4,7.57,2.83,2.83,0,0,1,.31,2.09,1.45,1.45,0,0,1-.1.19c-2.43,1.11-4.61-2.39-6.06-5.28-1.8-3.61-6.77-3.31-8.8-.23s-4.06,3.08-6.62,2.18S1291.3,283.73,1300.24,269.75Z" transform="translate(-1287.1 -235.59)" style="fill:url(#linear-gradient)"/><path d="M1341.38,306.2c-1.76-.46-3.52-2.47-4.14-3.6a30,30,0,0,0,5.2-2.79,6.6,6.6,0,0,1,3.16-1.36c0.11,0.94-1,1.54-1.45,2.37-0.71,1.26.07,3-.65,4.23A2.53,2.53,0,0,1,1341.38,306.2Z" transform="translate(-1287.1 -235.59)" style="fill:url(#linear-gradient-2)"/><path d="M1342,280.93a3.75,3.75,0,0,1,1.29-.43l2.85-.58a58.72,58.72,0,0,1,7.19-.55c2.56,0.08,3.23,3,3.16,6.17s0,4.58-2.6,5.56v0l-0.23,0c-2.86.29-5.65,0.73-8.5,1.23a8.07,8.07,0,0,1-2.26.18,3.53,3.53,0,0,1-3.27-4c0.35-2.4.1-4.78,1.61-6.88A2.91,2.91,0,0,1,1342,280.93Z" transform="translate(-1287.1 -235.59)" style="fill:url(#linear-gradient-3)"/><path d="M1330.8,268.45a3.08,3.08,0,0,1,.48,1.87,1.16,1.16,0,0,1-1.39,1,2.93,2.93,0,0,1-.71-0.53,2.68,2.68,0,0,0-2.26-.38,6.89,6.89,0,0,0-2.12,1,4.58,4.58,0,0,1-2.39,1,0.57,0.57,0,0,1-.48-0.18,0.59,0.59,0,0,1-.08-0.3c-0.12-1.82,1.27-3.36,2.56-4.65,0.66-.66,2.75-3.26,3.79-3S1330.36,267.59,1330.8,268.45Z" transform="translate(-1287.1 -235.59)" style="fill:url(#linear-gradient-4)"/><path d="M1343.15,266.14a6.43,6.43,0,0,1,1.51-1.4,2.18,2.18,0,0,1,2-.2,1.53,1.53,0,0,1,.62.55,8.09,8.09,0,0,1-.57,2.32,6.66,6.66,0,0,1-1.8,2.68,16.34,16.34,0,0,1-2-2.63,1.18,1.18,0,0,1-.14-0.69A1.38,1.38,0,0,1,1343.15,266.14Z" transform="translate(-1287.1 -235.59)" style="fill:url(#linear-gradient-5)"/><path d="M1327.58,259.23a1.89,1.89,0,0,0-1.08.43,4,4,0,0,0-.86.64,0.82,0.82,0,0,1-.72.42c-0.53-.07-1-0.23-1.57-0.31a27.67,27.67,0,0,0-3-.37,29.49,29.49,0,0,0-3.29-.1,22.7,22.7,0,0,0-2.4.16c-0.61.11-1.22,0.17-1.82,0.3A33,33,0,0,1,1327.58,259.23Z" transform="translate(-1287.1 -235.59)" style="fill:#250e32"/><ellipse cx="46.11" cy="44.28" rx="0.99" ry="1.5" style="fill:#250e32"/><path d="M1351.67,285.34c-0.07,1.87.45,3.31,1.15,3.19s1.28-1.72,1.33-3.55-0.45-3.16-1.12-3.09S1351.74,283.5,1351.67,285.34Z" transform="translate(-1287.1 -235.59)" style="fill:#250e32"/><path d="M1344.09,286.62c0,2.06.74,3.53,1.68,3.26s1.66-2.13,1.65-4.12-0.74-3.35-1.64-3.14S1344.11,284.6,1344.09,286.62Z" transform="translate(-1287.1 -235.59)" style="fill:#250e32"/><path d="M1319.81,235.63c-9.36-.76-14.44,9-9.87,17.45,4.21,7.84,17.09,8.71,20.38,0A12.61,12.61,0,0,0,1319.81,235.63Z" transform="translate(-1287.1 -235.59)" style="fill:#515c6b"/><path d="M1319.07,236.48c-8.75-.71-13.49,8.37-9.23,16.31,3.94,7.33,16,8.14,19.05,0A11.79,11.79,0,0,0,1319.07,236.48Z" transform="translate(-1287.1 -235.59)" style="fill:#363e49"/><path d="M1323.08,241.1c-4.93-3.91-11.34-.51-11.94,5.82-0.55,5.85,6.3,11.14,11.35,7.62A8.28,8.28,0,0,0,1323.08,241.1Z" transform="translate(-1287.1 -235.59)" style="fill:#ebebeb"/><path d="M1323.08,241.1c-4-3.21-9.08-1.49-11.09,2.72a6.69,6.69,0,0,1,10.33-2.21,7.85,7.85,0,0,1-.56,12.75,6,6,0,0,1-6.32.34,6.44,6.44,0,0,0,7.05-.15A8.28,8.28,0,0,0,1323.08,241.1Z" transform="translate(-1287.1 -235.59)" style="fill:#cdcfd0"/><path d="M1318.61,246.81a0.75,0.75,0,0,0-1.22.59,0.79,0.79,0,0,0,1.16.78A0.85,0.85,0,0,0,1318.61,246.81Z" transform="translate(-1287.1 -235.59)" style="fill:#363e49"/><path d="M1318.19,247.24s5.2-4.6,5.39-4.36-5.25,5-5.25,5Z" transform="translate(-1287.1 -235.59)" style="fill:#363e49"/><path d="M1318.6,247.29s2.38,3.8,2.11,4-2.8-3.42-2.8-3.42Z" transform="translate(-1287.1 -235.59)" style="fill:#363e49"/></svg>