<svg id="Layer_2" data-name="Layer 2" xmlns="http://www.w3.org/2000/svg" viewBox="0 0 60.75 51.89"><title>set-aside-time</title><rect y="1.43" width="60.75" height="50.46" style="fill:#ebebeb"/><rect y="1.43" width="60.75" height="10.51" style="fill:#d55159"/><circle cx="6.86" cy="6.78" r="1.2" style="fill:#fff"/><circle cx="33.55" cy="6.78" r="1.2" style="fill:#fff"/><rect x="33.07" y="0.25" width="0.95" height="6.38" style="fill:#171e21"/><path d="M1329.79,391.44h-1a0.25,0.25,0,0,1-.25-0.25v-6.38a0.25,0.25,0,0,1,.25-0.25h1a0.25,0.25,0,0,1,.25.25v6.38A0.25,0.25,0,0,1,1329.79,391.44Zm-0.7-.5h0.45v-5.88h-0.45v5.88Z" transform="translate(-1295.76 -384.56)" style="fill:#171e21"/><rect x="6.44" y="0.25" width="0.95" height="6.38" style="fill:#171e21"/><path d="M1303.16,391.44h-1a0.25,0.25,0,0,1-.25-0.25v-6.38a0.25,0.25,0,0,1,.25-0.25h1a0.25,0.25,0,0,1,.25.25v6.38A0.25,0.25,0,0,1,1303.16,391.44Zm-0.7-.5h0.45v-5.88h-0.45v5.88Z" transform="translate(-1295.76 -384.56)" style="fill:#171e21"/><circle cx="13.64" cy="6.78" r="1.2" style="fill:#fff"/><circle cx="40.33" cy="6.78" r="1.2" style="fill:#fff"/><rect x="39.85" y="0.25" width="0.95" height="6.38" style="fill:#171e21"/><path d="M1336.57,391.44h-1a0.25,0.25,0,0,1-.25-0.25v-6.38a0.25,0.25,0,0,1,.25-0.25h1a0.25,0.25,0,0,1,.25.25v6.38A0.25,0.25,0,0,1,1336.57,391.44Zm-0.7-.5h0.45v-5.88h-0.45v5.88Z" transform="translate(-1295.76 -384.56)" style="fill:#171e21"/><rect x="13.22" y="0.25" width="0.95" height="6.38" style="fill:#171e21"/><path d="M1309.93,391.44h-1a0.25,0.25,0,0,1-.25-0.25v-6.38a0.25,0.25,0,0,1,.25-0.25h1a0.25,0.25,0,0,1,.25.25v6.38A0.25,0.25,0,0,1,1309.93,391.44Zm-0.71-.5h0.46v-5.88h-0.46v5.88Z" transform="translate(-1295.76 -384.56)" style="fill:#171e21"/><circle cx="20.42" cy="6.78" r="1.2" style="fill:#fff"/><circle cx="47.11" cy="6.78" r="1.2" style="fill:#fff"/><rect x="19.99" y="0.25" width="0.95" height="6.38" style="fill:#171e21"/><path d="M1316.71,391.44h-1a0.25,0.25,0,0,1-.25-0.25v-6.38a0.25,0.25,0,0,1,.25-0.25h1a0.25,0.25,0,0,1,.25.25v6.38A0.25,0.25,0,0,1,1316.71,391.44Zm-0.7-.5h0.45v-5.88H1316v5.88Z" transform="translate(-1295.76 -384.56)" style="fill:#171e21"/><rect x="46.63" y="0.25" width="0.95" height="6.38" style="fill:#171e21"/><path d="M1343.35,391.44h-1a0.25,0.25,0,0,1-.25-0.25v-6.38a0.25,0.25,0,0,1,.25-0.25h1a0.25,0.25,0,0,1,.25.25v6.38A0.25,0.25,0,0,1,1343.35,391.44Zm-0.7-.5h0.45v-5.88h-0.45v5.88Z" transform="translate(-1295.76 -384.56)" style="fill:#171e21"/><circle cx="27.2" cy="6.78" r="1.2" style="fill:#fff"/><circle cx="53.89" cy="6.78" r="1.2" style="fill:#fff"/><rect x="26.77" y="0.25" width="0.95" height="6.38" style="fill:#171e21"/><path d="M1323.49,391.44h-1a0.25,0.25,0,0,1-.25-0.25v-6.38a0.25,0.25,0,0,1,.25-0.25h1a0.25,0.25,0,0,1,.25.25v6.38A0.25,0.25,0,0,1,1323.49,391.44Zm-0.7-.5h0.45v-5.88h-0.45v5.88Z" transform="translate(-1295.76 -384.56)" style="fill:#171e21"/><rect x="53.41" y="0.25" width="0.95" height="6.38" style="fill:#171e21"/><path d="M1350.13,391.44h-1a0.25,0.25,0,0,1-.25-0.25v-6.38a0.25,0.25,0,0,1,.25-0.25h1a0.25,0.25,0,0,1,.25.25v6.38A0.25,0.25,0,0,1,1350.13,391.44Zm-0.7-.5h0.45v-5.88h-0.45v5.88Z" transform="translate(-1295.76 -384.56)" style="fill:#171e21"/><path d="M1299,400.35V417.6h54.21V400.35H1299Zm30.4,8.15h-6.65v-7.21h6.65v7.21Zm-15.2.95v7.21h-6.65v-7.21h6.65Zm-6.65-.95v-7.21h6.65v7.21h-6.65Zm7.6,0.95h6.65v7.21h-6.65v-7.21Zm0-.95v-7.21h6.65v7.21h-6.65Zm7.6,0.95h6.65v7.21h-6.65v-7.21Zm7.6,0H1337v7.21h-6.65v-7.21Zm0-.95v-7.21H1337v7.21h-6.65Zm7.6,0.95h6.65v7.21H1338v-7.21Zm0-.95v-7.21h6.65v7.21H1338Zm7.6,0.95h6.65v7.21h-6.65v-7.21Zm0-.95v-7.21h6.65v7.21h-6.65Zm-39-7.21v7.21H1300v-7.21h6.65Zm-6.65,8.15h6.65v7.21H1300v-7.21Z" transform="translate(-1295.76 -384.56)" style="fill:#c8c8c8"/><path d="M1299,416.66v17.25h54.21V416.66H1299Zm30.4,8.15h-6.65V417.6h6.65v7.21Zm-15.2.95V433h-6.65v-7.21h6.65Zm-6.65-.95V417.6h6.65v7.21h-6.65Zm7.6,0.95h6.65V433h-6.65v-7.21Zm0-.95V417.6h6.65v7.21h-6.65Zm7.6,0.95h6.65V433h-6.65v-7.21Zm7.6,0H1337V433h-6.65v-7.21Zm0-.95V417.6H1337v7.21h-6.65Zm7.6,0.95h6.65V433H1338v-7.21Zm0-.95V417.6h6.65v7.21H1338Zm7.6,0.95h6.65V433h-6.65v-7.21Zm0-.95V417.6h6.65v7.21h-6.65Zm-39-7.21v7.21H1300V417.6h6.65Zm-6.65,8.15h6.65V433H1300v-7.21Z" transform="translate(-1295.76 -384.56)" style="fill:#c8c8c8"/><rect x="42.22" y="24.89" width="6.65" height="7.21" style="fill:#3a8dc8"/><path d="M1344.63,417.15H1338a0.5,0.5,0,0,1-.5-0.5v-7.21a0.5,0.5,0,0,1,.5-0.5h6.65a0.5,0.5,0,0,1,.5.5v7.21A0.5,0.5,0,0,1,1344.63,417.15Zm-6.15-1h5.65v-6.21h-5.65v6.21Z" transform="translate(-1295.76 -384.56)" style="fill:#3a8dc8"/><g id="Octicons"><g id="check"><polygon id="Shape" points="48.17 27.07 44.67 30.57 42.92 28.82 43.58 28.16 44.67 29.25 47.51 26.41 48.17 27.07" style="fill:#fff"/></g></g><rect x="34.61" y="16.72" width="6.65" height="7.21" style="fill:#3a8dc8"/><path d="M1337,409h-6.65a0.5,0.5,0,0,1-.5-0.5v-7.21a0.5,0.5,0,0,1,.5-0.5H1337a0.5,0.5,0,0,1,.5.5v7.21A0.5,0.5,0,0,1,1337,409Zm-6.15-1h5.65v-6.21h-5.65V408Z" transform="translate(-1295.76 -384.56)" style="fill:#3a8dc8"/><g id="Octicons-2" data-name="Octicons"><g id="check-2" data-name="check"><polygon id="Shape-2" data-name="Shape" points="40.56 18.91 37.06 22.4 35.31 20.65 35.97 20 37.06 21.09 39.9 18.25 40.56 18.91" style="fill:#fff"/></g></g><rect x="19.41" y="33.04" width="6.65" height="7.21" style="fill:#3a8dc8"/><path d="M1321.82,425.3h-6.65a0.5,0.5,0,0,1-.5-0.5v-7.21a0.5,0.5,0,0,1,.5-0.5h6.65a0.5,0.5,0,0,1,.5.5v7.21A0.5,0.5,0,0,1,1321.82,425.3Zm-6.15-1h5.65v-6.21h-5.65v6.21Z" transform="translate(-1295.76 -384.56)" style="fill:#3a8dc8"/><g id="Octicons-3" data-name="Octicons"><g id="check-3" data-name="check"><polygon id="Shape-3" data-name="Shape" points="25.36 35.22 21.86 38.72 20.11 36.97 20.77 36.31 21.86 37.41 24.7 34.56 25.36 35.22" style="fill:#fff"/></g></g><rect x="4.21" y="41.2" width="6.65" height="7.21" style="fill:#3a8dc8"/><path d="M1306.63,433.46H1300a0.5,0.5,0,0,1-.5-0.5v-7.21a0.5,0.5,0,0,1,.5-0.5h6.65a0.5,0.5,0,0,1,.5.5V433A0.5,0.5,0,0,1,1306.63,433.46Zm-6.15-1h5.65v-6.21h-5.65v6.21Z" transform="translate(-1295.76 -384.56)" style="fill:#3a8dc8"/><g id="Octicons-4" data-name="Octicons"><g id="check-4" data-name="check"><polygon id="Shape-4" data-name="Shape" points="10.16 43.38 6.67 46.88 4.92 45.13 5.57 44.48 6.67 45.57 9.51 42.73 10.16 43.38" style="fill:#fff"/></g></g><rect x="42.22" y="41.2" width="6.65" height="7.21" style="fill:#3a8dc8"/><path d="M1344.63,433.46H1338a0.5,0.5,0,0,1-.5-0.5v-7.21a0.5,0.5,0,0,1,.5-0.5h6.65a0.5,0.5,0,0,1,.5.5V433A0.5,0.5,0,0,1,1344.63,433.46Zm-6.15-1h5.65v-6.21h-5.65v6.21Z" transform="translate(-1295.76 -384.56)" style="fill:#3a8dc8"/><g id="Octicons-5" data-name="Octicons"><g id="check-5" data-name="check"><polygon id="Shape-5" data-name="Shape" points="48.17 43.38 44.67 46.88 42.92 45.13 43.58 44.48 44.67 45.57 47.51 42.73 48.17 43.38" style="fill:#fff"/></g></g></svg>