<svg id="Layer_2" data-name="Layer 2" xmlns="http://www.w3.org/2000/svg" viewBox="0 0 64.06 63.04"><title>set-boundaries</title><polygon points="52.84 7.37 53.08 10.03 56.1 10.03 55.71 6.93 52.84 7.37" style="fill:#2b2236"/><ellipse cx="54.7" cy="4.54" rx="4.14" ry="4.54" style="fill:#2b2236"/><ellipse cx="55.05" cy="4.54" rx="2.99" ry="3.28" style="fill:#ffd76d"/><polygon points="8.54 7.37 8.78 10.03 11.79 10.03 11.4 6.93 8.54 7.37" style="fill:#2b2236"/><ellipse cx="10.39" cy="4.54" rx="4.14" ry="4.54" style="fill:#2b2236"/><ellipse cx="10.75" cy="4.54" rx="2.99" ry="3.28" style="fill:#ffd76d"/><polyline points="2.91 23.4 7.35 23.38 7.33 10.56 3.56 10.56" style="fill:#2b2236"/><polyline points="0.69 43.15 5.13 43.13 5.11 30.31 1.34 30.32" style="fill:#2b2236"/><polygon points="2.91 23.4 2.22 23.11 3.56 10.56 4.37 10.87 2.91 23.4" style="fill:#4f3228"/><polygon points="0.69 43.15 0 42.87 1.34 30.32 2.15 30.62 0.69 43.15" style="fill:#4f3228"/><polygon points="1.21 61.95 7.87 61.69 13.45 12.48 7.32 11.04 1.21 61.95" style="fill:#899098"/><polygon points="1.21 61.95 0.47 61.41 6.49 11.22 7.32 11.04 1.21 61.95" style="fill:#9ea6b0"/><polygon points="45.41 60.18 52.07 59.93 57.65 12.44 51.53 11.04 45.41 60.18" style="fill:#899098"/><polygon points="45.41 60.18 44.67 59.66 50.69 11.21 51.53 11.04 45.41 60.18" style="fill:#9ea6b0"/><polygon points="12.9 62.9 19.85 62.54 13.5 9.74 7.04 9.74 12.9 62.9" style="fill:#d9dce1"/><polygon points="12.9 62.9 12.28 63.04 6.25 10.12 7.04 9.74 12.9 62.9" style="fill:#9ea6b0"/><polygon points="57.1 61.1 64.06 60.75 57.7 9.71 51.24 9.71 57.1 61.1" style="fill:#d9dce1"/><polygon points="57.1 61.1 56.48 61.23 50.45 10.08 51.24 9.71 57.1 61.1" style="fill:#9ea6b0"/><polyline points="7.37 30.32 6.25 30.81 7.64 43.84 63.39 42.13 64.06 41.62" style="fill:#4f3228"/><polygon points="7.37 30.32 8.78 43.14 64.06 41.62 62.64 29.45 7.37 30.32" style="fill:#ffd76d"/><polygon points="7.37 30.32 17.36 42.9 8.78 43.14 7.37 30.32" style="fill:#2b2236"/><line x1="17.36" y1="42.9" x2="7.36" y2="30.32" style="fill:#007bc2"/><polygon points="16.81 30.17 26.49 42.65 35.71 42.4 26.26 30.02 16.81 30.17" style="fill:#2b2236"/><polygon points="35.71 29.88 45.38 42.13 54.61 41.88 45.16 29.73 35.71 29.88" style="fill:#2b2236"/><polygon points="54.61 29.58 64.06 41.62 62.64 29.45 54.61 29.58" style="fill:#2b2236"/><polyline points="5.08 10.56 4.17 10.95 5.55 23.78 60.96 23.01 61.63 22.51" style="fill:#4f3228"/><polygon points="5.08 10.56 6.34 23.4 61.63 22.51 60.36 10.33 5.08 10.56" style="fill:#ffd76d"/><polygon points="5.08 10.56 14.92 23.26 6.34 23.4 5.08 10.56" style="fill:#2b2236"/><line x1="14.92" y1="23.26" x2="5.07" y2="10.57" style="fill:#3d90ce"/><polygon points="14.52 10.53 24.05 23.11 33.28 22.96 23.97 10.48 14.52 10.53" style="fill:#2b2236"/><polygon points="33.42 10.44 42.95 22.81 52.18 22.66 42.87 10.4 33.42 10.44" style="fill:#2b2236"/><polygon points="52.32 10.36 61.63 22.51 60.36 10.33 52.32 10.36" style="fill:#2b2236"/></svg>