<svg id="Layer_2" data-name="Layer 2" xmlns="http://www.w3.org/2000/svg" viewBox="0 0 54.73 67.8"><title>document-everything</title><path d="M1162.79,246.32c-2.63.31-3.78,4.9-3.78,4.9s1.65,0.62,1.85.19c0,0-1.13,2-2.25,2.21,0,0,.3,10.67,5.27,12s6.86-11.86,6.86-11.86l1.76-4.38-8.54-3.16Z" transform="translate(-1158.61 -244.54)" style="fill:#c8c8c8"/><path d="M1164.41,265.66c2.21-1,3.79-5.36,2.11-8.37a8.54,8.54,0,0,0-3.62-3.81l7.51-.37,7.88,5.63-6.12,3.5S1166.83,265.86,1164.41,265.66Z" transform="translate(-1158.61 -244.54)" style="fill:#a5aeb8"/><path d="M1177.91,311.31c-1.88,2-5.55,1.26-8.43-3.92s-2.16-9.68-.29-10.21,4.94,3.91,6.78,4,5.62,5.17,5.62,5.17Z" transform="translate(-1158.61 -244.54)" style="fill:#c8c8c8"/><path d="M1174.07,306.58a6.27,6.27,0,0,0-.66-6,10.29,10.29,0,0,0-4.21-3.45s1.58-.58,6.16.1,4.47,6.89,4.47,6.89Z" transform="translate(-1158.61 -244.54)" style="fill:#a5aeb8"/><path d="M1162.79,246.32c5.65-1.19,7.28,2.75,24.55,1.93s19.8-3.71,19.8-3.71,4.62,1.17,6.12,7.37a4.49,4.49,0,0,1-3,4.95s1.61,1,2.47.59c0,0,.26,5.75-1.63,8.68,0,0-3.58,1.43-5.32,2.33,0,0,4,1.34,4.72,2.22s-3.37,3.85-1.91,13.1,5.09,7.92,4.73,11.18-3,2.87-6.38,3.06-23.91,7.82-29,13.28c0,0,1.72-3.87.27-6.68s-4.43-5.76-8.29-14.61S1168,278.1,1168,278.1a2.34,2.34,0,0,1,1.95.82,3.6,3.6,0,0,0-2.19-3.18l1.15-3s1.27,0.1,3.05-2.56a4,4,0,0,1-2-.75s4-8.51,1.54-14S1165.6,246,1162.79,246.32Z" transform="translate(-1158.61 -244.54)" style="fill:#ebebeb"/><path d="M1188.76,259.35l-6.26.51a1.42,1.42,0,0,1-1.62-1.05h0a1.33,1.33,0,0,1,1.39-1.3l6.4-.41a1.21,1.21,0,0,1,1.4,1h0A1.31,1.31,0,0,1,1188.76,259.35Z" transform="translate(-1158.61 -244.54)" style="fill:#848a9a"/><path d="M1184.8,284.42l-5.55,1.22a1.16,1.16,0,0,1-1.48-.81h0a1.31,1.31,0,0,1,1.14-1.37l5.57-1.14a1.08,1.08,0,0,1,1.36.8h0A1.24,1.24,0,0,1,1184.8,284.42Z" transform="translate(-1158.61 -244.54)" style="fill:#848a9a"/><path d="M1204,258.11l-7.22.59a1,1,0,0,1-1.19-1h0a1.28,1.28,0,0,1,1.24-1.16l7.34-.48a0.86,0.86,0,0,1,1,.94h0A1.26,1.26,0,0,1,1204,258.11Z" transform="translate(-1158.61 -244.54)" style="fill:#848a9a"/><path d="M1195.53,282.07l-7,1.54a1,1,0,0,1-1.31-.78h0a1.19,1.19,0,0,1,1-1.27l7-1.44a1,1,0,0,1,1.17.76h0A1.11,1.11,0,0,1,1195.53,282.07Z" transform="translate(-1158.61 -244.54)" style="fill:#848a9a"/><path d="M1184.65,290.29l-6.68,1.6a1.31,1.31,0,0,1-1.47-.67h0a0.88,0.88,0,0,1,.69-1.23l7-1.64a1,1,0,0,1,1.25.75h0A1.07,1.07,0,0,1,1184.65,290.29Z" transform="translate(-1158.61 -244.54)" style="fill:#848a9a"/><path d="M1183.69,272.71l-6.71,1a0.92,0.92,0,0,1-1.09-1h0a1.39,1.39,0,0,1,1.15-1.31l6.81-.92a0.8,0.8,0,0,1,.89,1h0A1.37,1.37,0,0,1,1183.69,272.71Z" transform="translate(-1158.61 -244.54)" style="fill:#848a9a"/><path d="M1192.87,256.83a1.29,1.29,0,0,0-1.28,1.2,1.11,1.11,0,0,0,1.3,1,1.29,1.29,0,0,0,1.25-1.17A1.1,1.1,0,0,0,1192.87,256.83Z" transform="translate(-1158.61 -244.54)" style="fill:#848a9a"/><path d="M1178.38,257.66A1.44,1.44,0,0,0,1177,259a1.24,1.24,0,0,0,1.45,1.1,1.45,1.45,0,0,0,1.4-1.31A1.23,1.23,0,0,0,1178.38,257.66Z" transform="translate(-1158.61 -244.54)" style="fill:#848a9a"/><path d="M1178.18,264.51a1.42,1.42,0,0,0-1.31,1.44,1.25,1.25,0,0,0,1.44,1.13,1.42,1.42,0,0,0,1.28-1.41A1.24,1.24,0,0,0,1178.18,264.51Z" transform="translate(-1158.61 -244.54)" style="fill:#848a9a"/><path d="M1205.25,261.94a1.27,1.27,0,0,0-1.18,1.3,1.12,1.12,0,0,0,1.29,1,1.28,1.28,0,0,0,1.15-1.27A1.12,1.12,0,0,0,1205.25,261.94Z" transform="translate(-1158.61 -244.54)" style="fill:#848a9a"/><path d="M1176.17,278a1.51,1.51,0,0,0-1.27,1.41,1,1,0,0,0,1.31.9,1.51,1.51,0,0,0,1.24-1.38A1,1,0,0,0,1176.17,278Z" transform="translate(-1158.61 -244.54)" style="fill:#848a9a"/><path d="M1174.67,284.33a1.37,1.37,0,0,0-1.2,1.41,1.22,1.22,0,0,0,1.56.83,1.37,1.37,0,0,0,1.18-1.41A1.21,1.21,0,0,0,1174.67,284.33Z" transform="translate(-1158.61 -244.54)" style="fill:#848a9a"/><path d="M1195.66,265.09l-9.33,1.07a1.06,1.06,0,0,1-1.2-1.08h0a1.39,1.39,0,0,1,1.22-1.35l9.48-.9a0.88,0.88,0,0,1,.93,1h0A1.36,1.36,0,0,1,1195.66,265.09Z" transform="translate(-1158.61 -244.54)" style="fill:#848a9a"/><path d="M1189.52,277.68l-9.41,1.84a0.93,0.93,0,0,1-1.21-.89h0a1.49,1.49,0,0,1,1.23-1.37l9.55-1.71a0.77,0.77,0,0,1,.95.88h0A1.47,1.47,0,0,1,1189.52,277.68Z" transform="translate(-1158.61 -244.54)" style="fill:#848a9a"/><path d="M1184.13,293.77l8.74-2.23a0.86,0.86,0,0,1,1.2.59h0a1.3,1.3,0,0,1-1.07,1.19l-8.92,2.22a0.72,0.72,0,0,1-1-.63h0A1.42,1.42,0,0,1,1184.13,293.77Z" transform="translate(-1158.61 -244.54)" style="fill:#848a9a"/><path d="M1198.25,287l-7,1.66a0.8,0.8,0,0,1-1-.73h0a1.28,1.28,0,0,1,1-1.26l7.32-1.71a0.64,0.64,0,0,1,.81.81h0A1.6,1.6,0,0,1,1198.25,287Z" transform="translate(-1158.61 -244.54)" style="fill:#848a9a"/><path d="M1182.39,264.11a1.4,1.4,0,0,0-1.26,1.4,1.14,1.14,0,0,0,1.31,1.1,1.41,1.41,0,0,0,1.24-1.37A1.14,1.14,0,0,0,1182.39,264.11Z" transform="translate(-1158.61 -244.54)" style="fill:#848a9a"/><path d="M1196.52,270.73l-7,1.07a0.71,0.71,0,0,1-.77-0.9h0a1.35,1.35,0,0,1,1-1.17l7-1c0.43-.06.69,0.33,0.59,0.87h0A1.33,1.33,0,0,1,1196.52,270.73Z" transform="translate(-1158.61 -244.54)" style="fill:#848a9a"/><path d="M1186.92,270.13a1.36,1.36,0,0,0-1.05,1.2,0.75,0.75,0,0,0,.83.91,1.36,1.36,0,0,0,1-1.18A0.75,0.75,0,0,0,1186.92,270.13Z" transform="translate(-1158.61 -244.54)" style="fill:#848a9a"/><path d="M1192.92,275a1.45,1.45,0,0,0-1.1,1.23,0.72,0.72,0,0,0,.89.85,1.46,1.46,0,0,0,1.08-1.22A0.73,0.73,0,0,0,1192.92,275Z" transform="translate(-1158.61 -244.54)" style="fill:#848a9a"/><path d="M1201.2,273.6a1.3,1.3,0,0,0-1,1.11,0.65,0.65,0,0,0,.78.77,1.31,1.31,0,0,0,1-1.1A0.65,0.65,0,0,0,1201.2,273.6Z" transform="translate(-1158.61 -244.54)" style="fill:#848a9a"/><path d="M1196.87,292.36a1.25,1.25,0,0,0,1.06-1.19,0.93,0.93,0,0,0-1.27-.59,1.26,1.26,0,0,0-1,1.17A0.92,0.92,0,0,0,1196.87,292.36Z" transform="translate(-1158.61 -244.54)" style="fill:#848a9a"/><path d="M1198.43,279.47a1.07,1.07,0,0,0-.86,1.16,0.91,0.91,0,0,0,1.13.74,1.07,1.07,0,0,0,.84-1.16A0.91,0.91,0,0,0,1198.43,279.47Z" transform="translate(-1158.61 -244.54)" style="fill:#848a9a"/><path d="M1202.14,278.84a1,1,0,0,0-.81,1.1,0.86,0.86,0,0,0,1.07.7,1,1,0,0,0,.8-1.1A0.86,0.86,0,0,0,1202.14,278.84Z" transform="translate(-1158.61 -244.54)" style="fill:#848a9a"/><path d="M1180.73,296.38a1.45,1.45,0,0,0,1.11-1.16,0.68,0.68,0,0,0-1-.61,1.46,1.46,0,0,0-1.1,1.14A0.68,0.68,0,0,0,1180.73,296.38Z" transform="translate(-1158.61 -244.54)" style="fill:#848a9a"/><path d="M1187.76,287.53a1.17,1.17,0,0,0-.9,1.25,0.89,0.89,0,0,0,1.14.72,1.18,1.18,0,0,0,.9-1.2A0.89,0.89,0,0,0,1187.76,287.53Z" transform="translate(-1158.61 -244.54)" style="fill:#848a9a"/><path d="M1201.38,284.21a1.3,1.3,0,0,0-1,1.2,0.74,0.74,0,0,0,1,.69,1.31,1.31,0,0,0,1-1.15A0.73,0.73,0,0,0,1201.38,284.21Z" transform="translate(-1158.61 -244.54)" style="fill:#848a9a"/><path d="M1201.1,264.47l-2.31.26a0.82,0.82,0,0,1-.87-1h0a1.34,1.34,0,0,1,1.09-1.22l2.34-.22a0.79,0.79,0,0,1,.8,1h0A1.34,1.34,0,0,1,1201.1,264.47Z" transform="translate(-1158.61 -244.54)" style="fill:#848a9a"/><path d="M1197.94,276l-2.23.44a0.68,0.68,0,0,1-.82-0.83h0a1.44,1.44,0,0,1,1.07-1.2l2.26-.4a0.66,0.66,0,0,1,.76.84h0A1.44,1.44,0,0,1,1197.94,276Z" transform="translate(-1158.61 -244.54)" style="fill:#848a9a"/><path d="M1200.6,289.57l2.89-.74a1.07,1.07,0,0,1,1.4.58h0a1.18,1.18,0,0,1-1,1.21l-3,.74a1,1,0,0,1-1.33-.6h0A1.22,1.22,0,0,1,1200.6,289.57Z" transform="translate(-1158.61 -244.54)" style="fill:#848a9a"/></svg>