<svg id="Layer_2" data-name="Layer 2" xmlns="http://www.w3.org/2000/svg" viewBox="0 0 88.79 87.07"><title>get-help</title><ellipse cx="23.01" cy="80.28" rx="21.51" ry="5.28" style="fill:#a1d8f1"/><path d="M1039.67,315.77c-8.55,0-23-1.43-23-6.78s14.47-6.78,23-6.78,23,1.43,23,6.78S1048.22,315.77,1039.67,315.77Zm0-10.57c-12.34,0-19.59,2.49-20,3.82,0.43,1.26,7.68,3.75,20,3.75s19.46-2.44,20-3.78C1059.12,307.65,1051.89,305.2,1039.67,305.2Zm20,3.82h0Z" transform="translate(-1016.65 -228.7)" style="fill:#a1d8f1"/><path d="M1030.62,307.67c3.22,0,6.05,2.58,9.27,2.58h0c6.87,0,9.9-1.74,10.93-3.21-1.38-7.47-1.15-18.91,2.08-22.86,4-4.92.27-22-12.72-15.5-2.05,7.7-8.44,24.58-12.1,39h2.55Z" transform="translate(-1016.65 -228.7)" style="fill:#d59371"/><path d="M1039.84,310.25c-0.17-3.68-.69-11.67.57-15a5.67,5.67,0,0,1,2.19-3.08,6.57,6.57,0,0,1,2.77-.41,8.29,8.29,0,0,0,5.35-2.69,12.44,12.44,0,0,1,2.21-5.08c4-5,.28-22.17-12.81-15.6-2.07,7.75-8.5,24.74-12.18,39.25C1027.94,307.65,1029,310.25,1039.84,310.25Z" transform="translate(-1016.65 -228.7)" style="fill:#d59371"/><path d="M1057.19,262.41c0.17-8.79.25-13-1.66-19.94-2.19-7.88-3.31-7.26-5.53-6.4s-2.15.65-.87,4.85c3,9.88,3,20.86,1.81,20.86s0.56-12-5.69-23.21c-1.58-2.82-2.33-2.32-3.16-2a46.69,46.69,0,0,0-7.55,4.73,6.19,6.19,0,0,0-.23,5.54c3.4,7.77,6.18,18.86,5.12,18.94s-2.53-5.21-3.79-9.46-2.51-6.53-3.92-5.46-0.87,2.58.32,6.6c1.36,4.6.93,10.23,1.15,16.38s-0.5,9.73,5.85,13.63,19.06-1.13,21.85-7.74,7.39-17.6,8-19-0.43-2.18-2.33-1.44-3.26,2.54-4.95,5.32-1.6,3.77-2.83,4.11S1057.07,268.61,1057.19,262.41Z" transform="translate(-1016.65 -228.7)" style="fill:#efb087"/><path d="M1039.36,265.54a1.65,1.65,0,0,1-1-1.14h0c1.52,4.13,4.65,3.73,2.52-7.2s-6.42-16.31-4.61-17.65h0a12.31,12.31,0,0,0-1.81,1.35,6.23,6.23,0,0,0-.24,5.58C1037.62,254.3,1040.42,265.46,1039.36,265.54Z" transform="translate(-1016.65 -228.7)" style="fill:#d59371"/><path d="M1033.07,273.66c0.21,6.19-.51,9.79,5.89,13.72a10,10,0,0,0,4.53,1.33c-7.28-1.7-8.79-14.35-8-19.39s-1.07-10.06-2.43-13.48-0.12-5.29-.12-5.29a1,1,0,0,0-1.38,0c-1.42,1.08-.87,2.59.33,6.64C1033.29,261.81,1032.86,267.47,1033.07,273.66Z" transform="translate(-1016.65 -228.7)" style="fill:#d59371"/><path d="M1035.57,316.54" transform="translate(-1016.65 -228.7)" style="fill:#9cb490"/><path d="M1103.75,239.45a17.82,17.82,0,1,0-29.1,19.47,32.79,32.79,0,0,0,2.85,3.07,16.62,16.62,0,0,1-5.68,4.4,0.42,0.42,0,0,0,.09.77c3.54,0.87,8.34-.09,10.8-2,6.44,2.81,14.88,2.1,19.2-3.43,2.2-2.82,3.06-6.46,3.39-10A25,25,0,0,0,1103.75,239.45Z" transform="translate(-1016.65 -228.7)" style="fill:#d55159"/><g id="Octicons"><g id="issue-opened"><path id="Shape" d="M1091.48,241.29v8a0.57,0.57,0,0,0,.57.57h2.51a0.57,0.57,0,0,0,.57-0.57v-8a0.57,0.57,0,0,0-.57-0.57H1092A0.57,0.57,0,0,0,1091.48,241.29Zm0,11v2.51a0.57,0.57,0,0,0,.57.57h2.51a0.57,0.57,0,0,0,.57-0.57v-2.51a0.57,0.57,0,0,0-.57-0.57H1092A0.57,0.57,0,0,0,1091.48,252.27Z" transform="translate(-1016.65 -228.7)" style="fill:#fff"/></g></g><g id="Octicons-2" data-name="Octicons"><g id="unverified"><path id="Shape-2" data-name="Shape" d="M1086.11,254.44a0.91,0.91,0,0,1-.91.91h-1.83a0.92,0.92,0,0,1-.91-0.91v-1.83a0.92,0.92,0,0,1,.91-0.91h1.83a0.91,0.91,0,0,1,.91.91v1.83h0Zm1.19-7.3a3,3,0,0,0-1.19,2.19,0.58,0.58,0,0,1-.57.54h-2.48a0.58,0.58,0,0,1-.57-0.62,2.75,2.75,0,0,1,1.5-2.67c2.72-1.55,2.1-3.41.39-3.41a2,2,0,0,0-1.81.85,0.6,0.6,0,0,1-.54.39h-2.31a0.58,0.58,0,0,1-.57-0.67c0.43-2.44,3-3,5.27-3,4.07,0,4.72,2.41,4.72,3.64A2.64,2.64,0,0,1,1087.31,247.14Z" transform="translate(-1016.65 -228.7)" style="fill:#fff"/></g></g><path d="M1048.7,284.28c-1.2-4.71,2.59-12.06,4.87-15.89a0.7,0.7,0,0,0-.95-1c-3,1.71-8.16,4.19-12.22,3.94a0.7,0.7,0,0,0-.77.67c-0.09,3.1.13,14.71,8.54,13.07A0.68,0.68,0,0,0,1048.7,284.28Z" transform="translate(-1016.65 -228.7)" style="fill:#d59371"/></svg>