<svg id="Layer_2" data-name="Layer 2" xmlns="http://www.w3.org/2000/svg" viewBox="0 0 60.63 62.58"><title>improve-technology</title><rect x="3.57" width="53.49" height="37.89" rx="1.76" ry="1.76" style="fill:#353a40"/><path d="M0.07,58.63H60.56a0,0,0,0,1,0,0v2.19a1.76,1.76,0,0,1-1.76,1.76h-57A1.76,1.76,0,0,1,.07,60.82V58.63A0,0,0,0,1,.07,58.63Z" style="fill:#ced5db"/><path d="M1499.83,161h-57.12A1.76,1.76,0,0,1,1441,159l3.29-18.71a1.76,1.76,0,0,1,1.73-1.45h50.54a1.76,1.76,0,0,1,1.73,1.45l3.29,18.71A1.76,1.76,0,0,1,1499.83,161Z" transform="translate(-1440.96 -100.01)" style="fill:#f9fcfe"/><path d="M1497.75,153.22H1444.8a1.16,1.16,0,0,1-1.15-1.34l1.72-11a1.16,1.16,0,0,1,1.15-1H1496a1.16,1.16,0,0,1,1.15,1l1.72,11A1.16,1.16,0,0,1,1497.75,153.22Z" transform="translate(-1440.96 -100.01)" style="fill:#ced5db"/><path d="M1480.31,159.82h-18.08a0.67,0.67,0,0,1-.66-0.76l0.55-4.05a0.67,0.67,0,0,1,.66-0.58h17a0.67,0.67,0,0,1,.66.58l0.55,4.05A0.67,0.67,0,0,1,1480.31,159.82Z" transform="translate(-1440.96 -100.01)" style="fill:#ced5db"/><rect x="5.72" y="2.47" width="49.19" height="32.96" style="fill:#f2f2f5"/><path d="M1448.45,141.29h-2a0.12,0.12,0,0,1-.12-0.15l0.09-.51a0.18,0.18,0,0,1,.17-0.14h2a0.12,0.12,0,0,1,.12.14l-0.08.51A0.18,0.18,0,0,1,1448.45,141.29Z" transform="translate(-1440.96 -100.01)" style="fill:#abb4bb"/><path d="M1451.43,141.29h-2a0.12,0.12,0,0,1-.12-0.15l0.08-.51a0.18,0.18,0,0,1,.17-0.14h2a0.12,0.12,0,0,1,.12.14l-0.07.51A0.17,0.17,0,0,1,1451.43,141.29Z" transform="translate(-1440.96 -100.01)" style="fill:#abb4bb"/><path d="M1454.41,141.29h-2a0.12,0.12,0,0,1-.12-0.15l0.07-.51a0.17,0.17,0,0,1,.16-0.14h2a0.13,0.13,0,0,1,.13.14l-0.06.51A0.17,0.17,0,0,1,1454.41,141.29Z" transform="translate(-1440.96 -100.01)" style="fill:#abb4bb"/><path d="M1457.39,141.29h-2a0.13,0.13,0,0,1-.13-0.15l0.06-.51a0.17,0.17,0,0,1,.16-0.14h2a0.13,0.13,0,0,1,.13.14l-0.05.51A0.16,0.16,0,0,1,1457.39,141.29Z" transform="translate(-1440.96 -100.01)" style="fill:#abb4bb"/><path d="M1460.36,141.29h-2a0.13,0.13,0,0,1-.13-0.15l0-.51a0.16,0.16,0,0,1,.16-0.14h2a0.13,0.13,0,0,1,.13.14l0,0.51A0.16,0.16,0,0,1,1460.36,141.29Z" transform="translate(-1440.96 -100.01)" style="fill:#abb4bb"/><path d="M1463.34,141.29h-2a0.13,0.13,0,0,1-.13-0.15l0-.51a0.16,0.16,0,0,1,.15-0.14h2a0.14,0.14,0,0,1,.14.14l0,0.51A0.16,0.16,0,0,1,1463.34,141.29Z" transform="translate(-1440.96 -100.01)" style="fill:#abb4bb"/><path d="M1466.32,141.29h-2a0.14,0.14,0,0,1-.14-0.15l0-.51a0.15,0.15,0,0,1,.15-0.14h2a0.14,0.14,0,0,1,.14.14l0,0.51A0.15,0.15,0,0,1,1466.32,141.29Z" transform="translate(-1440.96 -100.01)" style="fill:#abb4bb"/><path d="M1469.29,141.29h-2a0.14,0.14,0,0,1-.14-0.15l0-.51a0.15,0.15,0,0,1,.15-0.14h2a0.14,0.14,0,0,1,.14.14v0.51A0.15,0.15,0,0,1,1469.29,141.29Z" transform="translate(-1440.96 -100.01)" style="fill:#abb4bb"/><path d="M1472.27,141.29h-2a0.14,0.14,0,0,1-.14-0.15v-0.51a0.15,0.15,0,0,1,.15-0.14h2a0.15,0.15,0,0,1,.15.14v0.51A0.14,0.14,0,0,1,1472.27,141.29Z" transform="translate(-1440.96 -100.01)" style="fill:#abb4bb"/><path d="M1475.25,141.29h-2a0.15,0.15,0,0,1-.15-0.15v-0.51a0.14,0.14,0,0,1,.14-0.14h2a0.15,0.15,0,0,1,.15.14v0.51A0.14,0.14,0,0,1,1475.25,141.29Z" transform="translate(-1440.96 -100.01)" style="fill:#abb4bb"/><path d="M1478.23,141.29h-2a0.15,0.15,0,0,1-.15-0.15l0-.51a0.14,0.14,0,0,1,.14-0.14h2a0.15,0.15,0,0,1,.15.14l0,0.51A0.14,0.14,0,0,1,1478.23,141.29Z" transform="translate(-1440.96 -100.01)" style="fill:#abb4bb"/><path d="M1481.2,141.29h-2a0.16,0.16,0,0,1-.15-0.15l0-.51a0.14,0.14,0,0,1,.14-0.14h2a0.16,0.16,0,0,1,.15.14l0,0.51A0.13,0.13,0,0,1,1481.2,141.29Z" transform="translate(-1440.96 -100.01)" style="fill:#abb4bb"/><path d="M1484.18,141.29h-2a0.16,0.16,0,0,1-.16-0.15l0-.51a0.13,0.13,0,0,1,.13-0.14h2a0.16,0.16,0,0,1,.16.14l0,0.51A0.13,0.13,0,0,1,1484.18,141.29Z" transform="translate(-1440.96 -100.01)" style="fill:#abb4bb"/><path d="M1487.16,141.29h-2a0.16,0.16,0,0,1-.16-0.15l-0.05-.51a0.13,0.13,0,0,1,.13-0.14h2a0.17,0.17,0,0,1,.16.14l0.06,0.51A0.13,0.13,0,0,1,1487.16,141.29Z" transform="translate(-1440.96 -100.01)" style="fill:#abb4bb"/><path d="M1490.13,141.29h-2a0.17,0.17,0,0,1-.16-0.15l-0.06-.51a0.13,0.13,0,0,1,.13-0.14h2a0.17,0.17,0,0,1,.16.14l0.07,0.51A0.12,0.12,0,0,1,1490.13,141.29Z" transform="translate(-1440.96 -100.01)" style="fill:#abb4bb"/><path d="M1493.11,141.29h-2a0.17,0.17,0,0,1-.17-0.15l-0.07-.51a0.12,0.12,0,0,1,.12-0.14h2a0.18,0.18,0,0,1,.17.14l0.08,0.51A0.12,0.12,0,0,1,1493.11,141.29Z" transform="translate(-1440.96 -100.01)" style="fill:#abb4bb"/><path d="M1496.09,141.29h-2a0.18,0.18,0,0,1-.17-0.15l-0.08-.51a0.12,0.12,0,0,1,.12-0.14h2a0.18,0.18,0,0,1,.17.14l0.09,0.51A0.12,0.12,0,0,1,1496.09,141.29Z" transform="translate(-1440.96 -100.01)" style="fill:#abb4bb"/><path d="M1448.45,143.29h-2.32a0.12,0.12,0,0,1-.12-0.15l0.21-1.18a0.18,0.18,0,0,1,.17-0.15h2.29a0.12,0.12,0,0,1,.12.15l-0.19,1.18A0.18,0.18,0,0,1,1448.45,143.29Z" transform="translate(-1440.96 -100.01)" style="fill:#abb4bb"/><path d="M1452,143.29h-2.32a0.12,0.12,0,0,1-.12-0.15l0.18-1.18a0.18,0.18,0,0,1,.17-0.15h2.29a0.13,0.13,0,0,1,.13.15l-0.16,1.18A0.18,0.18,0,0,1,1452,143.29Z" transform="translate(-1440.96 -100.01)" style="fill:#abb4bb"/><path d="M1455.47,143.29h-2.32a0.13,0.13,0,0,1-.13-0.15l0.15-1.18a0.17,0.17,0,0,1,.16-0.15h2.29a0.13,0.13,0,0,1,.13.15l-0.13,1.18A0.17,0.17,0,0,1,1455.47,143.29Z" transform="translate(-1440.96 -100.01)" style="fill:#abb4bb"/><path d="M1457.63,145.51h-2.35a0.13,0.13,0,0,1-.13-0.16l0.14-1.21a0.17,0.17,0,0,1,.16-0.15h2.33a0.13,0.13,0,0,1,.13.15l-0.11,1.21A0.17,0.17,0,0,1,1457.63,145.51Z" transform="translate(-1440.96 -100.01)" style="fill:#abb4bb"/><path d="M1459,143.29h-2.32a0.13,0.13,0,0,1-.13-0.15l0.12-1.18a0.17,0.17,0,0,1,.16-0.15h2.29a0.13,0.13,0,0,1,.13.15l-0.1,1.18A0.17,0.17,0,0,1,1459,143.29Z" transform="translate(-1440.96 -100.01)" style="fill:#abb4bb"/><path d="M1462.49,143.29h-2.32a0.14,0.14,0,0,1-.13-0.15l0.09-1.18a0.16,0.16,0,0,1,.16-0.15h2.29a0.14,0.14,0,0,1,.14.15l-0.07,1.18A0.16,0.16,0,0,1,1462.49,143.29Z" transform="translate(-1440.96 -100.01)" style="fill:#abb4bb"/><path d="M1466,143.29h-2.32a0.14,0.14,0,0,1-.14-0.15l0.06-1.18a0.16,0.16,0,0,1,.15-0.15h2.29a0.14,0.14,0,0,1,.14.15l0,1.18A0.16,0.16,0,0,1,1466,143.29Z" transform="translate(-1440.96 -100.01)" style="fill:#abb4bb"/><path d="M1469.51,143.29h-2.32a0.14,0.14,0,0,1-.14-0.15l0-1.18a0.15,0.15,0,0,1,.15-0.15h2.29a0.14,0.14,0,0,1,.14.15v1.18A0.15,0.15,0,0,1,1469.51,143.29Z" transform="translate(-1440.96 -100.01)" style="fill:#abb4bb"/><path d="M1473,143.29h-2.32a0.15,0.15,0,0,1-.15-0.15V142a0.15,0.15,0,0,1,.15-0.15H1473a0.15,0.15,0,0,1,.15.15l0,1.18A0.15,0.15,0,0,1,1473,143.29Z" transform="translate(-1440.96 -100.01)" style="fill:#abb4bb"/><path d="M1476.53,143.29h-2.32a0.15,0.15,0,0,1-.15-0.15l0-1.18a0.14,0.14,0,0,1,.14-0.15h2.29a0.15,0.15,0,0,1,.15.15l0,1.18A0.14,0.14,0,0,1,1476.53,143.29Z" transform="translate(-1440.96 -100.01)" style="fill:#abb4bb"/><path d="M1480,143.29h-2.32a0.16,0.16,0,0,1-.15-0.15l-0.05-1.18a0.14,0.14,0,0,1,.14-0.15h2.29a0.16,0.16,0,0,1,.15.15l0.07,1.18A0.14,0.14,0,0,1,1480,143.29Z" transform="translate(-1440.96 -100.01)" style="fill:#abb4bb"/><path d="M1483.55,143.29h-2.32a0.16,0.16,0,0,1-.16-0.15L1481,142a0.14,0.14,0,0,1,.14-0.15h2.29a0.16,0.16,0,0,1,.16.15l0.1,1.18A0.13,0.13,0,0,1,1483.55,143.29Z" transform="translate(-1440.96 -100.01)" style="fill:#abb4bb"/><path d="M1487.06,143.29h-2.32a0.17,0.17,0,0,1-.16-0.15l-0.11-1.18a0.13,0.13,0,0,1,.13-0.15h2.29a0.17,0.17,0,0,1,.16.15l0.13,1.18A0.13,0.13,0,0,1,1487.06,143.29Z" transform="translate(-1440.96 -100.01)" style="fill:#abb4bb"/><path d="M1490.57,143.29h-2.32a0.17,0.17,0,0,1-.16-0.15l-0.14-1.18a0.13,0.13,0,0,1,.13-0.15h2.29a0.17,0.17,0,0,1,.17.15l0.16,1.18A0.13,0.13,0,0,1,1490.57,143.29Z" transform="translate(-1440.96 -100.01)" style="fill:#abb4bb"/><path d="M1496.44,143.29h-4.68a0.18,0.18,0,0,1-.17-0.15l-0.17-1.18a0.12,0.12,0,0,1,.12-0.15h4.64a0.18,0.18,0,0,1,.17.15l0.21,1.18A0.12,0.12,0,0,1,1496.44,143.29Z" transform="translate(-1440.96 -100.01)" style="fill:#abb4bb"/><path d="M1450.62,145.51h-4.76a0.12,0.12,0,0,1-.12-0.16l0.22-1.21a0.19,0.19,0,0,1,.17-0.15h4.71a0.13,0.13,0,0,1,.13.15l-0.17,1.21A0.18,0.18,0,0,1,1450.62,145.51Z" transform="translate(-1440.96 -100.01)" style="fill:#abb4bb"/><path d="M1451.27,147.75h-5.8a0.13,0.13,0,0,1-.12-0.16l0.22-1.25a0.19,0.19,0,0,1,.18-0.16h5.74a0.13,0.13,0,0,1,.13.16l-0.17,1.25A0.18,0.18,0,0,1,1451.27,147.75Z" transform="translate(-1440.96 -100.01)" style="fill:#abb4bb"/><path d="M1453,150.05h-7.93a0.13,0.13,0,0,1-.12-0.17l0.23-1.29a0.2,0.2,0,0,1,.18-0.16h7.85a0.14,0.14,0,0,1,.13.16l-0.16,1.29A0.19,0.19,0,0,1,1453,150.05Z" transform="translate(-1440.96 -100.01)" style="fill:#abb4bb"/><path d="M1454.06,145.51h-2.35a0.13,0.13,0,0,1-.13-0.16l0.17-1.21a0.18,0.18,0,0,1,.17-0.15h2.33a0.13,0.13,0,0,1,.13.15l-0.14,1.21A0.18,0.18,0,0,1,1454.06,145.51Z" transform="translate(-1440.96 -100.01)" style="fill:#abb4bb"/><path d="M1455,147.75h-2.39a0.13,0.13,0,0,1-.13-0.16l0.16-1.25a0.18,0.18,0,0,1,.17-0.16h2.37a0.13,0.13,0,0,1,.13.16l-0.14,1.25A0.18,0.18,0,0,1,1455,147.75Z" transform="translate(-1440.96 -100.01)" style="fill:#abb4bb"/><path d="M1458.59,147.75h-2.39a0.14,0.14,0,0,1-.13-0.16l0.13-1.25a0.17,0.17,0,0,1,.17-0.16h2.37a0.14,0.14,0,0,1,.14.16l-0.11,1.25A0.17,0.17,0,0,1,1458.59,147.75Z" transform="translate(-1440.96 -100.01)" style="fill:#abb4bb"/><path d="M1456.51,150.05h-2.43a0.14,0.14,0,0,1-.13-0.17l0.15-1.29a0.18,0.18,0,0,1,.17-0.16h2.4a0.14,0.14,0,0,1,.14.16l-0.13,1.29A0.18,0.18,0,0,1,1456.51,150.05Z" transform="translate(-1440.96 -100.01)" style="fill:#abb4bb"/><path d="M1447.09,152.57h-2.47a0.13,0.13,0,0,1-.13-0.17l0.24-1.33a0.2,0.2,0,0,1,.18-0.17h2.44a0.13,0.13,0,0,1,.13.17l-0.21,1.33A0.2,0.2,0,0,1,1447.09,152.57Z" transform="translate(-1440.96 -100.01)" style="fill:#abb4bb"/><path d="M1450.7,152.57h-2.47a0.14,0.14,0,0,1-.13-0.17l0.21-1.33a0.2,0.2,0,0,1,.18-0.17h2.44a0.14,0.14,0,0,1,.13.17l-0.18,1.33A0.19,0.19,0,0,1,1450.7,152.57Z" transform="translate(-1440.96 -100.01)" style="fill:#abb4bb"/><path d="M1454.3,152.57h-2.47a0.14,0.14,0,0,1-.13-0.17l0.17-1.33a0.19,0.19,0,0,1,.18-0.17h2.44a0.14,0.14,0,0,1,.14.17l-0.15,1.33A0.19,0.19,0,0,1,1454.3,152.57Z" transform="translate(-1440.96 -100.01)" style="fill:#abb4bb"/><path d="M1487.58,152.57h-2.47a0.18,0.18,0,0,1-.17-0.17l-0.12-1.33a0.15,0.15,0,0,1,.14-0.17h2.44a0.18,0.18,0,0,1,.17.17l0.15,1.33A0.14,0.14,0,0,1,1487.58,152.57Z" transform="translate(-1440.96 -100.01)" style="fill:#abb4bb"/><path d="M1491.31,152.57h-2.47a0.19,0.19,0,0,1-.18-0.17l0-.42a0.14,0.14,0,0,1,.14-0.17h2.46a0.19,0.19,0,0,1,.18.17l0.06,0.42A0.14,0.14,0,0,1,1491.31,152.57Z" transform="translate(-1440.96 -100.01)" style="fill:#abb4bb"/><path d="M1494.7,152.57h-2.47a0.19,0.19,0,0,1-.18-0.17L1492,152a0.14,0.14,0,0,1,.13-0.17h2.46a0.2,0.2,0,0,1,.18.17l0.07,0.42A0.14,0.14,0,0,1,1494.7,152.57Z" transform="translate(-1440.96 -100.01)" style="fill:#abb4bb"/><path d="M1494.55,151.65h-2.45a0.19,0.19,0,0,1-.18-0.17l-0.06-.41a0.14,0.14,0,0,1,.13-0.17h2.44a0.2,0.2,0,0,1,.18.17l0.06,0.41A0.14,0.14,0,0,1,1494.55,151.65Z" transform="translate(-1440.96 -100.01)" style="fill:#abb4bb"/><path d="M1498.09,152.57h-2.47a0.2,0.2,0,0,1-.18-0.17l-0.07-.42a0.14,0.14,0,0,1,.13-0.17H1498a0.2,0.2,0,0,1,.19.17l0.07,0.42A0.13,0.13,0,0,1,1498.09,152.57Z" transform="translate(-1440.96 -100.01)" style="fill:#abb4bb"/><path d="M1458.43,152.57h-3a0.15,0.15,0,0,1-.14-0.17l0.14-1.33a0.18,0.18,0,0,1,.17-0.17h3a0.15,0.15,0,0,1,.14.17l-0.11,1.33A0.18,0.18,0,0,1,1458.43,152.57Z" transform="translate(-1440.96 -100.01)" style="fill:#abb4bb"/><path d="M1484,152.57h-3a0.18,0.18,0,0,1-.17-0.17l-0.08-1.33a0.15,0.15,0,0,1,.14-0.17h3a0.18,0.18,0,0,1,.17.17l0.11,1.33A0.15,0.15,0,0,1,1484,152.57Z" transform="translate(-1440.96 -100.01)" style="fill:#abb4bb"/><path d="M1480,152.57h-20.56a0.15,0.15,0,0,1-.14-0.17l0.11-1.33a0.18,0.18,0,0,1,.17-0.17h20.33a0.17,0.17,0,0,1,.16.17l0.08,1.33A0.15,0.15,0,0,1,1480,152.57Z" transform="translate(-1440.96 -100.01)" style="fill:#abb4bb"/><path d="M1459.89,150.05h-2.43a0.14,0.14,0,0,1-.14-0.17l0.12-1.29a0.18,0.18,0,0,1,.17-0.16h2.4a0.14,0.14,0,0,1,.14.16l-0.1,1.29A0.18,0.18,0,0,1,1459.89,150.05Z" transform="translate(-1440.96 -100.01)" style="fill:#abb4bb"/><path d="M1463.26,150.05h-2.43a0.15,0.15,0,0,1-.14-0.17l0.09-1.29a0.17,0.17,0,0,1,.16-0.16h2.4a0.15,0.15,0,0,1,.14.16l-0.07,1.29A0.17,0.17,0,0,1,1463.26,150.05Z" transform="translate(-1440.96 -100.01)" style="fill:#abb4bb"/><path d="M1466.64,150.05h-2.43a0.15,0.15,0,0,1-.15-0.17l0.06-1.29a0.17,0.17,0,0,1,.16-0.16h2.4a0.15,0.15,0,0,1,.15.16l0,1.29A0.17,0.17,0,0,1,1466.64,150.05Z" transform="translate(-1440.96 -100.01)" style="fill:#abb4bb"/><path d="M1470,150.05h-2.43a0.15,0.15,0,0,1-.15-0.17l0-1.29a0.16,0.16,0,0,1,.16-0.16h2.4a0.16,0.16,0,0,1,.15.16v1.29A0.16,0.16,0,0,1,1470,150.05Z" transform="translate(-1440.96 -100.01)" style="fill:#abb4bb"/><path d="M1473.39,150.05H1471a0.16,0.16,0,0,1-.15-0.17V148.6a0.16,0.16,0,0,1,.15-0.16h2.4a0.16,0.16,0,0,1,.15.16l0,1.29A0.16,0.16,0,0,1,1473.39,150.05Z" transform="translate(-1440.96 -100.01)" style="fill:#abb4bb"/><path d="M1476.77,150.05h-2.43a0.16,0.16,0,0,1-.16-0.17l0-1.29a0.15,0.15,0,0,1,.15-0.16h2.4a0.16,0.16,0,0,1,.16.16l0,1.29A0.15,0.15,0,0,1,1476.77,150.05Z" transform="translate(-1440.96 -100.01)" style="fill:#abb4bb"/><path d="M1480.15,150.05h-2.43a0.17,0.17,0,0,1-.16-0.17l-0.05-1.29a0.15,0.15,0,0,1,.15-0.16h2.4a0.17,0.17,0,0,1,.16.16l0.08,1.29A0.15,0.15,0,0,1,1480.15,150.05Z" transform="translate(-1440.96 -100.01)" style="fill:#abb4bb"/><path d="M1483.52,150.05h-2.43a0.17,0.17,0,0,1-.16-0.17l-0.08-1.29a0.15,0.15,0,0,1,.14-0.16h2.4a0.17,0.17,0,0,1,.17.16l0.11,1.29A0.14,0.14,0,0,1,1483.52,150.05Z" transform="translate(-1440.96 -100.01)" style="fill:#abb4bb"/><path d="M1486.9,150.05h-2.43a0.18,0.18,0,0,1-.17-0.17l-0.11-1.29a0.14,0.14,0,0,1,.14-0.16h2.4a0.18,0.18,0,0,1,.17.16l0.14,1.29A0.14,0.14,0,0,1,1486.9,150.05Z" transform="translate(-1440.96 -100.01)" style="fill:#abb4bb"/><path d="M1490.27,150.05h-2.43a0.18,0.18,0,0,1-.17-0.17l-0.14-1.29a0.14,0.14,0,0,1,.13-0.16h2.4a0.18,0.18,0,0,1,.17.16l0.17,1.29A0.14,0.14,0,0,1,1490.27,150.05Z" transform="translate(-1440.96 -100.01)" style="fill:#abb4bb"/><path d="M1497.64,150.05h-6.28a0.19,0.19,0,0,1-.18-0.17L1491,148.6a0.13,0.13,0,0,1,.13-0.16h6.21a0.2,0.2,0,0,1,.18.16l0.23,1.29A0.13,0.13,0,0,1,1497.64,150.05Z" transform="translate(-1440.96 -100.01)" style="fill:#abb4bb"/><path d="M1462.21,147.75h-2.39a0.14,0.14,0,0,1-.14-0.16l0.1-1.25a0.17,0.17,0,0,1,.16-0.16h2.37a0.14,0.14,0,0,1,.14.16l-0.08,1.25A0.17,0.17,0,0,1,1462.21,147.75Z" transform="translate(-1440.96 -100.01)" style="fill:#abb4bb"/><path d="M1465.83,147.75h-2.39a0.15,0.15,0,0,1-.14-0.16l0.07-1.25a0.16,0.16,0,0,1,.16-0.16h2.37a0.15,0.15,0,0,1,.14.16l0,1.25A0.16,0.16,0,0,1,1465.83,147.75Z" transform="translate(-1440.96 -100.01)" style="fill:#abb4bb"/><path d="M1469.45,147.75h-2.39a0.15,0.15,0,0,1-.15-0.16l0-1.25a0.16,0.16,0,0,1,.15-0.16h2.37a0.15,0.15,0,0,1,.15.16v1.25A0.16,0.16,0,0,1,1469.45,147.75Z" transform="translate(-1440.96 -100.01)" style="fill:#abb4bb"/><path d="M1473.07,147.75h-2.39a0.16,0.16,0,0,1-.15-0.16v-1.25a0.15,0.15,0,0,1,.15-0.16h2.37a0.16,0.16,0,0,1,.15.16l0,1.25A0.15,0.15,0,0,1,1473.07,147.75Z" transform="translate(-1440.96 -100.01)" style="fill:#abb4bb"/><path d="M1476.69,147.75h-2.39a0.16,0.16,0,0,1-.15-0.16l0-1.25a0.15,0.15,0,0,1,.15-0.16h2.37a0.16,0.16,0,0,1,.16.16l0,1.25A0.15,0.15,0,0,1,1476.69,147.75Z" transform="translate(-1440.96 -100.01)" style="fill:#abb4bb"/><path d="M1480.31,147.75h-2.39a0.16,0.16,0,0,1-.16-0.16l-0.06-1.25a0.15,0.15,0,0,1,.14-0.16h2.37a0.17,0.17,0,0,1,.16.16l0.08,1.25A0.14,0.14,0,0,1,1480.31,147.75Z" transform="translate(-1440.96 -100.01)" style="fill:#abb4bb"/><path d="M1483.93,147.75h-2.39a0.17,0.17,0,0,1-.16-0.16l-0.09-1.25a0.14,0.14,0,0,1,.14-0.16h2.37a0.17,0.17,0,0,1,.16.16l0.11,1.25A0.14,0.14,0,0,1,1483.93,147.75Z" transform="translate(-1440.96 -100.01)" style="fill:#abb4bb"/><path d="M1487.55,147.75h-2.39a0.18,0.18,0,0,1-.17-0.16l-0.12-1.25a0.14,0.14,0,0,1,.14-0.16h2.37a0.18,0.18,0,0,1,.17.16l0.14,1.25A0.14,0.14,0,0,1,1487.55,147.75Z" transform="translate(-1440.96 -100.01)" style="fill:#abb4bb"/><path d="M1491.17,147.75h-2.39a0.18,0.18,0,0,1-.17-0.16l-0.15-1.25a0.13,0.13,0,0,1,.13-0.16H1491a0.18,0.18,0,0,1,.17.16l0.17,1.25A0.13,0.13,0,0,1,1491.17,147.75Z" transform="translate(-1440.96 -100.01)" style="fill:#abb4bb"/><path d="M1497.23,147.75h-4.83a0.19,0.19,0,0,1-.17-0.16l-0.18-1.25a0.13,0.13,0,0,1,.13-0.16H1497a0.19,0.19,0,0,1,.18.16l0.22,1.25A0.13,0.13,0,0,1,1497.23,147.75Z" transform="translate(-1440.96 -100.01)" style="fill:#abb4bb"/><path d="M1461.19,145.51h-2.35a0.14,0.14,0,0,1-.14-0.16l0.11-1.21A0.17,0.17,0,0,1,1459,144h2.33a0.14,0.14,0,0,1,.14.15l-0.08,1.21A0.17,0.17,0,0,1,1461.19,145.51Z" transform="translate(-1440.96 -100.01)" style="fill:#abb4bb"/><path d="M1464.76,145.51h-2.35a0.14,0.14,0,0,1-.14-0.16l0.08-1.21a0.16,0.16,0,0,1,.16-0.15h2.33a0.14,0.14,0,0,1,.14.15l-0.05,1.21A0.16,0.16,0,0,1,1464.76,145.51Z" transform="translate(-1440.96 -100.01)" style="fill:#abb4bb"/><path d="M1468.32,145.51H1466a0.15,0.15,0,0,1-.14-0.16l0-1.21A0.16,0.16,0,0,1,1466,144h2.33a0.15,0.15,0,0,1,.14.15l0,1.21A0.16,0.16,0,0,1,1468.32,145.51Z" transform="translate(-1440.96 -100.01)" style="fill:#abb4bb"/><path d="M1471.89,145.51h-2.35a0.15,0.15,0,0,1-.15-0.16l0-1.21a0.15,0.15,0,0,1,.15-0.15h2.33a0.15,0.15,0,0,1,.15.15v1.21A0.15,0.15,0,0,1,1471.89,145.51Z" transform="translate(-1440.96 -100.01)" style="fill:#abb4bb"/><path d="M1475.45,145.51h-2.35a0.15,0.15,0,0,1-.15-0.16v-1.21a0.15,0.15,0,0,1,.15-0.15h2.33a0.16,0.16,0,0,1,.15.15l0,1.21A0.15,0.15,0,0,1,1475.45,145.51Z" transform="translate(-1440.96 -100.01)" style="fill:#abb4bb"/><path d="M1479,145.51h-2.35a0.16,0.16,0,0,1-.15-0.16l0-1.21a0.14,0.14,0,0,1,.14-0.15h2.33a0.16,0.16,0,0,1,.16.15l0.07,1.21A0.14,0.14,0,0,1,1479,145.51Z" transform="translate(-1440.96 -100.01)" style="fill:#abb4bb"/><path d="M1482.58,145.51h-2.35a0.16,0.16,0,0,1-.16-0.16l-0.07-1.21a0.14,0.14,0,0,1,.14-0.15h2.33a0.17,0.17,0,0,1,.16.15l0.1,1.21A0.14,0.14,0,0,1,1482.58,145.51Z" transform="translate(-1440.96 -100.01)" style="fill:#abb4bb"/><path d="M1486.14,145.51h-2.35a0.17,0.17,0,0,1-.16-0.16l-0.1-1.21a0.14,0.14,0,0,1,.13-0.15H1486a0.17,0.17,0,0,1,.16.15l0.13,1.21A0.13,0.13,0,0,1,1486.14,145.51Z" transform="translate(-1440.96 -100.01)" style="fill:#abb4bb"/><path d="M1489.71,145.51h-2.35a0.17,0.17,0,0,1-.17-0.16l-0.13-1.21a0.13,0.13,0,0,1,.13-0.15h2.33a0.18,0.18,0,0,1,.17.15l0.16,1.21A0.13,0.13,0,0,1,1489.71,145.51Z" transform="translate(-1440.96 -100.01)" style="fill:#abb4bb"/><path d="M1493.27,145.51h-2.35a0.18,0.18,0,0,1-.17-0.16l-0.16-1.21a0.13,0.13,0,0,1,.13-0.15H1493a0.18,0.18,0,0,1,.17.15l0.19,1.21A0.13,0.13,0,0,1,1493.27,145.51Z" transform="translate(-1440.96 -100.01)" style="fill:#abb4bb"/><path d="M1496.84,145.51h-2.35a0.19,0.19,0,0,1-.17-0.16l-0.19-1.21a0.12,0.12,0,0,1,.12-0.15h2.33a0.19,0.19,0,0,1,.17.15l0.22,1.21A0.12,0.12,0,0,1,1496.84,145.51Z" transform="translate(-1440.96 -100.01)" style="fill:#abb4bb"/><polygon points="41.41 8.94 48.33 8.94 48.33 15.86 41.41 8.94" style="fill:#d55159"/><path d="M1490.29,118.28l-10.34-10.34h10.34v10.34Zm-5.51-8.34,3.51,3.51v-3.51h-3.51Z" transform="translate(-1440.96 -100.01)" style="fill:#d55159"/><path d="M1457.65,135.3l-3.54-3.54,14.6-14.6a2.5,2.5,0,0,1,3.51,0l2.69,2.63,9.13-9.13,3.54,3.54L1476.72,125a2.5,2.5,0,0,1-3.51,0l-2.69-2.63Z" transform="translate(-1440.96 -100.01)" style="fill:#d55159"/><rect x="11.03" y="31.75" width="13.64" height="3.55" style="fill:#f2f2f5"/></svg>