<svg id="Layer_2" data-name="Layer 2" xmlns="http://www.w3.org/2000/svg" viewBox="0 0 64.41 65.37"><title>promote-work</title><path d="M1167.33,129.94s-7,3.71-7.78,4.55a1.93,1.93,0,0,0-.58,1.7s-2.19,1.21-1.78,6.18,5.69,6.28,5.69,6.28,1.21,1.3,2.24,1.2,6.78-1,6.78-1Z" transform="translate(-1157.13 -101.11)" style="fill:#d55159"/><path d="M1168.77,129.82c-1.75-.55-6.14,1.83-2.88,11.41s8,8.42,8.46,7.19" transform="translate(-1157.13 -101.11)" style="fill:#cb3843"/><path d="M1167,143.91c3.13,6.64,7,5.62,7.38,4.52l-1.41-4.71-2.78-2.09S1170.16,142.42,1167,143.91Z" transform="translate(-1157.13 -101.11)" style="fill:#f05a62"/><path d="M1167.63,130.34s23.26-10,26.42-22.7,12.87,17.73,12.87,17.73,13.41,28.39,2,21.95c-16.7-9.46-34.59,1.11-37.94-.8,0,0-2-1-3.85-5.67C1164.12,133.05,1167.63,130.34,1167.63,130.34Z" transform="translate(-1157.13 -101.11)" style="fill:#ebebeb"/><path d="M1169.8,145.48a4.5,4.5,0,0,0,1.21,1c3.35,1.91,21.24-8.66,37.94.8,6.54,3.71,4.88-4.11,2.3-11.42l-12.17-.9S1178.88,143.29,1169.8,145.48Z" transform="translate(-1157.13 -101.11)" style="fill:#c8c8c8"/><path d="M1195.63,129.76c4.93,12.67,13.83,21.48,20.12,19.61,6.57-1.95,7.79-14.7,2.46-28.4s-14.85-22.27-21-19.27C1191.3,104.58,1190.7,117.09,1195.63,129.76Z" transform="translate(-1157.13 -101.11)" style="fill:#d55159"/><ellipse cx="1207.67" cy="125.07" rx="10.06" ry="23.18" transform="translate(-1120.28 345.36) rotate(-21.26)" style="fill:#bb8b95"/><path d="M1182.3,152.88s2.78-.79,7.24,5.66c2.37,3.43,3.2,5.45,3.46,6.58a1.74,1.74,0,0,0,1.84,1.34,9.52,9.52,0,0,0,4.69-1.62c3-2.12,3.16-2.84,3.16-2.84s-6.43-8.53-8.71-11.4a65.72,65.72,0,0,1-4.15-6l-3.85,1.82Z" transform="translate(-1157.13 -101.11)" style="fill:#cb3843"/><path d="M1192.27,143.28l-1-.08s-0.69.15-2.82,0.38a6.17,6.17,0,0,1-3.9-1l-13.58,4a10.8,10.8,0,0,0,2.81,2s1.81-.18,1.9.06,3.4,4.59,3.94,4.78,2.08,0.29,2.65-.43a58.15,58.15,0,0,1,5-5c1.09-.83,2.63-1.36,2.65-2s1.06-.68,1.65-1.51A5,5,0,0,0,1192.27,143.28Z" transform="translate(-1157.13 -101.11)" style="fill:#f05a62"/><polygon points="34.22 44.44 33.28 45.1 33.21 45.73 35.82 49.34 37.06 48.46 37.51 46.1 35.3 45.76 34.22 44.44" style="fill:#d4b7c1"/><path d="M1208.34,125.3c1.36,3.5.56,5.75-.51,6.1a31,31,0,0,0-6.61,3.58,52.65,52.65,0,0,1-5.1-13.28c4.16-.27,6-0.2,7.49-0.8C1205.29,120.25,1207,121.81,1208.34,125.3Z" transform="translate(-1157.13 -101.11)" style="fill:#565a61"/><polygon points="37.51 46.1 36.55 46.4 36.18 49.09 33.28 45.1 33.21 45.73 35.82 49.34 37.06 48.46 37.51 46.1" style="fill:#bb8b95"/></svg>