<svg id="Layer_2" data-name="Layer 2" xmlns="http://www.w3.org/2000/svg" viewBox="0 0 72.67 83.19"><title>reduce-workload</title><polygon points="1.5 61.58 36.33 41.47 71.17 61.58 36.33 81.69 1.5 61.58" style="fill:#f1f2f7"/><path d="M1041.22,179.46a1.5,1.5,0,0,1-.75-0.2l-34.83-20.11a1.5,1.5,0,0,1,0-2.6l34.83-20.11a1.5,1.5,0,0,1,1.5,0l34.83,20.11a1.5,1.5,0,0,1,0,2.6L1042,179.26A1.5,1.5,0,0,1,1041.22,179.46Zm-31.83-21.61,31.83,18.38L1073,157.85l-31.83-18.38Z" transform="translate(-1004.88 -96.27)" style="fill:#f2f2f5"/><path d="M1063.46,154V132.59a3.66,3.66,0,0,0-1.83-3.17L1043,118.69a3.66,3.66,0,0,0-3.66,0l-18.58,10.73a3.66,3.66,0,0,0-1.83,3.17V154a3.66,3.66,0,0,0,1.83,3.17l18.58,10.73a3.66,3.66,0,0,0,3.66,0l18.58-10.73A3.66,3.66,0,0,0,1063.46,154Z" transform="translate(-1004.88 -96.27)" style="fill:#ee7b54"/><path d="M1039.38,167.94a3.65,3.65,0,0,0,1.44.47,3.65,3.65,0,0,0,.39-1.63V145.33a3.66,3.66,0,0,0-1.83-3.17l-18.58-10.73a3.65,3.65,0,0,0-1.44-.47,3.65,3.65,0,0,0-.39,1.63V154a3.66,3.66,0,0,0,1.83,3.17Z" transform="translate(-1004.88 -96.27)" style="fill:#d75444"/><path d="M1061.67,131.63a3.65,3.65,0,0,0,1.12-1,3.65,3.65,0,0,0-1.21-1.15L1043,118.76a3.66,3.66,0,0,0-3.66,0l-18.56,10.75a3.65,3.65,0,0,0-1.12,1,3.65,3.65,0,0,0,1.21,1.15l18.59,10.7a3.66,3.66,0,0,0,3.66,0Z" transform="translate(-1004.88 -96.27)" style="fill:#f4a473"/><path d="M1074.17,160.19a1.25,1.25,0,0,1-.63-2.33l1.25-.72v-1.44a1.25,1.25,0,0,1,2.5,0v2.17a1.25,1.25,0,0,1-.62,1.08L1074.8,160A1.25,1.25,0,0,1,1074.17,160.19Z" transform="translate(-1004.88 -96.27)" style="fill:#cbcbca"/><path d="M1076,151.42a1.25,1.25,0,0,1-1.25-1.25v-4.6a1.25,1.25,0,1,1,2.5,0v4.6A1.25,1.25,0,0,1,1076,151.42Zm0-10.12a1.25,1.25,0,0,1-1.25-1.25v-4.6a1.25,1.25,0,0,1,2.5,0V140A1.25,1.25,0,0,1,1076,141.29Zm0-10.12a1.25,1.25,0,0,1-1.25-1.25v-4.6a1.25,1.25,0,1,1,2.5,0v4.6A1.25,1.25,0,0,1,1076,131.17Z" transform="translate(-1004.88 -96.27)" style="fill:#cbcbca"/><path d="M1076,121a1.25,1.25,0,0,1-1.25-1.25v-1.44l-1.25-.72a1.25,1.25,0,0,1,1.25-2.17l1.88,1.08a1.25,1.25,0,0,1,.63,1.08v2.17A1.25,1.25,0,0,1,1076,121Z" transform="translate(-1004.88 -96.27)" style="fill:#cbcbca"/><path d="M1069.39,115a1.25,1.25,0,0,1-.62-0.17l-4-2.3a1.25,1.25,0,1,1,1.25-2.17l4,2.3A1.25,1.25,0,0,1,1069.39,115Zm-8.77-5.06a1.25,1.25,0,0,1-.62-0.17l-4-2.3a1.25,1.25,0,1,1,1.25-2.17l4,2.3A1.25,1.25,0,0,1,1060.62,110Zm-8.77-5.06a1.25,1.25,0,0,1-.62-0.17l-4-2.3a1.25,1.25,0,1,1,1.25-2.17l4,2.3A1.25,1.25,0,0,1,1051.86,104.92Z" transform="translate(-1004.88 -96.27)" style="fill:#cbcbca"/><path d="M1043.09,99.85a1.24,1.24,0,0,1-.62-0.17l-1.25-.72-1.25.72a1.25,1.25,0,1,1-1.25-2.17l1.88-1.08a1.25,1.25,0,0,1,1.25,0l1.88,1.08A1.25,1.25,0,0,1,1043.09,99.85Z" transform="translate(-1004.88 -96.27)" style="fill:#cbcbca"/><path d="M1013,115a1.25,1.25,0,0,1-.63-2.33l4-2.3a1.25,1.25,0,1,1,1.25,2.17l-4,2.3A1.25,1.25,0,0,1,1013,115Zm8.77-5.06a1.25,1.25,0,0,1-.63-2.33l4-2.3a1.25,1.25,0,1,1,1.25,2.17l-4,2.3A1.25,1.25,0,0,1,1021.81,110Zm8.77-5.06a1.25,1.25,0,0,1-.63-2.33l4-2.3a1.25,1.25,0,1,1,1.25,2.17l-4,2.3A1.25,1.25,0,0,1,1030.57,104.92Z" transform="translate(-1004.88 -96.27)" style="fill:#cbcbca"/><path d="M1006.38,121a1.25,1.25,0,0,1-1.25-1.25v-2.17a1.25,1.25,0,0,1,.63-1.08l1.88-1.08a1.25,1.25,0,1,1,1.25,2.17l-1.25.72v1.44A1.25,1.25,0,0,1,1006.38,121Z" transform="translate(-1004.88 -96.27)" style="fill:#cbcbca"/><path d="M1006.38,151.42a1.25,1.25,0,0,1-1.25-1.25v-4.6a1.25,1.25,0,1,1,2.5,0v4.6A1.25,1.25,0,0,1,1006.38,151.42Zm0-10.12a1.25,1.25,0,0,1-1.25-1.25v-4.6a1.25,1.25,0,0,1,2.5,0V140A1.25,1.25,0,0,1,1006.38,141.29Zm0-10.12a1.25,1.25,0,0,1-1.25-1.25v-4.6a1.25,1.25,0,1,1,2.5,0v4.6A1.25,1.25,0,0,1,1006.38,131.17Z" transform="translate(-1004.88 -96.27)" style="fill:#cbcbca"/><path d="M1008.26,160.19a1.25,1.25,0,0,1-.62-0.17l-1.88-1.08a1.25,1.25,0,0,1-.62-1.08v-2.17a1.25,1.25,0,0,1,2.5,0v1.44l1.25,0.72A1.25,1.25,0,0,1,1008.26,160.19Z" transform="translate(-1004.88 -96.27)" style="fill:#cbcbca"/><path d="M1034.56,175.37a1.25,1.25,0,0,1-.62-0.17l-4-2.3a1.25,1.25,0,1,1,1.25-2.17l4,2.3A1.25,1.25,0,0,1,1034.56,175.37Zm-8.77-5.06a1.25,1.25,0,0,1-.62-0.17l-4-2.3a1.25,1.25,0,1,1,1.25-2.17l4,2.3A1.25,1.25,0,0,1,1025.79,170.31Zm-8.77-5.06a1.25,1.25,0,0,1-.62-0.17l-4-2.3a1.25,1.25,0,1,1,1.25-2.17l4,2.3A1.25,1.25,0,0,1,1017,165.25Z" transform="translate(-1004.88 -96.27)" style="fill:#cbcbca"/><path d="M1041.22,179.21a1.25,1.25,0,0,1-.62-0.17l-1.88-1.08a1.25,1.25,0,1,1,1.25-2.17l1.25,0.72,1.25-.72a1.25,1.25,0,1,1,1.25,2.17l-1.87,1.08A1.25,1.25,0,0,1,1041.22,179.21Z" transform="translate(-1004.88 -96.27)" style="fill:#cbcbca"/><path d="M1047.87,175.37a1.25,1.25,0,0,1-.63-2.33l4-2.3a1.25,1.25,0,1,1,1.25,2.17l-4,2.3A1.25,1.25,0,0,1,1047.87,175.37Zm8.77-5.06A1.25,1.25,0,0,1,1056,168l4-2.3a1.25,1.25,0,1,1,1.25,2.17l-4,2.3A1.25,1.25,0,0,1,1056.64,170.31Zm8.77-5.06a1.25,1.25,0,0,1-.63-2.33l4-2.3a1.25,1.25,0,0,1,1.25,2.17l-4,2.3A1.24,1.24,0,0,1,1065.41,165.25Z" transform="translate(-1004.88 -96.27)" style="fill:#cbcbca"/></svg>