<svg xmlns="http://www.w3.org/2000/svg" viewBox="0 0 90.62 68.69"><title>work-better</title><g style="isolation:isolate"><g id="Layer_2" data-name="Layer 2"><circle cx="42.92" cy="43.75" r="24.94" style="fill:#55ade0"/><path d="M1440.15,279.34a25.09,25.09,0,0,0,.33,4c2.66,1.31,5.72,2.74,6.9,3.29a0.87,0.87,0,0,1,.5.79v9.93a25,25,0,0,0,3.83,3l4.85-11.69a0.88,0.88,0,0,0-.44-1.13L1446,282.8a0.88,0.88,0,0,1-.13-1.51l7.13-5a0.88,0.88,0,0,0,.35-0.93l-2-8.07a0.88,0.88,0,0,1,.1-0.66l3.28-5.47a0.88,0.88,0,0,0-.89-1.32l-5.3.82A24.87,24.87,0,0,0,1440.15,279.34Z" transform="translate(-1422.17 -235.59)" style="fill:#1d7bc0"/><path d="M1457.45,260.65l-2,3.12a0.88,0.88,0,0,0-.14.48V270a0.88,0.88,0,0,0,1.36.73l4-2.62a0.88,0.88,0,0,0,.36-0.48l1.69-5.56A0.88,0.88,0,0,0,1462,261l-3.64-.73A0.88,0.88,0,0,0,1457.45,260.65Z" transform="translate(-1422.17 -235.59)" style="fill:#1d7bc0"/><path d="M1478.74,258.46v4.07a0.88,0.88,0,0,1-.34.69l-6.1,4.7a0.88,0.88,0,0,1-1.19-.11l-0.66-.75a0.88,0.88,0,0,0-1.49.31l-2.05,6.27a0.88,0.88,0,0,1-.52.54l-1.71.67a0.88,0.88,0,0,0-.56.82v1.49a0.88,0.88,0,0,0,.51.8l1.3,0.59a0.88,0.88,0,0,1,0,1.59l-3.64,1.7a0.88,0.88,0,0,0-.47,1l0.92,3.08a0.88,0.88,0,0,0,.84.62h2.77a0.88,0.88,0,0,1,.86.7l1.44,7a0.88,0.88,0,0,0,1.06.68l1.29-.3a0.88,0.88,0,0,0,.54-0.38l7.18-11.17a0.88,0.88,0,0,1,1.37-.13l1.35,1.42a0.88,0.88,0,0,0,1.17.09l1.85-1.41a0.88,0.88,0,0,1,1.17.1l3.3,3.52A25,25,0,0,0,1478.74,258.46Z" transform="translate(-1422.17 -235.59)" style="fill:#1d7bc0"/><path d="M1473.33,298.3a24.94,24.94,0,0,1-18.46-41.71,24.94,24.94,0,1,0,28.69,39.52A24.84,24.84,0,0,1,1473.33,298.3Z" transform="translate(-1422.17 -235.59)" style="fill:#c8c8c8;mix-blend-mode:multiply"/><path d="M1505,246a8.3,8.3,0,0,1-.76,7.77,16.49,16.49,0,0,1-6,5.34c-1.94,1.11-4.19,2-6.36,1.5s-3.86-2.59-5.18-4.53c-1.62-2.38-3.18-4.94-3.43-7.81-0.38-4.37,2.5-8.53,6.22-10.84a10.24,10.24,0,0,1,7.75-1.63c2.55,0.65,4.54,2.65,6.07,4.79a15.7,15.7,0,0,1,3.15,7.87,11.35,11.35,0,0,1-4.95,10c-3.25,2.16-7.34,3.43-10.83,1.67s-6.23-6.49-6.42-10.39" transform="translate(-1422.17 -235.59)" style="fill:#fcd775"/><path d="M1487.74,254.89a30.21,30.21,0,0,0-6.7,2.85,16.05,16.05,0,0,1,5.43-6.54" transform="translate(-1422.17 -235.59)" style="fill:#fcd775"/><path d="M1435.65,262.55a3.34,3.34,0,0,0,2.21-.45,3.27,3.27,0,0,0,.93-2.19,68,68,0,0,0,.51-14.93,4.75,4.75,0,0,0-1.16-3.3,4.9,4.9,0,0,0-3-.9l-8.13-.64c-1.28-.1-2.73-0.14-3.63.77a4.46,4.46,0,0,0-.88,3.06l-0.35,10.23c-0.08,2.34-.06,5,1.55,6.66s4.06,1.85,6.29,1.61Z" transform="translate(-1422.17 -235.59)" style="fill:#da4748"/><path d="M1436.47,258.46a14.09,14.09,0,0,1,8.37,2.33c-1.23-2.8-4.47-5.07-8.32-5.82" transform="translate(-1422.17 -235.59)" style="fill:#da4748"/><g id="Octicons"><g id="heart"><path id="Shape" d="M1434.34,248a2,2,0,0,0-1.49-.68,1.92,1.92,0,0,0-1.49.68,4.39,4.39,0,0,0-.54.68,3.94,3.94,0,0,0-.54-0.68,1.87,1.87,0,0,0-1.49-.68,2,2,0,0,0-1.49.68,2.13,2.13,0,0,0-.54,1.35,4.05,4.05,0,0,0,.45,1.8,14.56,14.56,0,0,0,3.6,3.6,14.52,14.52,0,0,0,3.61-3.6,4.17,4.17,0,0,0,.45-1.8,2.19,2.19,0,0,0-.54-1.36h0Z" transform="translate(-1422.17 -235.59)" style="fill:#fff"/></g></g><g id="Octicons-2" data-name="Octicons"><g id="git-pull-request"><path id="Shape-2" data-name="Shape" d="M1498.51,251.06v-4.64a2.2,2.2,0,0,0-.69-1.52,2.24,2.24,0,0,0-1.52-.69h-0.74v-1.48l-2.22,2.22,2.22,2.22v-1.48h0.74a0.77,0.77,0,0,1,.51.23,0.7,0.7,0,0,1,.23.51v4.64a1.48,1.48,0,1,0,1.48,0h0Zm-0.74,2.16a0.89,0.89,0,1,1,.89-0.89,0.89,0.89,0,0,1-.89.89h0Zm-4.43-8.28a1.48,1.48,0,1,0-2.22,1.27v4.85a1.48,1.48,0,1,0,1.48,0v-4.85a1.47,1.47,0,0,0,.74-1.27h0Zm-0.59,7.39a0.89,0.89,0,1,1-.89-0.89,0.89,0.89,0,0,1,.89.89h0Zm-0.89-6.5a0.89,0.89,0,1,1,.89-0.89,0.89,0.89,0,0,1-.89.89h0Z" transform="translate(-1422.17 -235.59)" style="fill:#fff"/></g></g><path d="M1498.88,294.88a20.77,20.77,0,0,0,9.12.74,4.66,4.66,0,0,0,3.15-1.45c0.85-1.08.92-2.66,0.93-4.11q0-3.57,0-7.13a5.8,5.8,0,0,0-.78-3.43c-1-1.27-2.67-1.25-4.13-1.12l-8.81.76a2.82,2.82,0,0,0-1.8.6,3.73,3.73,0,0,0-.71,2.64q-0.08,5.67.07,11.34a5.15,5.15,0,0,0,.68,2.94,3.89,3.89,0,0,0,2.94,1.23,58.58,58.58,0,0,0,8.67.17,4.73,4.73,0,0,0,3-.89c1.21-1.07,1.35-3,1.39-4.78l0.22-8.84c0-1.7-.07-3.73-1.37-4.63a3.94,3.94,0,0,0-2.62-.41l-9.89.78" transform="translate(-1422.17 -235.59)" style="fill:#78bf9b"/><path d="M1496.62,290.22a5,5,0,0,1-5-1.18,4.23,4.23,0,0,0,5-1.36" transform="translate(-1422.17 -235.59)" style="fill:#78bf9b"/><g id="Octicons-3" data-name="Octicons"><g id="smiley"><path id="Shape-3" data-name="Shape" d="M1500.7,286.89v-0.47a1,1,0,0,1,1-1h0.47a1,1,0,0,1,1,1v0.47a1,1,0,0,1-1,1h-0.47a1,1,0,0,1-1-1h0Zm4,0v-0.47a1,1,0,0,1,1-1h0.47a1,1,0,0,1,1,1v0.47a1,1,0,0,1-1,1h-0.47a1,1,0,0,1-1-1h0Zm3.22,2.58a4.56,4.56,0,0,1-8,0,0.66,0.66,0,0,1,.53-0.8h6.91a0.72,0.72,0,0,1,.6.8h0Z" transform="translate(-1422.17 -235.59)" style="fill:#fff"/></g></g></g></g></svg>